<?xml version="1.0" encoding="utf-8" standalone="no"?>
<!DOCTYPE svg PUBLIC "-//W3C//DTD SVG 1.1//EN"
  "http://www.w3.org/Graphics/SVG/1.1/DTD/svg11.dtd">
<!-- Created with matplotlib (http://matplotlib.org/) -->
<svg height="288pt" version="1.1" viewBox="0 0 432 288" width="432pt" xmlns="http://www.w3.org/2000/svg" xmlns:xlink="http://www.w3.org/1999/xlink">
 <defs>
  <style type="text/css">
*{stroke-linecap:butt;stroke-linejoin:round;}
  </style>
 </defs>
 <g id="figure_1">
  <g id="patch_1">
   <path d="M 0 288 
L 432 288 
L 432 0 
L 0 0 
z
" style="fill:#f0f0f0;"/>
  </g>
  <g id="axes_1">
   <g id="patch_2">
    <path d="M 34.56 252 
L 410.4 252 
L 410.4 34.56 
L 34.56 34.56 
z
" style="fill:#f0f0f0;"/>
   </g>
   <g id="matplotlib.axis_1">
    <g id="xtick_1">
     <g id="line2d_1">
      <path clip-path="url(#pd6fe161fae)" d="M 51.643636 252 
L 51.643636 34.56 
" style="fill:none;stroke:#cbcbcb;"/>
     </g>
     <g id="line2d_2"/>
     <g id="text_1">
      <!-- 0 -->
      <defs>
       <path d="M 31.78125 66.40625 
Q 24.171875 66.40625 20.328125 58.90625 
Q 16.5 51.421875 16.5 36.375 
Q 16.5 21.390625 20.328125 13.890625 
Q 24.171875 6.390625 31.78125 6.390625 
Q 39.453125 6.390625 43.28125 13.890625 
Q 47.125 21.390625 47.125 36.375 
Q 47.125 51.421875 43.28125 58.90625 
Q 39.453125 66.40625 31.78125 66.40625 
z
M 31.78125 74.21875 
Q 44.046875 74.21875 50.515625 64.515625 
Q 56.984375 54.828125 56.984375 36.375 
Q 56.984375 17.96875 50.515625 8.265625 
Q 44.046875 -1.421875 31.78125 -1.421875 
Q 19.53125 -1.421875 13.0625 8.265625 
Q 6.59375 17.96875 6.59375 36.375 
Q 6.59375 54.828125 13.0625 64.515625 
Q 19.53125 74.21875 31.78125 74.21875 
z
" id="DejaVuSans-30"/>
      </defs>
      <g transform="translate(48.462386 263.098437)scale(0.1 -0.1)">
       <use xlink:href="#DejaVuSans-30"/>
      </g>
     </g>
    </g>
    <g id="xtick_2">
     <g id="line2d_3">
      <path clip-path="url(#pd6fe161fae)" d="M 133.681844 252 
L 133.681844 34.56 
" style="fill:none;stroke:#cbcbcb;"/>
     </g>
     <g id="line2d_4"/>
     <g id="text_2">
      <!-- 5000 -->
      <defs>
       <path d="M 10.796875 72.90625 
L 49.515625 72.90625 
L 49.515625 64.59375 
L 19.828125 64.59375 
L 19.828125 46.734375 
Q 21.96875 47.46875 24.109375 47.828125 
Q 26.265625 48.1875 28.421875 48.1875 
Q 40.625 48.1875 47.75 41.5 
Q 54.890625 34.8125 54.890625 23.390625 
Q 54.890625 11.625 47.5625 5.09375 
Q 40.234375 -1.421875 26.90625 -1.421875 
Q 22.3125 -1.421875 17.546875 -0.640625 
Q 12.796875 0.140625 7.71875 1.703125 
L 7.71875 11.625 
Q 12.109375 9.234375 16.796875 8.0625 
Q 21.484375 6.890625 26.703125 6.890625 
Q 35.15625 6.890625 40.078125 11.328125 
Q 45.015625 15.765625 45.015625 23.390625 
Q 45.015625 31 40.078125 35.4375 
Q 35.15625 39.890625 26.703125 39.890625 
Q 22.75 39.890625 18.8125 39.015625 
Q 14.890625 38.140625 10.796875 36.28125 
z
" id="DejaVuSans-35"/>
      </defs>
      <g transform="translate(120.956844 263.098437)scale(0.1 -0.1)">
       <use xlink:href="#DejaVuSans-35"/>
       <use x="63.623047" xlink:href="#DejaVuSans-30"/>
       <use x="127.246094" xlink:href="#DejaVuSans-30"/>
       <use x="190.869141" xlink:href="#DejaVuSans-30"/>
      </g>
     </g>
    </g>
    <g id="xtick_3">
     <g id="line2d_5">
      <path clip-path="url(#pd6fe161fae)" d="M 215.720052 252 
L 215.720052 34.56 
" style="fill:none;stroke:#cbcbcb;"/>
     </g>
     <g id="line2d_6"/>
     <g id="text_3">
      <!-- 10000 -->
      <defs>
       <path d="M 12.40625 8.296875 
L 28.515625 8.296875 
L 28.515625 63.921875 
L 10.984375 60.40625 
L 10.984375 69.390625 
L 28.421875 72.90625 
L 38.28125 72.90625 
L 38.28125 8.296875 
L 54.390625 8.296875 
L 54.390625 0 
L 12.40625 0 
z
" id="DejaVuSans-31"/>
      </defs>
      <g transform="translate(199.813802 263.098437)scale(0.1 -0.1)">
       <use xlink:href="#DejaVuSans-31"/>
       <use x="63.623047" xlink:href="#DejaVuSans-30"/>
       <use x="127.246094" xlink:href="#DejaVuSans-30"/>
       <use x="190.869141" xlink:href="#DejaVuSans-30"/>
       <use x="254.492188" xlink:href="#DejaVuSans-30"/>
      </g>
     </g>
    </g>
    <g id="xtick_4">
     <g id="line2d_7">
      <path clip-path="url(#pd6fe161fae)" d="M 297.758259 252 
L 297.758259 34.56 
" style="fill:none;stroke:#cbcbcb;"/>
     </g>
     <g id="line2d_8"/>
     <g id="text_4">
      <!-- 15000 -->
      <g transform="translate(281.852009 263.098437)scale(0.1 -0.1)">
       <use xlink:href="#DejaVuSans-31"/>
       <use x="63.623047" xlink:href="#DejaVuSans-35"/>
       <use x="127.246094" xlink:href="#DejaVuSans-30"/>
       <use x="190.869141" xlink:href="#DejaVuSans-30"/>
       <use x="254.492188" xlink:href="#DejaVuSans-30"/>
      </g>
     </g>
    </g>
    <g id="xtick_5">
     <g id="line2d_9">
      <path clip-path="url(#pd6fe161fae)" d="M 379.796467 252 
L 379.796467 34.56 
" style="fill:none;stroke:#cbcbcb;"/>
     </g>
     <g id="line2d_10"/>
     <g id="text_5">
      <!-- 20000 -->
      <defs>
       <path d="M 19.1875 8.296875 
L 53.609375 8.296875 
L 53.609375 0 
L 7.328125 0 
L 7.328125 8.296875 
Q 12.9375 14.109375 22.625 23.890625 
Q 32.328125 33.6875 34.8125 36.53125 
Q 39.546875 41.84375 41.421875 45.53125 
Q 43.3125 49.21875 43.3125 52.78125 
Q 43.3125 58.59375 39.234375 62.25 
Q 35.15625 65.921875 28.609375 65.921875 
Q 23.96875 65.921875 18.8125 64.3125 
Q 13.671875 62.703125 7.8125 59.421875 
L 7.8125 69.390625 
Q 13.765625 71.78125 18.9375 73 
Q 24.125 74.21875 28.421875 74.21875 
Q 39.75 74.21875 46.484375 68.546875 
Q 53.21875 62.890625 53.21875 53.421875 
Q 53.21875 48.921875 51.53125 44.890625 
Q 49.859375 40.875 45.40625 35.40625 
Q 44.1875 33.984375 37.640625 27.21875 
Q 31.109375 20.453125 19.1875 8.296875 
z
" id="DejaVuSans-32"/>
      </defs>
      <g transform="translate(363.890217 263.098437)scale(0.1 -0.1)">
       <use xlink:href="#DejaVuSans-32"/>
       <use x="63.623047" xlink:href="#DejaVuSans-30"/>
       <use x="127.246094" xlink:href="#DejaVuSans-30"/>
       <use x="190.869141" xlink:href="#DejaVuSans-30"/>
       <use x="254.492188" xlink:href="#DejaVuSans-30"/>
      </g>
     </g>
    </g>
    <g id="text_6">
     <!-- Sentence # -->
     <defs>
      <path d="M 53.515625 70.515625 
L 53.515625 60.890625 
Q 47.90625 63.578125 42.921875 64.890625 
Q 37.9375 66.21875 33.296875 66.21875 
Q 25.25 66.21875 20.875 63.09375 
Q 16.5 59.96875 16.5 54.203125 
Q 16.5 49.359375 19.40625 46.890625 
Q 22.3125 44.4375 30.421875 42.921875 
L 36.375 41.703125 
Q 47.40625 39.59375 52.65625 34.296875 
Q 57.90625 29 57.90625 20.125 
Q 57.90625 9.515625 50.796875 4.046875 
Q 43.703125 -1.421875 29.984375 -1.421875 
Q 24.8125 -1.421875 18.96875 -0.25 
Q 13.140625 0.921875 6.890625 3.21875 
L 6.890625 13.375 
Q 12.890625 10.015625 18.65625 8.296875 
Q 24.421875 6.59375 29.984375 6.59375 
Q 38.421875 6.59375 43.015625 9.90625 
Q 47.609375 13.234375 47.609375 19.390625 
Q 47.609375 24.75 44.3125 27.78125 
Q 41.015625 30.8125 33.5 32.328125 
L 27.484375 33.5 
Q 16.453125 35.6875 11.515625 40.375 
Q 6.59375 45.0625 6.59375 53.421875 
Q 6.59375 63.09375 13.40625 68.65625 
Q 20.21875 74.21875 32.171875 74.21875 
Q 37.3125 74.21875 42.625 73.28125 
Q 47.953125 72.359375 53.515625 70.515625 
z
" id="DejaVuSans-53"/>
      <path d="M 56.203125 29.59375 
L 56.203125 25.203125 
L 14.890625 25.203125 
Q 15.484375 15.921875 20.484375 11.0625 
Q 25.484375 6.203125 34.421875 6.203125 
Q 39.59375 6.203125 44.453125 7.46875 
Q 49.3125 8.734375 54.109375 11.28125 
L 54.109375 2.78125 
Q 49.265625 0.734375 44.1875 -0.34375 
Q 39.109375 -1.421875 33.890625 -1.421875 
Q 20.796875 -1.421875 13.15625 6.1875 
Q 5.515625 13.8125 5.515625 26.8125 
Q 5.515625 40.234375 12.765625 48.109375 
Q 20.015625 56 32.328125 56 
Q 43.359375 56 49.78125 48.890625 
Q 56.203125 41.796875 56.203125 29.59375 
z
M 47.21875 32.234375 
Q 47.125 39.59375 43.09375 43.984375 
Q 39.0625 48.390625 32.421875 48.390625 
Q 24.90625 48.390625 20.390625 44.140625 
Q 15.875 39.890625 15.1875 32.171875 
z
" id="DejaVuSans-65"/>
      <path d="M 54.890625 33.015625 
L 54.890625 0 
L 45.90625 0 
L 45.90625 32.71875 
Q 45.90625 40.484375 42.875 44.328125 
Q 39.84375 48.1875 33.796875 48.1875 
Q 26.515625 48.1875 22.3125 43.546875 
Q 18.109375 38.921875 18.109375 30.90625 
L 18.109375 0 
L 9.078125 0 
L 9.078125 54.6875 
L 18.109375 54.6875 
L 18.109375 46.1875 
Q 21.34375 51.125 25.703125 53.5625 
Q 30.078125 56 35.796875 56 
Q 45.21875 56 50.046875 50.171875 
Q 54.890625 44.34375 54.890625 33.015625 
z
" id="DejaVuSans-6e"/>
      <path d="M 18.3125 70.21875 
L 18.3125 54.6875 
L 36.8125 54.6875 
L 36.8125 47.703125 
L 18.3125 47.703125 
L 18.3125 18.015625 
Q 18.3125 11.328125 20.140625 9.421875 
Q 21.96875 7.515625 27.59375 7.515625 
L 36.8125 7.515625 
L 36.8125 0 
L 27.59375 0 
Q 17.1875 0 13.234375 3.875 
Q 9.28125 7.765625 9.28125 18.015625 
L 9.28125 47.703125 
L 2.6875 47.703125 
L 2.6875 54.6875 
L 9.28125 54.6875 
L 9.28125 70.21875 
z
" id="DejaVuSans-74"/>
      <path d="M 48.78125 52.59375 
L 48.78125 44.1875 
Q 44.96875 46.296875 41.140625 47.34375 
Q 37.3125 48.390625 33.40625 48.390625 
Q 24.65625 48.390625 19.8125 42.84375 
Q 14.984375 37.3125 14.984375 27.296875 
Q 14.984375 17.28125 19.8125 11.734375 
Q 24.65625 6.203125 33.40625 6.203125 
Q 37.3125 6.203125 41.140625 7.25 
Q 44.96875 8.296875 48.78125 10.40625 
L 48.78125 2.09375 
Q 45.015625 0.34375 40.984375 -0.53125 
Q 36.96875 -1.421875 32.421875 -1.421875 
Q 20.0625 -1.421875 12.78125 6.34375 
Q 5.515625 14.109375 5.515625 27.296875 
Q 5.515625 40.671875 12.859375 48.328125 
Q 20.21875 56 33.015625 56 
Q 37.15625 56 41.109375 55.140625 
Q 45.0625 54.296875 48.78125 52.59375 
z
" id="DejaVuSans-63"/>
      <path id="DejaVuSans-20"/>
      <path d="M 51.125 44 
L 36.921875 44 
L 32.8125 27.6875 
L 47.125 27.6875 
z
M 43.796875 71.78125 
L 38.71875 51.515625 
L 52.984375 51.515625 
L 58.109375 71.78125 
L 65.921875 71.78125 
L 60.890625 51.515625 
L 76.125 51.515625 
L 76.125 44 
L 58.984375 44 
L 54.984375 27.6875 
L 70.515625 27.6875 
L 70.515625 20.21875 
L 53.078125 20.21875 
L 48 0 
L 40.1875 0 
L 45.21875 20.21875 
L 30.90625 20.21875 
L 25.875 0 
L 18.015625 0 
L 23.09375 20.21875 
L 7.71875 20.21875 
L 7.71875 27.6875 
L 24.90625 27.6875 
L 29 44 
L 13.28125 44 
L 13.28125 51.515625 
L 30.90625 51.515625 
L 35.890625 71.78125 
z
" id="DejaVuSans-23"/>
     </defs>
     <g transform="translate(187.404375 278.29625)scale(0.12 -0.12)">
      <use xlink:href="#DejaVuSans-53"/>
      <use x="63.476562" xlink:href="#DejaVuSans-65"/>
      <use x="125" xlink:href="#DejaVuSans-6e"/>
      <use x="188.378906" xlink:href="#DejaVuSans-74"/>
      <use x="227.587891" xlink:href="#DejaVuSans-65"/>
      <use x="289.111328" xlink:href="#DejaVuSans-6e"/>
      <use x="352.490234" xlink:href="#DejaVuSans-63"/>
      <use x="407.470703" xlink:href="#DejaVuSans-65"/>
      <use x="468.994141" xlink:href="#DejaVuSans-20"/>
      <use x="500.78125" xlink:href="#DejaVuSans-23"/>
     </g>
    </g>
   </g>
   <g id="matplotlib.axis_2">
    <g id="ytick_1">
     <g id="line2d_11">
      <path clip-path="url(#pd6fe161fae)" d="M 34.56 215.555645 
L 410.4 215.555645 
" style="fill:none;stroke:#cbcbcb;"/>
     </g>
     <g id="line2d_12"/>
     <g id="text_7">
      <!-- 0.0000 -->
      <defs>
       <path d="M 10.6875 12.40625 
L 21 12.40625 
L 21 0 
L 10.6875 0 
z
" id="DejaVuSans-2e"/>
      </defs>
      <g transform="translate(-3.930625 219.354863)scale(0.1 -0.1)">
       <use xlink:href="#DejaVuSans-30"/>
       <use x="63.623047" xlink:href="#DejaVuSans-2e"/>
       <use x="95.410156" xlink:href="#DejaVuSans-30"/>
       <use x="159.033203" xlink:href="#DejaVuSans-30"/>
       <use x="222.65625" xlink:href="#DejaVuSans-30"/>
       <use x="286.279297" xlink:href="#DejaVuSans-30"/>
      </g>
     </g>
    </g>
    <g id="ytick_2">
     <g id="line2d_13">
      <path clip-path="url(#pd6fe161fae)" d="M 34.56 175.828197 
L 410.4 175.828197 
" style="fill:none;stroke:#cbcbcb;"/>
     </g>
     <g id="line2d_14"/>
     <g id="text_8">
      <!-- 0.0001 -->
      <g transform="translate(-3.930625 179.627415)scale(0.1 -0.1)">
       <use xlink:href="#DejaVuSans-30"/>
       <use x="63.623047" xlink:href="#DejaVuSans-2e"/>
       <use x="95.410156" xlink:href="#DejaVuSans-30"/>
       <use x="159.033203" xlink:href="#DejaVuSans-30"/>
       <use x="222.65625" xlink:href="#DejaVuSans-30"/>
       <use x="286.279297" xlink:href="#DejaVuSans-31"/>
      </g>
     </g>
    </g>
    <g id="ytick_3">
     <g id="line2d_15">
      <path clip-path="url(#pd6fe161fae)" d="M 34.56 136.100748 
L 410.4 136.100748 
" style="fill:none;stroke:#cbcbcb;"/>
     </g>
     <g id="line2d_16"/>
     <g id="text_9">
      <!-- 0.0002 -->
      <g transform="translate(-3.930625 139.899967)scale(0.1 -0.1)">
       <use xlink:href="#DejaVuSans-30"/>
       <use x="63.623047" xlink:href="#DejaVuSans-2e"/>
       <use x="95.410156" xlink:href="#DejaVuSans-30"/>
       <use x="159.033203" xlink:href="#DejaVuSans-30"/>
       <use x="222.65625" xlink:href="#DejaVuSans-30"/>
       <use x="286.279297" xlink:href="#DejaVuSans-32"/>
      </g>
     </g>
    </g>
    <g id="ytick_4">
     <g id="line2d_17">
      <path clip-path="url(#pd6fe161fae)" d="M 34.56 96.3733 
L 410.4 96.3733 
" style="fill:none;stroke:#cbcbcb;"/>
     </g>
     <g id="line2d_18"/>
     <g id="text_10">
      <!-- 0.0003 -->
      <defs>
       <path d="M 40.578125 39.3125 
Q 47.65625 37.796875 51.625 33 
Q 55.609375 28.21875 55.609375 21.1875 
Q 55.609375 10.40625 48.1875 4.484375 
Q 40.765625 -1.421875 27.09375 -1.421875 
Q 22.515625 -1.421875 17.65625 -0.515625 
Q 12.796875 0.390625 7.625 2.203125 
L 7.625 11.71875 
Q 11.71875 9.328125 16.59375 8.109375 
Q 21.484375 6.890625 26.8125 6.890625 
Q 36.078125 6.890625 40.9375 10.546875 
Q 45.796875 14.203125 45.796875 21.1875 
Q 45.796875 27.640625 41.28125 31.265625 
Q 36.765625 34.90625 28.71875 34.90625 
L 20.21875 34.90625 
L 20.21875 43.015625 
L 29.109375 43.015625 
Q 36.375 43.015625 40.234375 45.921875 
Q 44.09375 48.828125 44.09375 54.296875 
Q 44.09375 59.90625 40.109375 62.90625 
Q 36.140625 65.921875 28.71875 65.921875 
Q 24.65625 65.921875 20.015625 65.03125 
Q 15.375 64.15625 9.8125 62.3125 
L 9.8125 71.09375 
Q 15.4375 72.65625 20.34375 73.4375 
Q 25.25 74.21875 29.59375 74.21875 
Q 40.828125 74.21875 47.359375 69.109375 
Q 53.90625 64.015625 53.90625 55.328125 
Q 53.90625 49.265625 50.4375 45.09375 
Q 46.96875 40.921875 40.578125 39.3125 
z
" id="DejaVuSans-33"/>
      </defs>
      <g transform="translate(-3.930625 100.172519)scale(0.1 -0.1)">
       <use xlink:href="#DejaVuSans-30"/>
       <use x="63.623047" xlink:href="#DejaVuSans-2e"/>
       <use x="95.410156" xlink:href="#DejaVuSans-30"/>
       <use x="159.033203" xlink:href="#DejaVuSans-30"/>
       <use x="222.65625" xlink:href="#DejaVuSans-30"/>
       <use x="286.279297" xlink:href="#DejaVuSans-33"/>
      </g>
     </g>
    </g>
    <g id="ytick_5">
     <g id="line2d_19">
      <path clip-path="url(#pd6fe161fae)" d="M 34.56 56.645852 
L 410.4 56.645852 
" style="fill:none;stroke:#cbcbcb;"/>
     </g>
     <g id="line2d_20"/>
     <g id="text_11">
      <!-- 0.0004 -->
      <defs>
       <path d="M 37.796875 64.3125 
L 12.890625 25.390625 
L 37.796875 25.390625 
z
M 35.203125 72.90625 
L 47.609375 72.90625 
L 47.609375 25.390625 
L 58.015625 25.390625 
L 58.015625 17.1875 
L 47.609375 17.1875 
L 47.609375 0 
L 37.796875 0 
L 37.796875 17.1875 
L 4.890625 17.1875 
L 4.890625 26.703125 
z
" id="DejaVuSans-34"/>
      </defs>
      <g transform="translate(-3.930625 60.445071)scale(0.1 -0.1)">
       <use xlink:href="#DejaVuSans-30"/>
       <use x="63.623047" xlink:href="#DejaVuSans-2e"/>
       <use x="95.410156" xlink:href="#DejaVuSans-30"/>
       <use x="159.033203" xlink:href="#DejaVuSans-30"/>
       <use x="222.65625" xlink:href="#DejaVuSans-30"/>
       <use x="286.279297" xlink:href="#DejaVuSans-34"/>
      </g>
     </g>
    </g>
    <g id="text_12">
     <!-- Sentiment Score -->
     <defs>
      <path d="M 9.421875 54.6875 
L 18.40625 54.6875 
L 18.40625 0 
L 9.421875 0 
z
M 9.421875 75.984375 
L 18.40625 75.984375 
L 18.40625 64.59375 
L 9.421875 64.59375 
z
" id="DejaVuSans-69"/>
      <path d="M 52 44.1875 
Q 55.375 50.25 60.0625 53.125 
Q 64.75 56 71.09375 56 
Q 79.640625 56 84.28125 50.015625 
Q 88.921875 44.046875 88.921875 33.015625 
L 88.921875 0 
L 79.890625 0 
L 79.890625 32.71875 
Q 79.890625 40.578125 77.09375 44.375 
Q 74.3125 48.1875 68.609375 48.1875 
Q 61.625 48.1875 57.5625 43.546875 
Q 53.515625 38.921875 53.515625 30.90625 
L 53.515625 0 
L 44.484375 0 
L 44.484375 32.71875 
Q 44.484375 40.625 41.703125 44.40625 
Q 38.921875 48.1875 33.109375 48.1875 
Q 26.21875 48.1875 22.15625 43.53125 
Q 18.109375 38.875 18.109375 30.90625 
L 18.109375 0 
L 9.078125 0 
L 9.078125 54.6875 
L 18.109375 54.6875 
L 18.109375 46.1875 
Q 21.1875 51.21875 25.484375 53.609375 
Q 29.78125 56 35.6875 56 
Q 41.65625 56 45.828125 52.96875 
Q 50 49.953125 52 44.1875 
z
" id="DejaVuSans-6d"/>
      <path d="M 30.609375 48.390625 
Q 23.390625 48.390625 19.1875 42.75 
Q 14.984375 37.109375 14.984375 27.296875 
Q 14.984375 17.484375 19.15625 11.84375 
Q 23.34375 6.203125 30.609375 6.203125 
Q 37.796875 6.203125 41.984375 11.859375 
Q 46.1875 17.53125 46.1875 27.296875 
Q 46.1875 37.015625 41.984375 42.703125 
Q 37.796875 48.390625 30.609375 48.390625 
z
M 30.609375 56 
Q 42.328125 56 49.015625 48.375 
Q 55.71875 40.765625 55.71875 27.296875 
Q 55.71875 13.875 49.015625 6.21875 
Q 42.328125 -1.421875 30.609375 -1.421875 
Q 18.84375 -1.421875 12.171875 6.21875 
Q 5.515625 13.875 5.515625 27.296875 
Q 5.515625 40.765625 12.171875 48.375 
Q 18.84375 56 30.609375 56 
z
" id="DejaVuSans-6f"/>
      <path d="M 41.109375 46.296875 
Q 39.59375 47.171875 37.8125 47.578125 
Q 36.03125 48 33.890625 48 
Q 26.265625 48 22.1875 43.046875 
Q 18.109375 38.09375 18.109375 28.8125 
L 18.109375 0 
L 9.078125 0 
L 9.078125 54.6875 
L 18.109375 54.6875 
L 18.109375 46.1875 
Q 20.953125 51.171875 25.484375 53.578125 
Q 30.03125 56 36.53125 56 
Q 37.453125 56 38.578125 55.875 
Q 39.703125 55.765625 41.0625 55.515625 
z
" id="DejaVuSans-72"/>
     </defs>
     <g transform="translate(-10.42625 193.13625)rotate(-90)scale(0.12 -0.12)">
      <use xlink:href="#DejaVuSans-53"/>
      <use x="63.476562" xlink:href="#DejaVuSans-65"/>
      <use x="125" xlink:href="#DejaVuSans-6e"/>
      <use x="188.378906" xlink:href="#DejaVuSans-74"/>
      <use x="227.587891" xlink:href="#DejaVuSans-69"/>
      <use x="255.371094" xlink:href="#DejaVuSans-6d"/>
      <use x="352.783203" xlink:href="#DejaVuSans-65"/>
      <use x="414.306641" xlink:href="#DejaVuSans-6e"/>
      <use x="477.685547" xlink:href="#DejaVuSans-74"/>
      <use x="516.894531" xlink:href="#DejaVuSans-20"/>
      <use x="548.681641" xlink:href="#DejaVuSans-53"/>
      <use x="612.158203" xlink:href="#DejaVuSans-63"/>
      <use x="667.138672" xlink:href="#DejaVuSans-6f"/>
      <use x="728.320312" xlink:href="#DejaVuSans-72"/>
      <use x="769.402344" xlink:href="#DejaVuSans-65"/>
     </g>
    </g>
   </g>
   <g id="line2d_21">
    <path clip-path="url(#pd6fe161fae)" d="M 51.643636 188.869388 
L 54.022744 191.471834 
L 56.877674 194.252203 
L 61.570259 198.48435 
L 63.949368 200.364605 
L 65.622947 201.424561 
L 66.771482 201.907011 
L 67.608272 202.032546 
L 68.280985 201.916482 
L 68.756806 201.63207 
L 69.675634 199.836985 
L 70.8898 196.942962 
L 73.482207 189.997947 
L 78.289646 177.074864 
L 79.405366 174.882645 
L 80.471863 173.277932 
L 81.636805 171.924415 
L 82.736117 170.965566 
L 83.572907 170.507537 
L 84.344066 170.332938 
L 85.197263 170.374147 
L 85.98483 170.623156 
L 86.723174 171.098229 
L 87.494333 171.870279 
L 88.314715 173.020075 
L 89.200728 174.662084 
L 90.168779 176.952278 
L 91.366537 180.426361 
L 95.813007 193.813626 
L 97.076396 196.755461 
L 99.89851 202.978014 
L 102.851886 209.945069 
L 103.984013 212.093989 
L 104.870025 213.328435 
L 105.657592 214.064333 
L 106.445159 214.498786 
L 107.216318 214.684529 
L 107.954662 214.634995 
L 108.676598 214.361997 
L 109.513388 213.792362 
L 110.924445 212.517335 
L 112.844139 210.806445 
L 113.828598 210.238075 
L 114.665387 210.001894 
L 115.452954 210.004937 
L 116.338967 210.246074 
L 118.931374 211.072038 
L 120.047094 211.121689 
L 121.310482 210.951569 
L 122.344164 210.60677 
L 123.262992 210.054219 
L 124.493565 209.015297 
L 126.281998 207.539136 
L 127.184418 207.097404 
L 127.988392 206.938423 
L 128.743144 207.013885 
L 129.481488 207.314786 
L 130.30187 207.900024 
L 131.20429 208.827458 
L 132.205156 210.19773 
L 133.304468 212.094972 
L 134.715525 215.016282 
L 138.308799 222.659611 
L 139.358888 224.295535 
L 140.277716 225.336391 
L 141.147321 226.001571 
L 142.049741 226.417897 
L 143.001384 226.614524 
L 144.871856 226.927512 
L 146.118836 227.462761 
L 147.661155 228.102194 
L 148.399498 228.148364 
L 149.022989 227.966522 
L 149.630072 227.548105 
L 150.26997 226.826358 
L 150.975498 225.678471 
L 151.79588 223.885949 
L 152.763931 221.199909 
L 153.961689 217.175609 
L 155.979829 209.476872 
L 158.785536 199.039765 
L 160.573968 193.069017 
L 161.738911 189.901309 
L 162.657739 187.996985 
L 163.478121 186.772773 
L 164.347726 185.879532 
L 165.955675 184.327395 
L 166.694019 183.203635 
L 167.530809 181.486255 
L 168.597305 178.739627 
L 170.58263 172.853057 
L 173.618044 163.891328 
L 174.782986 161.215037 
L 175.751037 159.53081 
L 176.735495 158.262349 
L 177.801992 157.239337 
L 178.835674 156.543334 
L 179.787317 156.169642 
L 180.656922 156.066382 
L 181.936718 156.174252 
L 183.200106 156.457083 
L 184.184565 156.907782 
L 185.365915 157.718004 
L 186.694934 158.908084 
L 187.843469 160.218168 
L 188.795112 161.649325 
L 189.927239 163.80231 
L 191.010144 166.319496 
L 192.043825 169.316099 
L 193.766627 175.156814 
L 195.243315 179.82723 
L 196.211366 182.188787 
L 197.031748 183.647078 
L 197.786499 184.559646 
L 198.508436 185.103875 
L 199.181149 185.340211 
L 199.804639 185.329073 
L 200.42813 185.09066 
L 201.100843 184.585177 
L 201.95404 183.641416 
L 203.726066 181.234768 
L 204.759747 180.071905 
L 205.629352 179.410991 
L 206.384104 179.096059 
L 207.040409 179.057124 
L 207.680307 179.242431 
L 208.369428 179.683614 
L 209.140587 180.461548 
L 210.125046 181.805718 
L 212.504154 185.22667 
L 213.16046 185.684409 
L 213.767542 185.844285 
L 214.40744 185.774061 
L 215.145784 185.45487 
L 216.245096 184.694549 
L 217.508485 183.893095 
L 218.246828 183.678804 
L 218.903134 183.713802 
L 219.575847 183.976912 
L 220.297784 184.504295 
L 221.134573 185.41205 
L 222.086217 186.779645 
L 223.054267 188.567041 
L 226.155312 194.738625 
L 226.877248 195.546078 
L 227.467923 195.893141 
L 227.97656 195.943432 
L 228.485197 195.764058 
L 229.075872 195.299719 
L 229.814216 194.412009 
L 232.685553 190.621869 
L 233.341859 190.287888 
L 233.916126 190.234475 
L 234.473986 190.40722 
L 235.064661 190.834708 
L 235.704559 191.583073 
L 236.442903 192.811567 
L 237.361731 194.810846 
L 238.96968 198.963989 
L 240.528406 202.774843 
L 241.447234 204.464323 
L 242.201985 205.422671 
L 242.858291 205.922706 
L 243.498189 206.140739 
L 244.18731 206.132304 
L 245.36866 205.839359 
L 247.288354 205.415219 
L 248.108736 205.47194 
L 248.863488 205.750133 
L 249.651054 206.288066 
L 250.520659 207.165491 
L 251.42308 208.400091 
L 252.358315 210.075267 
L 253.424812 212.470819 
L 256.722748 220.257015 
L 257.461092 221.267369 
L 258.117397 221.812218 
L 258.691665 222.016254 
L 259.265932 221.982396 
L 259.90583 221.70696 
L 260.676989 221.116884 
L 261.530187 220.172781 
L 262.48183 218.768602 
L 263.695996 216.54019 
L 266.157142 211.93992 
L 267.240046 210.410606 
L 268.093243 209.563606 
L 268.930033 209.044931 
L 269.914492 208.707181 
L 271.210695 208.505846 
L 273.081166 208.209963 
L 274.049217 207.817379 
L 274.918822 207.21417 
L 275.886873 206.250928 
L 277.068223 204.746 
L 278.626949 202.371038 
L 280.481013 199.628505 
L 281.301395 198.781154 
L 281.941293 198.418806 
L 282.482745 198.356193 
L 283.00779 198.517543 
L 283.582057 198.941041 
L 284.238363 199.7174 
L 285.107968 201.128254 
L 286.584655 204.035383 
L 288.22542 207.077713 
L 289.341139 208.69111 
L 290.555305 210.053902 
L 291.42491 210.722946 
L 292.097623 210.983075 
L 292.688298 210.976231 
L 293.262566 210.739333 
L 293.886056 210.226819 
L 294.657215 209.276106 
L 295.887788 207.346385 
L 297.577775 204.76546 
L 298.463788 203.807009 
L 299.152909 203.361862 
L 299.743584 203.236604 
L 300.317851 203.345422 
L 300.941342 203.698993 
L 301.663278 204.374106 
L 302.549291 205.531627 
L 304.78073 208.997954 
L 306.093341 210.740945 
L 307.061392 211.685741 
L 307.848959 212.153885 
L 308.60371 212.349655 
L 309.424092 212.327689 
L 310.720296 212.026078 
L 312.049315 211.797597 
L 312.984551 211.859685 
L 313.854156 212.144794 
L 314.772984 212.693685 
L 315.708219 213.519545 
L 316.791124 214.793792 
L 318.743633 217.527774 
L 320.335174 219.577815 
L 321.237594 220.399945 
L 321.959531 220.77724 
L 322.566613 220.860429 
L 323.108066 220.710217 
L 323.665925 220.316362 
L 324.338639 219.545262 
L 325.159021 218.241464 
L 326.291148 215.979259 
L 330.097721 207.996062 
L 331.279071 206.189701 
L 332.361975 204.931231 
L 333.494103 203.954555 
L 334.577007 203.304761 
L 335.643504 202.923569 
L 336.98893 202.701011 
L 340.516573 202.396435 
L 341.320548 202.710065 
L 342.321414 203.355453 
L 343.502764 204.392573 
L 344.798968 205.829758 
L 345.980318 207.480985 
L 347.046815 209.369632 
L 348.162534 211.812071 
L 349.327477 214.910367 
L 350.738534 219.35319 
L 354.577922 231.764097 
L 356.185871 235.955259 
L 357.531297 238.950924 
L 358.482941 240.559191 
L 359.2541 241.457444 
L 359.943221 241.935215 
L 360.566711 242.109538 
L 361.190202 242.055619 
L 361.912138 241.756924 
L 362.79815 241.129535 
L 364.356876 239.708487 
L 368.557233 235.514112 
L 369.640137 234.094405 
L 370.706634 232.303848 
L 371.723907 230.168144 
L 372.593512 227.820059 
L 373.413894 224.937319 
L 374.332722 220.828296 
L 375.432034 214.824862 
L 376.465716 208.028928 
L 378.188518 193.088874 
L 384.013231 139.662136 
L 387.737766 103.834261 
L 390.723956 72.937731 
L 393.316364 44.443636 
L 393.316364 44.443636 
" style="fill:none;stroke:#008fd5;stroke-width:4;"/>
   </g>
   <g id="patch_3">
    <path d="M 34.56 252 
L 34.56 34.56 
" style="fill:none;stroke:#f0f0f0;stroke-linecap:square;stroke-linejoin:miter;stroke-width:3;"/>
   </g>
   <g id="patch_4">
    <path d="M 410.4 252 
L 410.4 34.56 
" style="fill:none;stroke:#f0f0f0;stroke-linecap:square;stroke-linejoin:miter;stroke-width:3;"/>
   </g>
   <g id="patch_5">
    <path d="M 34.56 252 
L 410.4 252 
" style="fill:none;stroke:#f0f0f0;stroke-linecap:square;stroke-linejoin:miter;stroke-width:3;"/>
   </g>
   <g id="patch_6">
    <path d="M 34.56 34.56 
L 410.4 34.56 
" style="fill:none;stroke:#f0f0f0;stroke-linecap:square;stroke-linejoin:miter;stroke-width:3;"/>
   </g>
   <g id="legend_1">
    <g id="patch_7">
     <path d="M 41.56 57.51625 
L 121.735 57.51625 
Q 123.735 57.51625 123.735 55.51625 
L 123.735 41.56 
Q 123.735 39.56 121.735 39.56 
L 41.56 39.56 
Q 39.56 39.56 39.56 41.56 
L 39.56 55.51625 
Q 39.56 57.51625 41.56 57.51625 
z
" style="fill:#f0f0f0;opacity:0.8;stroke:#cccccc;stroke-linejoin:miter;stroke-width:0.5;"/>
    </g>
    <g id="line2d_22">
     <path d="M 43.56 47.658438 
L 63.56 47.658438 
" style="fill:none;stroke:#008fd5;stroke-width:4;"/>
    </g>
    <g id="line2d_23"/>
    <g id="text_13">
     <!-- 11_22_63 -->
     <defs>
      <path d="M 50.984375 -16.609375 
L 50.984375 -23.578125 
L -0.984375 -23.578125 
L -0.984375 -16.609375 
z
" id="DejaVuSans-5f"/>
      <path d="M 33.015625 40.375 
Q 26.375 40.375 22.484375 35.828125 
Q 18.609375 31.296875 18.609375 23.390625 
Q 18.609375 15.53125 22.484375 10.953125 
Q 26.375 6.390625 33.015625 6.390625 
Q 39.65625 6.390625 43.53125 10.953125 
Q 47.40625 15.53125 47.40625 23.390625 
Q 47.40625 31.296875 43.53125 35.828125 
Q 39.65625 40.375 33.015625 40.375 
z
M 52.59375 71.296875 
L 52.59375 62.3125 
Q 48.875 64.0625 45.09375 64.984375 
Q 41.3125 65.921875 37.59375 65.921875 
Q 27.828125 65.921875 22.671875 59.328125 
Q 17.53125 52.734375 16.796875 39.40625 
Q 19.671875 43.65625 24.015625 45.921875 
Q 28.375 48.1875 33.59375 48.1875 
Q 44.578125 48.1875 50.953125 41.515625 
Q 57.328125 34.859375 57.328125 23.390625 
Q 57.328125 12.15625 50.6875 5.359375 
Q 44.046875 -1.421875 33.015625 -1.421875 
Q 20.359375 -1.421875 13.671875 8.265625 
Q 6.984375 17.96875 6.984375 36.375 
Q 6.984375 53.65625 15.1875 63.9375 
Q 23.390625 74.21875 37.203125 74.21875 
Q 40.921875 74.21875 44.703125 73.484375 
Q 48.484375 72.75 52.59375 71.296875 
z
" id="DejaVuSans-36"/>
     </defs>
     <g transform="translate(71.56 51.158438)scale(0.1 -0.1)">
      <use xlink:href="#DejaVuSans-31"/>
      <use x="63.623047" xlink:href="#DejaVuSans-31"/>
      <use x="127.246094" xlink:href="#DejaVuSans-5f"/>
      <use x="177.246094" xlink:href="#DejaVuSans-32"/>
      <use x="240.869141" xlink:href="#DejaVuSans-32"/>
      <use x="304.492188" xlink:href="#DejaVuSans-5f"/>
      <use x="354.492188" xlink:href="#DejaVuSans-36"/>
      <use x="418.115234" xlink:href="#DejaVuSans-33"/>
     </g>
    </g>
   </g>
  </g>
 </g>
 <defs>
  <clipPath id="pd6fe161fae">
   <rect height="217.44" width="375.84" x="34.56" y="34.56"/>
  </clipPath>
 </defs>
</svg>
