<?xml version="1.0" encoding="utf-8" standalone="no"?>
<!DOCTYPE svg PUBLIC "-//W3C//DTD SVG 1.1//EN"
  "http://www.w3.org/Graphics/SVG/1.1/DTD/svg11.dtd">
<!-- Created with matplotlib (http://matplotlib.org/) -->
<svg height="720pt" version="1.1" viewBox="0 0 1440 720" width="1440pt" xmlns="http://www.w3.org/2000/svg" xmlns:xlink="http://www.w3.org/1999/xlink">
 <defs>
  <style type="text/css">
*{stroke-linecap:butt;stroke-linejoin:round;}
  </style>
 </defs>
 <g id="figure_1">
  <g id="patch_1">
   <path d="M 0 720 
L 1440 720 
L 1440 0 
L 0 0 
z
" style="fill:#f0f0f0;"/>
  </g>
  <g id="axes_1">
   <g id="patch_2">
    <path d="M 115.2 669.6 
L 1368 669.6 
L 1368 86.4 
L 115.2 86.4 
z
" style="fill:#f0f0f0;"/>
   </g>
   <g id="matplotlib.axis_1">
    <g id="xtick_1">
     <g id="line2d_1">
      <path clip-path="url(#p78b040c8b2)" d="M 172.145455 669.6 
L 172.145455 86.4 
" style="fill:none;stroke:#cbcbcb;"/>
     </g>
     <g id="line2d_2"/>
     <g id="text_1">
      <!-- 0 -->
      <defs>
       <path d="M 4.15625 35.296875 
Q 4.15625 48 6.765625 55.734375 
Q 9.375 63.484375 14.515625 67.671875 
Q 19.671875 71.875 27.484375 71.875 
Q 33.25 71.875 37.59375 69.546875 
Q 41.9375 67.234375 44.765625 62.859375 
Q 47.609375 58.5 49.21875 52.21875 
Q 50.828125 45.953125 50.828125 35.296875 
Q 50.828125 22.703125 48.234375 14.96875 
Q 45.65625 7.234375 40.5 3 
Q 35.359375 -1.21875 27.484375 -1.21875 
Q 17.140625 -1.21875 11.234375 6.203125 
Q 4.15625 15.140625 4.15625 35.296875 
z
M 13.1875 35.296875 
Q 13.1875 17.671875 17.3125 11.828125 
Q 21.4375 6 27.484375 6 
Q 33.546875 6 37.671875 11.859375 
Q 41.796875 17.71875 41.796875 35.296875 
Q 41.796875 52.984375 37.671875 58.78125 
Q 33.546875 64.59375 27.390625 64.59375 
Q 21.34375 64.59375 17.71875 59.46875 
Q 13.1875 52.9375 13.1875 35.296875 
z
" id="ArialMT-30"/>
      </defs>
      <g style="fill:#262626;" transform="translate(169.364986 683.757812)scale(0.1 -0.1)">
       <use xlink:href="#ArialMT-30"/>
      </g>
     </g>
    </g>
    <g id="xtick_2">
     <g id="line2d_3">
      <path clip-path="url(#p78b040c8b2)" d="M 326.63665 669.6 
L 326.63665 86.4 
" style="fill:none;stroke:#cbcbcb;"/>
     </g>
     <g id="line2d_4"/>
     <g id="text_2">
      <!-- 2000 -->
      <defs>
       <path d="M 50.34375 8.453125 
L 50.34375 0 
L 3.03125 0 
Q 2.9375 3.171875 4.046875 6.109375 
Q 5.859375 10.9375 9.828125 15.625 
Q 13.8125 20.3125 21.34375 26.46875 
Q 33.015625 36.03125 37.109375 41.625 
Q 41.21875 47.21875 41.21875 52.203125 
Q 41.21875 57.421875 37.46875 61 
Q 33.734375 64.59375 27.734375 64.59375 
Q 21.390625 64.59375 17.578125 60.78125 
Q 13.765625 56.984375 13.71875 50.25 
L 4.6875 51.171875 
Q 5.609375 61.28125 11.65625 66.578125 
Q 17.71875 71.875 27.9375 71.875 
Q 38.234375 71.875 44.234375 66.15625 
Q 50.25 60.453125 50.25 52 
Q 50.25 47.703125 48.484375 43.546875 
Q 46.734375 39.40625 42.65625 34.8125 
Q 38.578125 30.21875 29.109375 22.21875 
Q 21.1875 15.578125 18.9375 13.203125 
Q 16.703125 10.84375 15.234375 8.453125 
z
" id="ArialMT-32"/>
      </defs>
      <g style="fill:#262626;" transform="translate(315.514775 683.757812)scale(0.1 -0.1)">
       <use xlink:href="#ArialMT-32"/>
       <use x="55.615234" xlink:href="#ArialMT-30"/>
       <use x="111.230469" xlink:href="#ArialMT-30"/>
       <use x="166.845703" xlink:href="#ArialMT-30"/>
      </g>
     </g>
    </g>
    <g id="xtick_3">
     <g id="line2d_5">
      <path clip-path="url(#p78b040c8b2)" d="M 481.127845 669.6 
L 481.127845 86.4 
" style="fill:none;stroke:#cbcbcb;"/>
     </g>
     <g id="line2d_6"/>
     <g id="text_3">
      <!-- 4000 -->
      <defs>
       <path d="M 32.328125 0 
L 32.328125 17.140625 
L 1.265625 17.140625 
L 1.265625 25.203125 
L 33.9375 71.578125 
L 41.109375 71.578125 
L 41.109375 25.203125 
L 50.78125 25.203125 
L 50.78125 17.140625 
L 41.109375 17.140625 
L 41.109375 0 
z
M 32.328125 25.203125 
L 32.328125 57.46875 
L 9.90625 25.203125 
z
" id="ArialMT-34"/>
      </defs>
      <g style="fill:#262626;" transform="translate(470.00597 683.757812)scale(0.1 -0.1)">
       <use xlink:href="#ArialMT-34"/>
       <use x="55.615234" xlink:href="#ArialMT-30"/>
       <use x="111.230469" xlink:href="#ArialMT-30"/>
       <use x="166.845703" xlink:href="#ArialMT-30"/>
      </g>
     </g>
    </g>
    <g id="xtick_4">
     <g id="line2d_7">
      <path clip-path="url(#p78b040c8b2)" d="M 635.61904 669.6 
L 635.61904 86.4 
" style="fill:none;stroke:#cbcbcb;"/>
     </g>
     <g id="line2d_8"/>
     <g id="text_4">
      <!-- 6000 -->
      <defs>
       <path d="M 49.75 54.046875 
L 41.015625 53.375 
Q 39.84375 58.546875 37.703125 60.890625 
Q 34.125 64.65625 28.90625 64.65625 
Q 24.703125 64.65625 21.53125 62.3125 
Q 17.390625 59.28125 14.984375 53.46875 
Q 12.59375 47.65625 12.5 36.921875 
Q 15.671875 41.75 20.265625 44.09375 
Q 24.859375 46.4375 29.890625 46.4375 
Q 38.671875 46.4375 44.84375 39.96875 
Q 51.03125 33.5 51.03125 23.25 
Q 51.03125 16.5 48.125 10.71875 
Q 45.21875 4.9375 40.140625 1.859375 
Q 35.0625 -1.21875 28.609375 -1.21875 
Q 17.625 -1.21875 10.6875 6.859375 
Q 3.765625 14.9375 3.765625 33.5 
Q 3.765625 54.25 11.421875 63.671875 
Q 18.109375 71.875 29.4375 71.875 
Q 37.890625 71.875 43.28125 67.140625 
Q 48.6875 62.40625 49.75 54.046875 
z
M 13.875 23.1875 
Q 13.875 18.65625 15.796875 14.5 
Q 17.71875 10.359375 21.1875 8.171875 
Q 24.65625 6 28.46875 6 
Q 34.03125 6 38.03125 10.484375 
Q 42.046875 14.984375 42.046875 22.703125 
Q 42.046875 30.125 38.078125 34.390625 
Q 34.125 38.671875 28.125 38.671875 
Q 22.171875 38.671875 18.015625 34.390625 
Q 13.875 30.125 13.875 23.1875 
z
" id="ArialMT-36"/>
      </defs>
      <g style="fill:#262626;" transform="translate(624.497165 683.757812)scale(0.1 -0.1)">
       <use xlink:href="#ArialMT-36"/>
       <use x="55.615234" xlink:href="#ArialMT-30"/>
       <use x="111.230469" xlink:href="#ArialMT-30"/>
       <use x="166.845703" xlink:href="#ArialMT-30"/>
      </g>
     </g>
    </g>
    <g id="xtick_5">
     <g id="line2d_9">
      <path clip-path="url(#p78b040c8b2)" d="M 790.110235 669.6 
L 790.110235 86.4 
" style="fill:none;stroke:#cbcbcb;"/>
     </g>
     <g id="line2d_10"/>
     <g id="text_5">
      <!-- 8000 -->
      <defs>
       <path d="M 17.671875 38.8125 
Q 12.203125 40.828125 9.5625 44.53125 
Q 6.9375 48.25 6.9375 53.421875 
Q 6.9375 61.234375 12.546875 66.546875 
Q 18.171875 71.875 27.484375 71.875 
Q 36.859375 71.875 42.578125 66.421875 
Q 48.296875 60.984375 48.296875 53.171875 
Q 48.296875 48.1875 45.671875 44.5 
Q 43.0625 40.828125 37.75 38.8125 
Q 44.34375 36.671875 47.78125 31.875 
Q 51.21875 27.09375 51.21875 20.453125 
Q 51.21875 11.28125 44.71875 5.03125 
Q 38.234375 -1.21875 27.640625 -1.21875 
Q 17.046875 -1.21875 10.546875 5.046875 
Q 4.046875 11.328125 4.046875 20.703125 
Q 4.046875 27.6875 7.59375 32.390625 
Q 11.140625 37.109375 17.671875 38.8125 
z
M 15.921875 53.71875 
Q 15.921875 48.640625 19.1875 45.40625 
Q 22.46875 42.1875 27.6875 42.1875 
Q 32.765625 42.1875 36.015625 45.375 
Q 39.265625 48.578125 39.265625 53.21875 
Q 39.265625 58.0625 35.90625 61.359375 
Q 32.5625 64.65625 27.59375 64.65625 
Q 22.5625 64.65625 19.234375 61.421875 
Q 15.921875 58.203125 15.921875 53.71875 
z
M 13.09375 20.65625 
Q 13.09375 16.890625 14.875 13.375 
Q 16.65625 9.859375 20.171875 7.921875 
Q 23.6875 6 27.734375 6 
Q 34.03125 6 38.125 10.046875 
Q 42.234375 14.109375 42.234375 20.359375 
Q 42.234375 26.703125 38.015625 30.859375 
Q 33.796875 35.015625 27.4375 35.015625 
Q 21.234375 35.015625 17.15625 30.90625 
Q 13.09375 26.8125 13.09375 20.65625 
z
" id="ArialMT-38"/>
      </defs>
      <g style="fill:#262626;" transform="translate(778.98836 683.757812)scale(0.1 -0.1)">
       <use xlink:href="#ArialMT-38"/>
       <use x="55.615234" xlink:href="#ArialMT-30"/>
       <use x="111.230469" xlink:href="#ArialMT-30"/>
       <use x="166.845703" xlink:href="#ArialMT-30"/>
      </g>
     </g>
    </g>
    <g id="xtick_6">
     <g id="line2d_11">
      <path clip-path="url(#p78b040c8b2)" d="M 944.60143 669.6 
L 944.60143 86.4 
" style="fill:none;stroke:#cbcbcb;"/>
     </g>
     <g id="line2d_12"/>
     <g id="text_6">
      <!-- 10000 -->
      <defs>
       <path d="M 37.25 0 
L 28.46875 0 
L 28.46875 56 
Q 25.296875 52.984375 20.140625 49.953125 
Q 14.984375 46.921875 10.890625 45.40625 
L 10.890625 53.90625 
Q 18.265625 57.375 23.78125 62.296875 
Q 29.296875 67.234375 31.59375 71.875 
L 37.25 71.875 
z
" id="ArialMT-31"/>
      </defs>
      <g style="fill:#262626;" transform="translate(930.699087 683.757812)scale(0.1 -0.1)">
       <use xlink:href="#ArialMT-31"/>
       <use x="55.615234" xlink:href="#ArialMT-30"/>
       <use x="111.230469" xlink:href="#ArialMT-30"/>
       <use x="166.845703" xlink:href="#ArialMT-30"/>
       <use x="222.460938" xlink:href="#ArialMT-30"/>
      </g>
     </g>
    </g>
    <g id="xtick_7">
     <g id="line2d_13">
      <path clip-path="url(#p78b040c8b2)" d="M 1099.092626 669.6 
L 1099.092626 86.4 
" style="fill:none;stroke:#cbcbcb;"/>
     </g>
     <g id="line2d_14"/>
     <g id="text_7">
      <!-- 12000 -->
      <g style="fill:#262626;" transform="translate(1085.190282 683.757812)scale(0.1 -0.1)">
       <use xlink:href="#ArialMT-31"/>
       <use x="55.615234" xlink:href="#ArialMT-32"/>
       <use x="111.230469" xlink:href="#ArialMT-30"/>
       <use x="166.845703" xlink:href="#ArialMT-30"/>
       <use x="222.460938" xlink:href="#ArialMT-30"/>
      </g>
     </g>
    </g>
    <g id="xtick_8">
     <g id="line2d_15">
      <path clip-path="url(#p78b040c8b2)" d="M 1253.583821 669.6 
L 1253.583821 86.4 
" style="fill:none;stroke:#cbcbcb;"/>
     </g>
     <g id="line2d_16"/>
     <g id="text_8">
      <!-- 14000 -->
      <g style="fill:#262626;" transform="translate(1239.681477 683.757812)scale(0.1 -0.1)">
       <use xlink:href="#ArialMT-31"/>
       <use x="55.615234" xlink:href="#ArialMT-34"/>
       <use x="111.230469" xlink:href="#ArialMT-30"/>
       <use x="166.845703" xlink:href="#ArialMT-30"/>
       <use x="222.460938" xlink:href="#ArialMT-30"/>
      </g>
     </g>
    </g>
    <g id="text_9">
     <!-- Sentence # -->
     <defs>
      <path d="M 4.5 23 
L 13.421875 23.78125 
Q 14.0625 18.40625 16.375 14.96875 
Q 18.703125 11.53125 23.578125 9.40625 
Q 28.46875 7.28125 34.578125 7.28125 
Q 39.984375 7.28125 44.140625 8.890625 
Q 48.296875 10.5 50.3125 13.296875 
Q 52.34375 16.109375 52.34375 19.4375 
Q 52.34375 22.796875 50.390625 25.3125 
Q 48.4375 27.828125 43.953125 29.546875 
Q 41.0625 30.671875 31.203125 33.03125 
Q 21.34375 35.40625 17.390625 37.5 
Q 12.25 40.1875 9.734375 44.15625 
Q 7.234375 48.140625 7.234375 53.078125 
Q 7.234375 58.5 10.296875 63.203125 
Q 13.375 67.921875 19.28125 70.359375 
Q 25.203125 72.796875 32.421875 72.796875 
Q 40.375 72.796875 46.453125 70.234375 
Q 52.546875 67.671875 55.8125 62.6875 
Q 59.078125 57.71875 59.328125 51.421875 
L 50.25 50.734375 
Q 49.515625 57.515625 45.28125 60.984375 
Q 41.0625 64.453125 32.8125 64.453125 
Q 24.21875 64.453125 20.28125 61.296875 
Q 16.359375 58.15625 16.359375 53.71875 
Q 16.359375 49.859375 19.140625 47.359375 
Q 21.875 44.875 33.421875 42.265625 
Q 44.96875 39.65625 49.265625 37.703125 
Q 55.515625 34.8125 58.484375 30.390625 
Q 61.46875 25.984375 61.46875 20.21875 
Q 61.46875 14.5 58.203125 9.4375 
Q 54.9375 4.390625 48.796875 1.578125 
Q 42.671875 -1.21875 35.015625 -1.21875 
Q 25.296875 -1.21875 18.71875 1.609375 
Q 12.15625 4.4375 8.421875 10.125 
Q 4.6875 15.828125 4.5 23 
z
" id="ArialMT-53"/>
      <path d="M 42.09375 16.703125 
L 51.171875 15.578125 
Q 49.03125 7.625 43.21875 3.21875 
Q 37.40625 -1.171875 28.375 -1.171875 
Q 17 -1.171875 10.328125 5.828125 
Q 3.65625 12.84375 3.65625 25.484375 
Q 3.65625 38.578125 10.390625 45.796875 
Q 17.140625 53.03125 27.875 53.03125 
Q 38.28125 53.03125 44.875 45.953125 
Q 51.46875 38.875 51.46875 26.03125 
Q 51.46875 25.25 51.421875 23.6875 
L 12.75 23.6875 
Q 13.234375 15.140625 17.578125 10.59375 
Q 21.921875 6.0625 28.421875 6.0625 
Q 33.25 6.0625 36.671875 8.59375 
Q 40.09375 11.140625 42.09375 16.703125 
z
M 13.234375 30.90625 
L 42.1875 30.90625 
Q 41.609375 37.453125 38.875 40.71875 
Q 34.671875 45.796875 27.984375 45.796875 
Q 21.921875 45.796875 17.796875 41.75 
Q 13.671875 37.703125 13.234375 30.90625 
z
" id="ArialMT-65"/>
      <path d="M 6.59375 0 
L 6.59375 51.859375 
L 14.5 51.859375 
L 14.5 44.484375 
Q 20.21875 53.03125 31 53.03125 
Q 35.6875 53.03125 39.625 51.34375 
Q 43.5625 49.65625 45.515625 46.921875 
Q 47.46875 44.1875 48.25 40.4375 
Q 48.734375 37.984375 48.734375 31.890625 
L 48.734375 0 
L 39.9375 0 
L 39.9375 31.546875 
Q 39.9375 36.921875 38.90625 39.578125 
Q 37.890625 42.234375 35.28125 43.8125 
Q 32.671875 45.40625 29.15625 45.40625 
Q 23.53125 45.40625 19.453125 41.84375 
Q 15.375 38.28125 15.375 28.328125 
L 15.375 0 
z
" id="ArialMT-6e"/>
      <path d="M 25.78125 7.859375 
L 27.046875 0.09375 
Q 23.34375 -0.6875 20.40625 -0.6875 
Q 15.625 -0.6875 12.984375 0.828125 
Q 10.359375 2.34375 9.28125 4.8125 
Q 8.203125 7.28125 8.203125 15.1875 
L 8.203125 45.015625 
L 1.765625 45.015625 
L 1.765625 51.859375 
L 8.203125 51.859375 
L 8.203125 64.703125 
L 16.9375 69.96875 
L 16.9375 51.859375 
L 25.78125 51.859375 
L 25.78125 45.015625 
L 16.9375 45.015625 
L 16.9375 14.703125 
Q 16.9375 10.9375 17.40625 9.859375 
Q 17.875 8.796875 18.921875 8.15625 
Q 19.96875 7.515625 21.921875 7.515625 
Q 23.390625 7.515625 25.78125 7.859375 
z
" id="ArialMT-74"/>
      <path d="M 40.4375 19 
L 49.078125 17.875 
Q 47.65625 8.9375 41.8125 3.875 
Q 35.984375 -1.171875 27.484375 -1.171875 
Q 16.84375 -1.171875 10.375 5.78125 
Q 3.90625 12.75 3.90625 25.734375 
Q 3.90625 34.125 6.6875 40.421875 
Q 9.46875 46.734375 15.15625 49.875 
Q 20.84375 53.03125 27.546875 53.03125 
Q 35.984375 53.03125 41.359375 48.75 
Q 46.734375 44.484375 48.25 36.625 
L 39.703125 35.296875 
Q 38.484375 40.53125 35.375 43.15625 
Q 32.28125 45.796875 27.875 45.796875 
Q 21.234375 45.796875 17.078125 41.03125 
Q 12.9375 36.28125 12.9375 25.984375 
Q 12.9375 15.53125 16.9375 10.796875 
Q 20.953125 6.0625 27.390625 6.0625 
Q 32.5625 6.0625 36.03125 9.234375 
Q 39.5 12.40625 40.4375 19 
z
" id="ArialMT-63"/>
      <path id="ArialMT-20"/>
      <path d="M 5.03125 -1.21875 
L 9.28125 19.578125 
L 1.03125 19.578125 
L 1.03125 26.859375 
L 10.75 26.859375 
L 14.359375 44.578125 
L 1.03125 44.578125 
L 1.03125 51.859375 
L 15.828125 51.859375 
L 20.0625 72.796875 
L 27.390625 72.796875 
L 23.140625 51.859375 
L 38.53125 51.859375 
L 42.78125 72.796875 
L 50.140625 72.796875 
L 45.90625 51.859375 
L 54.34375 51.859375 
L 54.34375 44.578125 
L 44.4375 44.578125 
L 40.765625 26.859375 
L 54.34375 26.859375 
L 54.34375 19.578125 
L 39.3125 19.578125 
L 35.0625 -1.21875 
L 27.734375 -1.21875 
L 31.9375 19.578125 
L 16.609375 19.578125 
L 12.359375 -1.21875 
z
M 18.0625 26.859375 
L 33.40625 26.859375 
L 37.0625 44.578125 
L 21.6875 44.578125 
z
" id="ArialMT-23"/>
     </defs>
     <g style="fill:#262626;" transform="translate(699.102562 701.770438)scale(0.168 -0.168)">
      <use xlink:href="#ArialMT-53"/>
      <use x="66.699219" xlink:href="#ArialMT-65"/>
      <use x="122.314453" xlink:href="#ArialMT-6e"/>
      <use x="177.929688" xlink:href="#ArialMT-74"/>
      <use x="205.712891" xlink:href="#ArialMT-65"/>
      <use x="261.328125" xlink:href="#ArialMT-6e"/>
      <use x="316.943359" xlink:href="#ArialMT-63"/>
      <use x="366.943359" xlink:href="#ArialMT-65"/>
      <use x="422.558594" xlink:href="#ArialMT-20"/>
      <use x="450.341797" xlink:href="#ArialMT-23"/>
     </g>
    </g>
   </g>
   <g id="matplotlib.axis_2">
    <g id="ytick_1">
     <g id="line2d_17">
      <path clip-path="url(#p78b040c8b2)" d="M 115.2 611.413124 
L 1368 611.413124 
" style="fill:none;stroke:#cbcbcb;"/>
     </g>
     <g id="line2d_18"/>
     <g id="text_10">
      <!-- −0.0001 -->
      <defs>
       <path d="M 52.828125 31.203125 
L 5.5625 31.203125 
L 5.5625 39.40625 
L 52.828125 39.40625 
z
" id="ArialMT-2212"/>
       <path d="M 9.078125 0 
L 9.078125 10.015625 
L 19.09375 10.015625 
L 19.09375 0 
z
" id="ArialMT-2e"/>
      </defs>
      <g style="fill:#262626;" transform="translate(71.776563 614.99203)scale(0.1 -0.1)">
       <use xlink:href="#ArialMT-2212"/>
       <use x="58.398438" xlink:href="#ArialMT-30"/>
       <use x="114.013672" xlink:href="#ArialMT-2e"/>
       <use x="141.796875" xlink:href="#ArialMT-30"/>
       <use x="197.412109" xlink:href="#ArialMT-30"/>
       <use x="253.027344" xlink:href="#ArialMT-30"/>
       <use x="308.642578" xlink:href="#ArialMT-31"/>
      </g>
     </g>
    </g>
    <g id="ytick_2">
     <g id="line2d_19">
      <path clip-path="url(#p78b040c8b2)" d="M 115.2 517.324918 
L 1368 517.324918 
" style="fill:none;stroke:#cbcbcb;"/>
     </g>
     <g id="line2d_20"/>
     <g id="text_11">
      <!-- 0.0000 -->
      <g style="fill:#262626;" transform="translate(77.617188 520.903825)scale(0.1 -0.1)">
       <use xlink:href="#ArialMT-30"/>
       <use x="55.615234" xlink:href="#ArialMT-2e"/>
       <use x="83.398438" xlink:href="#ArialMT-30"/>
       <use x="139.013672" xlink:href="#ArialMT-30"/>
       <use x="194.628906" xlink:href="#ArialMT-30"/>
       <use x="250.244141" xlink:href="#ArialMT-30"/>
      </g>
     </g>
    </g>
    <g id="ytick_3">
     <g id="line2d_21">
      <path clip-path="url(#p78b040c8b2)" d="M 115.2 423.236713 
L 1368 423.236713 
" style="fill:none;stroke:#cbcbcb;"/>
     </g>
     <g id="line2d_22"/>
     <g id="text_12">
      <!-- 0.0001 -->
      <g style="fill:#262626;" transform="translate(77.617188 426.815619)scale(0.1 -0.1)">
       <use xlink:href="#ArialMT-30"/>
       <use x="55.615234" xlink:href="#ArialMT-2e"/>
       <use x="83.398438" xlink:href="#ArialMT-30"/>
       <use x="139.013672" xlink:href="#ArialMT-30"/>
       <use x="194.628906" xlink:href="#ArialMT-30"/>
       <use x="250.244141" xlink:href="#ArialMT-31"/>
      </g>
     </g>
    </g>
    <g id="ytick_4">
     <g id="line2d_23">
      <path clip-path="url(#p78b040c8b2)" d="M 115.2 329.148508 
L 1368 329.148508 
" style="fill:none;stroke:#cbcbcb;"/>
     </g>
     <g id="line2d_24"/>
     <g id="text_13">
      <!-- 0.0002 -->
      <g style="fill:#262626;" transform="translate(77.617188 332.727414)scale(0.1 -0.1)">
       <use xlink:href="#ArialMT-30"/>
       <use x="55.615234" xlink:href="#ArialMT-2e"/>
       <use x="83.398438" xlink:href="#ArialMT-30"/>
       <use x="139.013672" xlink:href="#ArialMT-30"/>
       <use x="194.628906" xlink:href="#ArialMT-30"/>
       <use x="250.244141" xlink:href="#ArialMT-32"/>
      </g>
     </g>
    </g>
    <g id="ytick_5">
     <g id="line2d_25">
      <path clip-path="url(#p78b040c8b2)" d="M 115.2 235.060302 
L 1368 235.060302 
" style="fill:none;stroke:#cbcbcb;"/>
     </g>
     <g id="line2d_26"/>
     <g id="text_14">
      <!-- 0.0003 -->
      <defs>
       <path d="M 4.203125 18.890625 
L 12.984375 20.0625 
Q 14.5 12.59375 18.140625 9.296875 
Q 21.78125 6 27 6 
Q 33.203125 6 37.46875 10.296875 
Q 41.75 14.59375 41.75 20.953125 
Q 41.75 27 37.796875 30.921875 
Q 33.84375 34.859375 27.734375 34.859375 
Q 25.25 34.859375 21.53125 33.890625 
L 22.515625 41.609375 
Q 23.390625 41.5 23.921875 41.5 
Q 29.546875 41.5 34.03125 44.421875 
Q 38.53125 47.359375 38.53125 53.46875 
Q 38.53125 58.296875 35.25 61.46875 
Q 31.984375 64.65625 26.8125 64.65625 
Q 21.6875 64.65625 18.265625 61.421875 
Q 14.84375 58.203125 13.875 51.765625 
L 5.078125 53.328125 
Q 6.6875 62.15625 12.390625 67.015625 
Q 18.109375 71.875 26.609375 71.875 
Q 32.46875 71.875 37.390625 69.359375 
Q 42.328125 66.84375 44.9375 62.5 
Q 47.5625 58.15625 47.5625 53.265625 
Q 47.5625 48.640625 45.0625 44.828125 
Q 42.578125 41.015625 37.703125 38.765625 
Q 44.046875 37.3125 47.5625 32.6875 
Q 51.078125 28.078125 51.078125 21.140625 
Q 51.078125 11.765625 44.234375 5.25 
Q 37.40625 -1.265625 26.953125 -1.265625 
Q 17.53125 -1.265625 11.296875 4.34375 
Q 5.078125 9.96875 4.203125 18.890625 
z
" id="ArialMT-33"/>
      </defs>
      <g style="fill:#262626;" transform="translate(77.617188 238.639209)scale(0.1 -0.1)">
       <use xlink:href="#ArialMT-30"/>
       <use x="55.615234" xlink:href="#ArialMT-2e"/>
       <use x="83.398438" xlink:href="#ArialMT-30"/>
       <use x="139.013672" xlink:href="#ArialMT-30"/>
       <use x="194.628906" xlink:href="#ArialMT-30"/>
       <use x="250.244141" xlink:href="#ArialMT-33"/>
      </g>
     </g>
    </g>
    <g id="ytick_6">
     <g id="line2d_27">
      <path clip-path="url(#p78b040c8b2)" d="M 115.2 140.972097 
L 1368 140.972097 
" style="fill:none;stroke:#cbcbcb;"/>
     </g>
     <g id="line2d_28"/>
     <g id="text_15">
      <!-- 0.0004 -->
      <g style="fill:#262626;" transform="translate(77.617188 144.551003)scale(0.1 -0.1)">
       <use xlink:href="#ArialMT-30"/>
       <use x="55.615234" xlink:href="#ArialMT-2e"/>
       <use x="83.398438" xlink:href="#ArialMT-30"/>
       <use x="139.013672" xlink:href="#ArialMT-30"/>
       <use x="194.628906" xlink:href="#ArialMT-30"/>
       <use x="250.244141" xlink:href="#ArialMT-34"/>
      </g>
     </g>
    </g>
    <g id="text_16">
     <!-- Sentiment Score -->
     <defs>
      <path d="M 6.640625 61.46875 
L 6.640625 71.578125 
L 15.4375 71.578125 
L 15.4375 61.46875 
z
M 6.640625 0 
L 6.640625 51.859375 
L 15.4375 51.859375 
L 15.4375 0 
z
" id="ArialMT-69"/>
      <path d="M 6.59375 0 
L 6.59375 51.859375 
L 14.453125 51.859375 
L 14.453125 44.578125 
Q 16.890625 48.390625 20.9375 50.703125 
Q 25 53.03125 30.171875 53.03125 
Q 35.9375 53.03125 39.625 50.640625 
Q 43.3125 48.25 44.828125 43.953125 
Q 50.984375 53.03125 60.84375 53.03125 
Q 68.5625 53.03125 72.703125 48.75 
Q 76.859375 44.484375 76.859375 35.59375 
L 76.859375 0 
L 68.109375 0 
L 68.109375 32.671875 
Q 68.109375 37.9375 67.25 40.25 
Q 66.40625 42.578125 64.15625 43.984375 
Q 61.921875 45.40625 58.890625 45.40625 
Q 53.421875 45.40625 49.796875 41.765625 
Q 46.1875 38.140625 46.1875 30.125 
L 46.1875 0 
L 37.40625 0 
L 37.40625 33.6875 
Q 37.40625 39.546875 35.25 42.46875 
Q 33.109375 45.40625 28.21875 45.40625 
Q 24.515625 45.40625 21.359375 43.453125 
Q 18.21875 41.5 16.796875 37.734375 
Q 15.375 33.984375 15.375 26.90625 
L 15.375 0 
z
" id="ArialMT-6d"/>
      <path d="M 3.328125 25.921875 
Q 3.328125 40.328125 11.328125 47.265625 
Q 18.015625 53.03125 27.640625 53.03125 
Q 38.328125 53.03125 45.109375 46.015625 
Q 51.90625 39.015625 51.90625 26.65625 
Q 51.90625 16.65625 48.90625 10.90625 
Q 45.90625 5.171875 40.15625 2 
Q 34.421875 -1.171875 27.640625 -1.171875 
Q 16.75 -1.171875 10.03125 5.8125 
Q 3.328125 12.796875 3.328125 25.921875 
z
M 12.359375 25.921875 
Q 12.359375 15.96875 16.703125 11.015625 
Q 21.046875 6.0625 27.640625 6.0625 
Q 34.1875 6.0625 38.53125 11.03125 
Q 42.875 16.015625 42.875 26.21875 
Q 42.875 35.84375 38.5 40.796875 
Q 34.125 45.75 27.640625 45.75 
Q 21.046875 45.75 16.703125 40.8125 
Q 12.359375 35.890625 12.359375 25.921875 
z
" id="ArialMT-6f"/>
      <path d="M 6.5 0 
L 6.5 51.859375 
L 14.40625 51.859375 
L 14.40625 44 
Q 17.4375 49.515625 20 51.265625 
Q 22.5625 53.03125 25.640625 53.03125 
Q 30.078125 53.03125 34.671875 50.203125 
L 31.640625 42.046875 
Q 28.421875 43.953125 25.203125 43.953125 
Q 22.3125 43.953125 20.015625 42.21875 
Q 17.71875 40.484375 16.75 37.40625 
Q 15.28125 32.71875 15.28125 27.15625 
L 15.28125 0 
z
" id="ArialMT-72"/>
     </defs>
     <g style="fill:#262626;" transform="translate(64.437563 440.094375)rotate(-90)scale(0.168 -0.168)">
      <use xlink:href="#ArialMT-53"/>
      <use x="66.699219" xlink:href="#ArialMT-65"/>
      <use x="122.314453" xlink:href="#ArialMT-6e"/>
      <use x="177.929688" xlink:href="#ArialMT-74"/>
      <use x="205.712891" xlink:href="#ArialMT-69"/>
      <use x="227.929688" xlink:href="#ArialMT-6d"/>
      <use x="311.230469" xlink:href="#ArialMT-65"/>
      <use x="366.845703" xlink:href="#ArialMT-6e"/>
      <use x="422.460938" xlink:href="#ArialMT-74"/>
      <use x="450.244141" xlink:href="#ArialMT-20"/>
      <use x="478.027344" xlink:href="#ArialMT-53"/>
      <use x="544.726562" xlink:href="#ArialMT-63"/>
      <use x="594.726562" xlink:href="#ArialMT-6f"/>
      <use x="650.341797" xlink:href="#ArialMT-72"/>
      <use x="683.642578" xlink:href="#ArialMT-65"/>
     </g>
    </g>
   </g>
   <g id="line2d_29">
    <path clip-path="url(#p78b040c8b2)" d="M 172.145455 417.260335 
L 177.166418 383.973564 
L 181.801154 354.697515 
L 185.972417 329.746817 
L 189.834696 307.978232 
L 193.542485 288.339231 
L 197.250274 269.896007 
L 201.189799 251.453958 
L 205.901781 230.518997 
L 218.183831 176.562728 
L 221.196409 161.961533 
L 223.668268 148.883056 
L 225.985636 135.413519 
L 229.229951 116.045737 
L 230.31139 114.50582 
L 231.238337 113.569527 
L 232.010793 113.090805 
L 232.706003 112.913931 
L 233.323968 112.973008 
L 233.941933 113.246824 
L 234.637143 113.824129 
L 235.332353 114.701178 
L 236.104809 116.042632 
L 236.954511 117.976856 
L 237.881458 120.644252 
L 238.962896 124.494317 
L 240.12158 129.467112 
L 241.512001 136.492864 
L 243.134159 145.937179 
L 245.142544 159.026977 
L 252.712613 209.838943 
L 254.643753 220.569305 
L 256.343156 228.841582 
L 257.965313 235.658208 
L 259.510225 241.208719 
L 261.055137 245.934927 
L 262.600049 249.935162 
L 264.144961 253.319522 
L 265.844364 256.510619 
L 268.238978 260.491469 
L 270.092872 263.214599 
L 271.406047 264.766475 
L 272.487486 265.727584 
L 273.491679 266.334172 
L 274.418626 266.642735 
L 275.345573 266.722309 
L 276.349766 266.57751 
L 277.50845 266.173936 
L 279.053362 265.376759 
L 282.529414 263.50417 
L 283.688097 263.178377 
L 284.769536 263.111069 
L 285.850974 263.284341 
L 286.932413 263.68661 
L 288.091097 264.351112 
L 289.404272 265.366327 
L 291.026429 266.918402 
L 293.65278 269.788567 
L 296.124639 272.390914 
L 297.283323 273.301285 
L 298.287515 273.823839 
L 299.214463 274.062611 
L 300.14141 274.060254 
L 300.991111 273.836861 
L 301.918059 273.348111 
L 302.922251 272.540188 
L 304.00369 271.370577 
L 305.239619 269.695323 
L 306.707286 267.319903 
L 308.715671 263.608207 
L 312.346214 256.845518 
L 313.968372 254.275142 
L 315.281547 252.59864 
L 316.362985 251.549386 
L 317.367178 250.865468 
L 318.294125 250.496217 
L 319.143827 250.387645 
L 319.993528 250.503984 
L 320.84323 250.842953 
L 321.770177 251.460664 
L 322.77437 252.410574 
L 323.855808 253.747857 
L 325.014492 255.533669 
L 326.327667 257.987154 
L 327.718088 261.084432 
L 329.185754 264.910688 
L 330.807912 269.791645 
L 332.584561 275.890229 
L 334.515701 283.344876 
L 336.678577 292.630241 
L 339.150437 304.267943 
L 342.394752 320.680149 
L 346.952242 344.998725 
L 352.668416 375.125421 
L 364.950466 438.387135 
L 366.881606 446.522249 
L 368.7355 453.384835 
L 370.434904 458.87212 
L 371.979816 463.126106 
L 373.292991 466.123763 
L 374.451675 468.265449 
L 375.533113 469.83795 
L 376.614551 471.020576 
L 377.69599 471.86033 
L 378.777428 472.420805 
L 380.245094 472.904367 
L 382.25348 473.577768 
L 383.48941 474.237817 
L 384.802585 475.202033 
L 386.270251 476.581639 
L 387.969654 478.508523 
L 390.132531 481.319942 
L 395.694214 488.710636 
L 397.16188 490.215079 
L 398.320564 491.089145 
L 399.247511 491.523323 
L 400.097213 491.673181 
L 400.869669 491.582519 
L 401.642125 491.265481 
L 402.491827 490.651426 
L 403.341528 489.761502 
L 404.268475 488.477758 
L 405.349914 486.581464 
L 406.585843 483.944421 
L 408.130755 480.090661 
L 410.139141 474.441023 
L 412.302017 467.670914 
L 414.619385 459.681269 
L 417.322981 449.506419 
L 421.957717 431.00529 
L 427.982874 406.147175 
L 434.625995 378.379572 
L 436.711626 370.843752 
L 438.565521 364.938264 
L 440.342169 359.991762 
L 441.964327 356.104858 
L 443.509239 352.972629 
L 444.976905 350.482737 
L 446.521817 348.306332 
L 448.066729 346.517791 
L 449.611641 345.066901 
L 451.233799 343.843728 
L 453.164939 342.679923 
L 455.868535 341.332991 
L 457.954166 340.514462 
L 460.348779 339.835912 
L 465.755971 338.572113 
L 467.764357 338.304774 
L 469.232023 338.333524 
L 470.390707 338.582426 
L 471.3949 339.038024 
L 472.321847 339.717257 
L 473.248794 340.689143 
L 474.175741 341.978405 
L 475.179934 343.750814 
L 476.261372 346.105919 
L 477.497302 349.345507 
L 478.887723 353.648694 
L 480.432635 359.200468 
L 482.132038 366.168877 
L 484.063178 375.054134 
L 486.535037 387.56707 
L 492.019474 415.708735 
L 493.950614 424.267979 
L 495.727263 431.164529 
L 497.426666 436.914434 
L 498.971578 441.37772 
L 500.284753 444.537138 
L 501.520683 446.971781 
L 502.679367 448.80434 
L 503.760805 450.139656 
L 504.764998 451.061465 
L 505.769191 451.699097 
L 506.850629 452.115882 
L 507.932067 452.298067 
L 509.245242 452.281543 
L 511.330874 451.995512 
L 513.725487 451.722595 
L 515.347645 451.761345 
L 516.969802 452.027632 
L 518.746451 452.562524 
L 520.754836 453.414819 
L 525.08059 455.352582 
L 526.625502 455.754814 
L 527.938677 455.86817 
L 529.097361 455.746634 
L 530.256045 455.399453 
L 531.414729 454.821903 
L 532.650659 453.960794 
L 534.118325 452.65932 
L 535.972219 450.689012 
L 538.366833 447.79101 
L 544.855463 439.788632 
L 547.868041 436.447779 
L 551.421339 432.883557 
L 557.832723 426.465004 
L 560.999793 422.903768 
L 568.569861 414.175039 
L 570.114773 412.829463 
L 571.350703 412.029566 
L 572.432141 411.582868 
L 573.436334 411.404466 
L 574.440527 411.461379 
L 575.44472 411.755457 
L 576.448912 412.288363 
L 577.530351 413.117587 
L 578.76628 414.359404 
L 580.156701 416.080255 
L 581.778859 418.454554 
L 584.018981 422.179286 
L 587.649524 428.697233 
L 595.837557 443.565465 
L 597.845943 446.566255 
L 599.545346 448.728566 
L 601.090258 450.349119 
L 602.480679 451.502933 
L 603.716608 452.257108 
L 604.798047 452.659638 
L 605.724994 452.779905 
L 606.651941 452.673038 
L 607.578888 452.324236 
L 608.505835 451.729863 
L 609.510028 450.813822 
L 610.668712 449.432661 
L 611.904642 447.611476 
L 613.295062 445.161779 
L 614.994466 441.679428 
L 617.234588 436.519821 
L 621.251359 426.560581 
L 627.122024 412.209032 
L 629.516638 406.929593 
L 631.370532 403.34974 
L 632.99269 400.687038 
L 634.383111 398.828895 
L 635.61904 397.532091 
L 636.777724 396.624046 
L 637.859162 396.050137 
L 638.863355 395.759908 
L 639.867548 395.704999 
L 640.871741 395.888549 
L 641.875934 396.308231 
L 642.957372 397.014422 
L 644.116056 398.055277 
L 645.351985 399.481678 
L 646.587915 401.245018 
L 647.978336 403.640069 
L 649.523248 406.77104 
L 651.454388 411.240513 
L 654.080738 417.937511 
L 657.711281 427.858682 
L 664.431648 446.968004 
L 667.598718 456.636628 
L 670.379559 465.877612 
L 673.778365 477.985138 
L 677.408908 490.807118 
L 679.340048 496.823174 
L 681.039451 501.428775 
L 682.584363 505.005876 
L 684.129275 508.033852 
L 685.674187 510.58739 
L 687.296345 512.853232 
L 689.227485 515.157882 
L 692.858028 519.048325 
L 695.561624 522.104695 
L 697.956237 525.170146 
L 700.582588 528.91059 
L 706.221516 537.071458 
L 707.920919 539.09184 
L 709.31134 540.425832 
L 710.54727 541.324522 
L 711.628708 541.860788 
L 712.632901 542.131827 
L 713.637094 542.174177 
L 714.641286 541.9842 
L 715.645479 541.558035 
L 716.649672 540.885629 
L 717.653865 539.954272 
L 718.735303 538.629783 
L 719.816741 536.939793 
L 720.975425 534.698853 
L 722.211355 531.797601 
L 723.52453 528.114643 
L 724.914951 523.510005 
L 726.382617 517.819543 
L 727.927529 510.912623 
L 729.704178 501.904286 
L 731.789809 490.089451 
L 734.416159 473.824786 
L 739.050895 443.442982 
L 742.526947 421.31891 
L 744.921561 407.450036 
L 746.929946 397.041603 
L 748.706595 388.986197 
L 750.251507 382.967147 
L 751.641928 378.376421 
L 752.955103 374.779532 
L 754.113787 372.200786 
L 755.195225 370.291799 
L 756.199418 368.937034 
L 757.126365 368.02916 
L 758.053312 367.431622 
L 758.903014 367.139031 
L 759.752715 367.080742 
L 760.602417 367.250338 
L 761.452119 367.639839 
L 762.379066 368.303437 
L 763.460504 369.365512 
L 764.696434 370.915419 
L 766.1641 373.1407 
L 768.249731 376.763293 
L 773.193449 385.495892 
L 774.738361 387.676067 
L 776.051537 389.162924 
L 777.21022 390.167192 
L 778.291659 390.828837 
L 779.295852 391.197774 
L 780.300044 391.331444 
L 781.304237 391.23888 
L 782.385676 390.907914 
L 783.621605 390.279768 
L 785.166517 389.218255 
L 789.415025 386.12656 
L 790.650954 385.566042 
L 791.732393 385.302282 
L 792.736586 385.280365 
L 793.663533 385.470911 
L 794.59048 385.878387 
L 795.594673 386.577778 
L 796.598865 387.555887 
L 797.680304 388.927701 
L 798.838988 390.762225 
L 800.074917 393.142578 
L 801.388093 396.175423 
L 802.778513 399.9609 
L 804.323425 404.838604 
L 806.022828 410.957758 
L 808.031214 419.055341 
L 810.657564 430.644402 
L 818.691106 466.761436 
L 820.39051 472.969761 
L 821.858176 477.55374 
L 823.171351 480.987657 
L 824.407281 483.62344 
L 825.565965 485.572368 
L 826.647403 486.949457 
L 827.651596 487.868313 
L 828.655788 488.474908 
L 829.659981 488.807142 
L 830.664174 488.897589 
L 831.745612 488.756764 
L 832.904296 488.36692 
L 834.140226 487.713168 
L 835.685138 486.620089 
L 837.92526 484.719554 
L 842.019277 481.232035 
L 843.795926 480.022974 
L 845.340838 479.23532 
L 846.731258 478.778025 
L 848.044433 478.581139 
L 849.280363 478.612974 
L 850.593538 478.87191 
L 851.983959 479.385295 
L 853.297134 480.103077 
L 854.610309 481.065202 
L 856.00073 482.365294 
L 857.545642 484.127605 
L 859.708519 486.974527 
L 865.65643 495.001982 
L 867.355833 496.848441 
L 868.746254 498.059568 
L 869.982183 498.863764 
L 871.140867 499.358778 
L 872.222306 499.585122 
L 873.303744 499.586651 
L 874.462428 499.352286 
L 875.698357 498.859073 
L 877.011533 498.092869 
L 878.556445 496.924228 
L 880.642076 495.040795 
L 888.366635 487.782536 
L 889.988793 486.69224 
L 891.456459 485.963377 
L 892.84688 485.517697 
L 894.160055 485.324366 
L 895.47323 485.353272 
L 896.786406 485.598971 
L 898.176826 486.083442 
L 899.721738 486.864623 
L 901.343896 487.930186 
L 902.888808 489.205294 
L 904.356474 490.70059 
L 905.901386 492.600687 
L 907.523544 494.95587 
L 909.300192 497.950347 
L 911.308578 501.805648 
L 915.093612 509.731473 
L 918.337927 516.277791 
L 920.500804 520.165729 
L 922.431944 523.192558 
L 924.285838 525.679691 
L 926.139733 527.79663 
L 928.534346 530.169473 
L 932.087644 533.347468 
L 935.254713 535.932359 
L 937.494835 537.478801 
L 939.34873 538.496618 
L 940.893642 539.09555 
L 942.361308 539.423598 
L 943.751729 539.510793 
L 945.219395 539.377973 
L 946.918798 538.994259 
L 948.849938 538.324878 
L 951.012815 537.334476 
L 953.716411 535.831975 
L 957.269708 533.597089 
L 960.05055 531.614512 
L 962.908637 529.296325 
L 965.534987 526.906424 
L 967.697864 524.635031 
L 969.629004 522.277373 
L 971.560144 519.554793 
L 973.56853 516.319355 
L 975.731406 512.392645 
L 978.203265 507.419962 
L 981.293089 500.673827 
L 985.927825 489.949554 
L 995.429034 467.760013 
L 1001.299699 455.069749 
L 1003.617067 450.577398 
L 1005.779944 446.862962 
L 1008.174557 443.209354 
L 1010.878153 439.501612 
L 1014.354205 435.141025 
L 1018.061994 430.788313 
L 1020.147625 428.691626 
L 1022.001519 427.136573 
L 1023.623677 426.050254 
L 1025.014098 425.365225 
L 1026.327273 424.963578 
L 1027.563202 424.80814 
L 1028.799132 424.8671 
L 1030.035061 425.147399 
L 1031.270991 425.657183 
L 1032.584166 426.452155 
L 1033.974587 427.571818 
L 1035.442253 429.052395 
L 1036.90992 430.847149 
L 1038.454832 433.083686 
L 1040.154235 435.940256 
L 1042.085375 439.629525 
L 1044.248251 444.243031 
L 1046.411128 449.385085 
L 1048.65125 455.304559 
L 1051.045864 462.266664 
L 1053.74946 470.844735 
L 1061.860248 497.109046 
L 1064.950072 505.944264 
L 1069.662053 518.639375 
L 1084.879436 558.647897 
L 1087.351295 564.48596 
L 1089.282435 568.508062 
L 1091.213575 572.016011 
L 1093.22196 575.194159 
L 1095.616574 578.557168 
L 1098.32017 581.967446 
L 1100.483046 584.35599 
L 1102.336941 586.074092 
L 1104.499817 587.751741 
L 1107.821378 590.008651 
L 1111.220184 592.08186 
L 1113.769289 593.365556 
L 1117.322587 594.853695 
L 1120.798639 596.077274 
L 1122.729779 596.525578 
L 1124.197445 596.653515 
L 1125.51062 596.545751 
L 1126.74655 596.214778 
L 1127.905234 595.675082 
L 1129.063918 594.889953 
L 1130.222601 593.836323 
L 1131.458531 592.408341 
L 1132.848952 590.447597 
L 1134.471109 587.761897 
L 1136.633986 583.71044 
L 1141.963932 573.46678 
L 1143.58609 570.962402 
L 1144.976511 569.214883 
L 1146.21244 568.000677 
L 1147.371124 567.152791 
L 1148.529808 566.571473 
L 1149.688492 566.236036 
L 1150.847176 566.129285 
L 1152.083106 566.250635 
L 1153.319035 566.595987 
L 1154.63221 567.189181 
L 1156.099877 568.097957 
L 1157.79928 569.422622 
L 1159.884911 571.352056 
L 1163.5927 575.160213 
L 1166.528032 578.054263 
L 1168.227436 579.421587 
L 1169.617856 580.2764 
L 1170.931031 580.831261 
L 1172.166961 581.110225 
L 1173.325645 581.146278 
L 1174.484329 580.953575 
L 1175.565767 580.549661 
L 1176.647206 579.913762 
L 1177.80589 578.969601 
L 1179.041819 577.661845 
L 1180.43224 575.84369 
L 1182.131643 573.231993 
L 1184.449011 569.221334 
L 1189.083747 560.635831 
L 1191.864588 555.783253 
L 1193.795728 552.839925 
L 1195.263395 550.973016 
L 1196.57657 549.648941 
L 1197.735254 548.793125 
L 1198.739447 548.308016 
L 1199.743639 548.070339 
L 1200.670586 548.070336 
L 1201.597534 548.278284 
L 1202.601726 548.733035 
L 1203.683165 549.481472 
L 1204.841849 550.560981 
L 1206.309515 552.253885 
L 1208.240655 554.850137 
L 1214.343057 563.33753 
L 1215.810724 564.885631 
L 1217.046653 565.871051 
L 1218.128092 566.448966 
L 1219.055039 566.704836 
L 1219.90474 566.726898 
L 1220.754442 566.530441 
L 1221.604143 566.104417 
L 1222.531091 565.37461 
L 1223.535283 564.273761 
L 1224.616722 562.73638 
L 1225.852651 560.567412 
L 1227.320318 557.501776 
L 1229.174212 553.051701 
L 1231.723317 546.277821 
L 1235.35386 536.647517 
L 1237.053263 532.784573 
L 1238.520929 529.969872 
L 1239.834104 527.897774 
L 1241.070034 526.349597 
L 1242.151472 525.328925 
L 1243.155665 524.673704 
L 1244.082612 524.327498 
L 1245.00956 524.228193 
L 1245.936507 524.365429 
L 1246.863454 524.722455 
L 1247.867647 525.34068 
L 1249.026331 526.322711 
L 1250.416751 527.810191 
L 1252.347891 530.241028 
L 1254.279031 532.976269 
L 1260.844907 546.638843 
L 1264.089222 552.720033 
L 1268.33773 560.181332 
L 1275.212588 571.745158 
L 1282.55092 584.215041 
L 1287.417393 592.933177 
L 1291.820392 601.285537 
L 1296.223391 610.119395 
L 1300.780881 619.772263 
L 1305.956336 631.281589 
L 1311.054545 643.090909 
L 1311.054545 643.090909 
" style="fill:none;stroke:#008fd5;stroke-width:4;"/>
   </g>
   <g id="patch_3">
    <path d="M 115.2 669.6 
L 115.2 86.4 
" style="fill:none;stroke:#f0f0f0;stroke-linecap:square;stroke-linejoin:miter;stroke-width:3;"/>
   </g>
   <g id="patch_4">
    <path d="M 1368 669.6 
L 1368 86.4 
" style="fill:none;stroke:#f0f0f0;stroke-linecap:square;stroke-linejoin:miter;stroke-width:3;"/>
   </g>
   <g id="patch_5">
    <path d="M 115.2 669.6 
L 1368 669.6 
" style="fill:none;stroke:#f0f0f0;stroke-linecap:square;stroke-linejoin:miter;stroke-width:3;"/>
   </g>
   <g id="patch_6">
    <path d="M 115.2 86.4 
L 1368 86.4 
" style="fill:none;stroke:#f0f0f0;stroke-linecap:square;stroke-linejoin:miter;stroke-width:3;"/>
   </g>
   <g id="legend_1">
    <g id="line2d_30">
     <path d="M 1227.621875 99.179688 
L 1247.621875 99.179688 
" style="fill:none;stroke:#008fd5;stroke-width:4;"/>
    </g>
    <g id="line2d_31"/>
    <g id="text_17">
     <!-- Bag of Bones_ A Novel -->
     <defs>
      <path d="M 7.328125 0 
L 7.328125 71.578125 
L 34.1875 71.578125 
Q 42.390625 71.578125 47.34375 69.40625 
Q 52.296875 67.234375 55.09375 62.71875 
Q 57.90625 58.203125 57.90625 53.265625 
Q 57.90625 48.6875 55.421875 44.625 
Q 52.9375 40.578125 47.90625 38.09375 
Q 54.390625 36.1875 57.875 31.59375 
Q 61.375 27 61.375 20.75 
Q 61.375 15.71875 59.25 11.390625 
Q 57.125 7.078125 54 4.734375 
Q 50.875 2.390625 46.15625 1.1875 
Q 41.453125 0 34.625 0 
z
M 16.796875 41.5 
L 32.28125 41.5 
Q 38.578125 41.5 41.3125 42.328125 
Q 44.921875 43.40625 46.75 45.890625 
Q 48.578125 48.390625 48.578125 52.15625 
Q 48.578125 55.71875 46.875 58.421875 
Q 45.171875 61.140625 41.984375 62.140625 
Q 38.8125 63.140625 31.109375 63.140625 
L 16.796875 63.140625 
z
M 16.796875 8.453125 
L 34.625 8.453125 
Q 39.203125 8.453125 41.0625 8.796875 
Q 44.34375 9.375 46.53125 10.734375 
Q 48.734375 12.109375 50.140625 14.71875 
Q 51.5625 17.328125 51.5625 20.75 
Q 51.5625 24.75 49.515625 27.703125 
Q 47.46875 30.671875 43.828125 31.859375 
Q 40.1875 33.0625 33.34375 33.0625 
L 16.796875 33.0625 
z
" id="ArialMT-42"/>
      <path d="M 40.4375 6.390625 
Q 35.546875 2.25 31.03125 0.53125 
Q 26.515625 -1.171875 21.34375 -1.171875 
Q 12.796875 -1.171875 8.203125 3 
Q 3.609375 7.171875 3.609375 13.671875 
Q 3.609375 17.484375 5.34375 20.625 
Q 7.078125 23.78125 9.890625 25.6875 
Q 12.703125 27.59375 16.21875 28.5625 
Q 18.796875 29.25 24.03125 29.890625 
Q 34.671875 31.15625 39.703125 32.90625 
Q 39.75 34.71875 39.75 35.203125 
Q 39.75 40.578125 37.25 42.78125 
Q 33.890625 45.75 27.25 45.75 
Q 21.046875 45.75 18.09375 43.578125 
Q 15.140625 41.40625 13.71875 35.890625 
L 5.125 37.0625 
Q 6.296875 42.578125 8.984375 45.96875 
Q 11.671875 49.359375 16.75 51.1875 
Q 21.828125 53.03125 28.515625 53.03125 
Q 35.15625 53.03125 39.296875 51.46875 
Q 43.453125 49.90625 45.40625 47.53125 
Q 47.359375 45.171875 48.140625 41.546875 
Q 48.578125 39.3125 48.578125 33.453125 
L 48.578125 21.734375 
Q 48.578125 9.46875 49.140625 6.21875 
Q 49.703125 2.984375 51.375 0 
L 42.1875 0 
Q 40.828125 2.734375 40.4375 6.390625 
z
M 39.703125 26.03125 
Q 34.90625 24.078125 25.34375 22.703125 
Q 19.921875 21.921875 17.671875 20.9375 
Q 15.4375 19.96875 14.203125 18.09375 
Q 12.984375 16.21875 12.984375 13.921875 
Q 12.984375 10.40625 15.640625 8.0625 
Q 18.3125 5.71875 23.4375 5.71875 
Q 28.515625 5.71875 32.46875 7.9375 
Q 36.421875 10.15625 38.28125 14.015625 
Q 39.703125 17 39.703125 22.796875 
z
" id="ArialMT-61"/>
      <path d="M 4.984375 -4.296875 
L 13.53125 -5.5625 
Q 14.0625 -9.515625 16.5 -11.328125 
Q 19.78125 -13.765625 25.4375 -13.765625 
Q 31.546875 -13.765625 34.859375 -11.328125 
Q 38.1875 -8.890625 39.359375 -4.5 
Q 40.046875 -1.8125 39.984375 6.78125 
Q 34.234375 0 25.640625 0 
Q 14.9375 0 9.078125 7.71875 
Q 3.21875 15.4375 3.21875 26.21875 
Q 3.21875 33.640625 5.90625 39.90625 
Q 8.59375 46.1875 13.6875 49.609375 
Q 18.796875 53.03125 25.6875 53.03125 
Q 34.859375 53.03125 40.828125 45.609375 
L 40.828125 51.859375 
L 48.921875 51.859375 
L 48.921875 7.03125 
Q 48.921875 -5.078125 46.453125 -10.125 
Q 44 -15.1875 38.640625 -18.109375 
Q 33.296875 -21.046875 25.484375 -21.046875 
Q 16.21875 -21.046875 10.5 -16.875 
Q 4.78125 -12.703125 4.984375 -4.296875 
z
M 12.25 26.859375 
Q 12.25 16.65625 16.296875 11.96875 
Q 20.359375 7.28125 26.46875 7.28125 
Q 32.515625 7.28125 36.609375 11.9375 
Q 40.71875 16.609375 40.71875 26.5625 
Q 40.71875 36.078125 36.5 40.90625 
Q 32.28125 45.75 26.3125 45.75 
Q 20.453125 45.75 16.34375 40.984375 
Q 12.25 36.234375 12.25 26.859375 
z
" id="ArialMT-67"/>
      <path d="M 8.6875 0 
L 8.6875 45.015625 
L 0.921875 45.015625 
L 0.921875 51.859375 
L 8.6875 51.859375 
L 8.6875 57.375 
Q 8.6875 62.59375 9.625 65.140625 
Q 10.890625 68.5625 14.078125 70.671875 
Q 17.28125 72.796875 23.046875 72.796875 
Q 26.765625 72.796875 31.25 71.921875 
L 29.9375 64.265625 
Q 27.203125 64.75 24.75 64.75 
Q 20.75 64.75 19.09375 63.03125 
Q 17.4375 61.328125 17.4375 56.640625 
L 17.4375 51.859375 
L 27.546875 51.859375 
L 27.546875 45.015625 
L 17.4375 45.015625 
L 17.4375 0 
z
" id="ArialMT-66"/>
      <path d="M 3.078125 15.484375 
L 11.765625 16.84375 
Q 12.5 11.625 15.84375 8.84375 
Q 19.1875 6.0625 25.203125 6.0625 
Q 31.25 6.0625 34.171875 8.515625 
Q 37.109375 10.984375 37.109375 14.3125 
Q 37.109375 17.28125 34.515625 19 
Q 32.71875 20.171875 25.53125 21.96875 
Q 15.875 24.421875 12.140625 26.203125 
Q 8.40625 27.984375 6.46875 31.125 
Q 4.546875 34.28125 4.546875 38.09375 
Q 4.546875 41.546875 6.125 44.5 
Q 7.71875 47.46875 10.453125 49.421875 
Q 12.5 50.921875 16.03125 51.96875 
Q 19.578125 53.03125 23.640625 53.03125 
Q 29.734375 53.03125 34.34375 51.265625 
Q 38.96875 49.515625 41.15625 46.5 
Q 43.359375 43.5 44.1875 38.484375 
L 35.59375 37.3125 
Q 35.015625 41.3125 32.203125 43.546875 
Q 29.390625 45.796875 24.265625 45.796875 
Q 18.21875 45.796875 15.625 43.796875 
Q 13.03125 41.796875 13.03125 39.109375 
Q 13.03125 37.40625 14.109375 36.03125 
Q 15.1875 34.625 17.484375 33.6875 
Q 18.796875 33.203125 25.25 31.453125 
Q 34.578125 28.953125 38.25 27.359375 
Q 41.9375 25.78125 44.03125 22.75 
Q 46.140625 19.734375 46.140625 15.234375 
Q 46.140625 10.84375 43.578125 6.953125 
Q 41.015625 3.078125 36.171875 0.953125 
Q 31.34375 -1.171875 25.25 -1.171875 
Q 15.140625 -1.171875 9.84375 3.03125 
Q 4.546875 7.234375 3.078125 15.484375 
z
" id="ArialMT-73"/>
      <path d="M -1.515625 -19.875 
L -1.515625 -13.53125 
L 56.734375 -13.53125 
L 56.734375 -19.875 
z
" id="ArialMT-5f"/>
      <path d="M -0.140625 0 
L 27.34375 71.578125 
L 37.546875 71.578125 
L 66.84375 0 
L 56.0625 0 
L 47.703125 21.6875 
L 17.78125 21.6875 
L 9.90625 0 
z
M 20.515625 29.390625 
L 44.78125 29.390625 
L 37.3125 49.21875 
Q 33.890625 58.25 32.234375 64.0625 
Q 30.859375 57.171875 28.375 50.390625 
z
" id="ArialMT-41"/>
      <path d="M 7.625 0 
L 7.625 71.578125 
L 17.328125 71.578125 
L 54.9375 15.375 
L 54.9375 71.578125 
L 64.015625 71.578125 
L 64.015625 0 
L 54.296875 0 
L 16.703125 56.25 
L 16.703125 0 
z
" id="ArialMT-4e"/>
      <path d="M 21 0 
L 1.265625 51.859375 
L 10.546875 51.859375 
L 21.6875 20.796875 
Q 23.484375 15.765625 25 10.359375 
Q 26.171875 14.453125 28.265625 20.21875 
L 39.796875 51.859375 
L 48.828125 51.859375 
L 29.203125 0 
z
" id="ArialMT-76"/>
      <path d="M 6.390625 0 
L 6.390625 71.578125 
L 15.1875 71.578125 
L 15.1875 0 
z
" id="ArialMT-6c"/>
     </defs>
     <g style="fill:#262626;" transform="translate(1255.621875 102.679688)scale(0.1 -0.1)">
      <use xlink:href="#ArialMT-42"/>
      <use x="66.699219" xlink:href="#ArialMT-61"/>
      <use x="122.314453" xlink:href="#ArialMT-67"/>
      <use x="177.929688" xlink:href="#ArialMT-20"/>
      <use x="205.712891" xlink:href="#ArialMT-6f"/>
      <use x="261.328125" xlink:href="#ArialMT-66"/>
      <use x="289.111328" xlink:href="#ArialMT-20"/>
      <use x="316.894531" xlink:href="#ArialMT-42"/>
      <use x="383.59375" xlink:href="#ArialMT-6f"/>
      <use x="439.208984" xlink:href="#ArialMT-6e"/>
      <use x="494.824219" xlink:href="#ArialMT-65"/>
      <use x="550.439453" xlink:href="#ArialMT-73"/>
      <use x="600.439453" xlink:href="#ArialMT-5f"/>
      <use x="656.054688" xlink:href="#ArialMT-20"/>
      <use x="683.759766" xlink:href="#ArialMT-41"/>
      <use x="750.380859" xlink:href="#ArialMT-20"/>
      <use x="778.164062" xlink:href="#ArialMT-4e"/>
      <use x="850.380859" xlink:href="#ArialMT-6f"/>
      <use x="905.996094" xlink:href="#ArialMT-76"/>
      <use x="955.996094" xlink:href="#ArialMT-65"/>
      <use x="1011.611328" xlink:href="#ArialMT-6c"/>
     </g>
    </g>
   </g>
  </g>
 </g>
 <defs>
  <clipPath id="p78b040c8b2">
   <rect height="583.2" width="1252.8" x="115.2" y="86.4"/>
  </clipPath>
 </defs>
</svg>
