<?xml version="1.0" encoding="utf-8" standalone="no"?>
<!DOCTYPE svg PUBLIC "-//W3C//DTD SVG 1.1//EN"
  "http://www.w3.org/Graphics/SVG/1.1/DTD/svg11.dtd">
<!-- Created with matplotlib (http://matplotlib.org/) -->
<svg height="720pt" version="1.1" viewBox="0 0 1440 720" width="1440pt" xmlns="http://www.w3.org/2000/svg" xmlns:xlink="http://www.w3.org/1999/xlink">
 <defs>
  <style type="text/css">
*{stroke-linecap:butt;stroke-linejoin:round;}
  </style>
 </defs>
 <g id="figure_1">
  <g id="patch_1">
   <path d="M 0 720 
L 1440 720 
L 1440 0 
L 0 0 
z
" style="fill:#f0f0f0;"/>
  </g>
  <g id="axes_1">
   <g id="patch_2">
    <path d="M 115.2 669.6 
L 1368 669.6 
L 1368 86.4 
L 115.2 86.4 
z
" style="fill:#f0f0f0;"/>
   </g>
   <g id="matplotlib.axis_1">
    <g id="xtick_1">
     <g id="line2d_1">
      <path clip-path="url(#p861f529b46)" d="M 172.145455 669.6 
L 172.145455 86.4 
" style="fill:none;stroke:#cbcbcb;"/>
     </g>
     <g id="line2d_2"/>
     <g id="text_1">
      <!-- 0 -->
      <defs>
       <path d="M 31.78125 66.40625 
Q 24.171875 66.40625 20.328125 58.90625 
Q 16.5 51.421875 16.5 36.375 
Q 16.5 21.390625 20.328125 13.890625 
Q 24.171875 6.390625 31.78125 6.390625 
Q 39.453125 6.390625 43.28125 13.890625 
Q 47.125 21.390625 47.125 36.375 
Q 47.125 51.421875 43.28125 58.90625 
Q 39.453125 66.40625 31.78125 66.40625 
z
M 31.78125 74.21875 
Q 44.046875 74.21875 50.515625 64.515625 
Q 56.984375 54.828125 56.984375 36.375 
Q 56.984375 17.96875 50.515625 8.265625 
Q 44.046875 -1.421875 31.78125 -1.421875 
Q 19.53125 -1.421875 13.0625 8.265625 
Q 6.59375 17.96875 6.59375 36.375 
Q 6.59375 54.828125 13.0625 64.515625 
Q 19.53125 74.21875 31.78125 74.21875 
z
" id="DejaVuSans-30"/>
      </defs>
      <g transform="translate(167.691705 683.737813)scale(0.14 -0.14)">
       <use xlink:href="#DejaVuSans-30"/>
      </g>
     </g>
    </g>
    <g id="xtick_2">
     <g id="line2d_3">
      <path clip-path="url(#p861f529b46)" d="M 418.103578 669.6 
L 418.103578 86.4 
" style="fill:none;stroke:#cbcbcb;"/>
     </g>
     <g id="line2d_4"/>
     <g id="text_2">
      <!-- 2000 -->
      <defs>
       <path d="M 19.1875 8.296875 
L 53.609375 8.296875 
L 53.609375 0 
L 7.328125 0 
L 7.328125 8.296875 
Q 12.9375 14.109375 22.625 23.890625 
Q 32.328125 33.6875 34.8125 36.53125 
Q 39.546875 41.84375 41.421875 45.53125 
Q 43.3125 49.21875 43.3125 52.78125 
Q 43.3125 58.59375 39.234375 62.25 
Q 35.15625 65.921875 28.609375 65.921875 
Q 23.96875 65.921875 18.8125 64.3125 
Q 13.671875 62.703125 7.8125 59.421875 
L 7.8125 69.390625 
Q 13.765625 71.78125 18.9375 73 
Q 24.125 74.21875 28.421875 74.21875 
Q 39.75 74.21875 46.484375 68.546875 
Q 53.21875 62.890625 53.21875 53.421875 
Q 53.21875 48.921875 51.53125 44.890625 
Q 49.859375 40.875 45.40625 35.40625 
Q 44.1875 33.984375 37.640625 27.21875 
Q 31.109375 20.453125 19.1875 8.296875 
z
" id="DejaVuSans-32"/>
      </defs>
      <g transform="translate(400.288578 683.737813)scale(0.14 -0.14)">
       <use xlink:href="#DejaVuSans-32"/>
       <use x="63.623047" xlink:href="#DejaVuSans-30"/>
       <use x="127.246094" xlink:href="#DejaVuSans-30"/>
       <use x="190.869141" xlink:href="#DejaVuSans-30"/>
      </g>
     </g>
    </g>
    <g id="xtick_3">
     <g id="line2d_5">
      <path clip-path="url(#p861f529b46)" d="M 664.061702 669.6 
L 664.061702 86.4 
" style="fill:none;stroke:#cbcbcb;"/>
     </g>
     <g id="line2d_6"/>
     <g id="text_3">
      <!-- 4000 -->
      <defs>
       <path d="M 37.796875 64.3125 
L 12.890625 25.390625 
L 37.796875 25.390625 
z
M 35.203125 72.90625 
L 47.609375 72.90625 
L 47.609375 25.390625 
L 58.015625 25.390625 
L 58.015625 17.1875 
L 47.609375 17.1875 
L 47.609375 0 
L 37.796875 0 
L 37.796875 17.1875 
L 4.890625 17.1875 
L 4.890625 26.703125 
z
" id="DejaVuSans-34"/>
      </defs>
      <g transform="translate(646.246702 683.737813)scale(0.14 -0.14)">
       <use xlink:href="#DejaVuSans-34"/>
       <use x="63.623047" xlink:href="#DejaVuSans-30"/>
       <use x="127.246094" xlink:href="#DejaVuSans-30"/>
       <use x="190.869141" xlink:href="#DejaVuSans-30"/>
      </g>
     </g>
    </g>
    <g id="xtick_4">
     <g id="line2d_7">
      <path clip-path="url(#p861f529b46)" d="M 910.019825 669.6 
L 910.019825 86.4 
" style="fill:none;stroke:#cbcbcb;"/>
     </g>
     <g id="line2d_8"/>
     <g id="text_4">
      <!-- 6000 -->
      <defs>
       <path d="M 33.015625 40.375 
Q 26.375 40.375 22.484375 35.828125 
Q 18.609375 31.296875 18.609375 23.390625 
Q 18.609375 15.53125 22.484375 10.953125 
Q 26.375 6.390625 33.015625 6.390625 
Q 39.65625 6.390625 43.53125 10.953125 
Q 47.40625 15.53125 47.40625 23.390625 
Q 47.40625 31.296875 43.53125 35.828125 
Q 39.65625 40.375 33.015625 40.375 
z
M 52.59375 71.296875 
L 52.59375 62.3125 
Q 48.875 64.0625 45.09375 64.984375 
Q 41.3125 65.921875 37.59375 65.921875 
Q 27.828125 65.921875 22.671875 59.328125 
Q 17.53125 52.734375 16.796875 39.40625 
Q 19.671875 43.65625 24.015625 45.921875 
Q 28.375 48.1875 33.59375 48.1875 
Q 44.578125 48.1875 50.953125 41.515625 
Q 57.328125 34.859375 57.328125 23.390625 
Q 57.328125 12.15625 50.6875 5.359375 
Q 44.046875 -1.421875 33.015625 -1.421875 
Q 20.359375 -1.421875 13.671875 8.265625 
Q 6.984375 17.96875 6.984375 36.375 
Q 6.984375 53.65625 15.1875 63.9375 
Q 23.390625 74.21875 37.203125 74.21875 
Q 40.921875 74.21875 44.703125 73.484375 
Q 48.484375 72.75 52.59375 71.296875 
z
" id="DejaVuSans-36"/>
      </defs>
      <g transform="translate(892.204825 683.737813)scale(0.14 -0.14)">
       <use xlink:href="#DejaVuSans-36"/>
       <use x="63.623047" xlink:href="#DejaVuSans-30"/>
       <use x="127.246094" xlink:href="#DejaVuSans-30"/>
       <use x="190.869141" xlink:href="#DejaVuSans-30"/>
      </g>
     </g>
    </g>
    <g id="xtick_5">
     <g id="line2d_9">
      <path clip-path="url(#p861f529b46)" d="M 1155.977949 669.6 
L 1155.977949 86.4 
" style="fill:none;stroke:#cbcbcb;"/>
     </g>
     <g id="line2d_10"/>
     <g id="text_5">
      <!-- 8000 -->
      <defs>
       <path d="M 31.78125 34.625 
Q 24.75 34.625 20.71875 30.859375 
Q 16.703125 27.09375 16.703125 20.515625 
Q 16.703125 13.921875 20.71875 10.15625 
Q 24.75 6.390625 31.78125 6.390625 
Q 38.8125 6.390625 42.859375 10.171875 
Q 46.921875 13.96875 46.921875 20.515625 
Q 46.921875 27.09375 42.890625 30.859375 
Q 38.875 34.625 31.78125 34.625 
z
M 21.921875 38.8125 
Q 15.578125 40.375 12.03125 44.71875 
Q 8.5 49.078125 8.5 55.328125 
Q 8.5 64.0625 14.71875 69.140625 
Q 20.953125 74.21875 31.78125 74.21875 
Q 42.671875 74.21875 48.875 69.140625 
Q 55.078125 64.0625 55.078125 55.328125 
Q 55.078125 49.078125 51.53125 44.71875 
Q 48 40.375 41.703125 38.8125 
Q 48.828125 37.15625 52.796875 32.3125 
Q 56.78125 27.484375 56.78125 20.515625 
Q 56.78125 9.90625 50.3125 4.234375 
Q 43.84375 -1.421875 31.78125 -1.421875 
Q 19.734375 -1.421875 13.25 4.234375 
Q 6.78125 9.90625 6.78125 20.515625 
Q 6.78125 27.484375 10.78125 32.3125 
Q 14.796875 37.15625 21.921875 38.8125 
z
M 18.3125 54.390625 
Q 18.3125 48.734375 21.84375 45.5625 
Q 25.390625 42.390625 31.78125 42.390625 
Q 38.140625 42.390625 41.71875 45.5625 
Q 45.3125 48.734375 45.3125 54.390625 
Q 45.3125 60.0625 41.71875 63.234375 
Q 38.140625 66.40625 31.78125 66.40625 
Q 25.390625 66.40625 21.84375 63.234375 
Q 18.3125 60.0625 18.3125 54.390625 
z
" id="DejaVuSans-38"/>
      </defs>
      <g transform="translate(1138.162949 683.737813)scale(0.14 -0.14)">
       <use xlink:href="#DejaVuSans-38"/>
       <use x="63.623047" xlink:href="#DejaVuSans-30"/>
       <use x="127.246094" xlink:href="#DejaVuSans-30"/>
       <use x="190.869141" xlink:href="#DejaVuSans-30"/>
      </g>
     </g>
    </g>
    <g id="text_6">
     <!-- Sentence # -->
     <defs>
      <path d="M 53.515625 70.515625 
L 53.515625 60.890625 
Q 47.90625 63.578125 42.921875 64.890625 
Q 37.9375 66.21875 33.296875 66.21875 
Q 25.25 66.21875 20.875 63.09375 
Q 16.5 59.96875 16.5 54.203125 
Q 16.5 49.359375 19.40625 46.890625 
Q 22.3125 44.4375 30.421875 42.921875 
L 36.375 41.703125 
Q 47.40625 39.59375 52.65625 34.296875 
Q 57.90625 29 57.90625 20.125 
Q 57.90625 9.515625 50.796875 4.046875 
Q 43.703125 -1.421875 29.984375 -1.421875 
Q 24.8125 -1.421875 18.96875 -0.25 
Q 13.140625 0.921875 6.890625 3.21875 
L 6.890625 13.375 
Q 12.890625 10.015625 18.65625 8.296875 
Q 24.421875 6.59375 29.984375 6.59375 
Q 38.421875 6.59375 43.015625 9.90625 
Q 47.609375 13.234375 47.609375 19.390625 
Q 47.609375 24.75 44.3125 27.78125 
Q 41.015625 30.8125 33.5 32.328125 
L 27.484375 33.5 
Q 16.453125 35.6875 11.515625 40.375 
Q 6.59375 45.0625 6.59375 53.421875 
Q 6.59375 63.09375 13.40625 68.65625 
Q 20.21875 74.21875 32.171875 74.21875 
Q 37.3125 74.21875 42.625 73.28125 
Q 47.953125 72.359375 53.515625 70.515625 
z
" id="DejaVuSans-53"/>
      <path d="M 56.203125 29.59375 
L 56.203125 25.203125 
L 14.890625 25.203125 
Q 15.484375 15.921875 20.484375 11.0625 
Q 25.484375 6.203125 34.421875 6.203125 
Q 39.59375 6.203125 44.453125 7.46875 
Q 49.3125 8.734375 54.109375 11.28125 
L 54.109375 2.78125 
Q 49.265625 0.734375 44.1875 -0.34375 
Q 39.109375 -1.421875 33.890625 -1.421875 
Q 20.796875 -1.421875 13.15625 6.1875 
Q 5.515625 13.8125 5.515625 26.8125 
Q 5.515625 40.234375 12.765625 48.109375 
Q 20.015625 56 32.328125 56 
Q 43.359375 56 49.78125 48.890625 
Q 56.203125 41.796875 56.203125 29.59375 
z
M 47.21875 32.234375 
Q 47.125 39.59375 43.09375 43.984375 
Q 39.0625 48.390625 32.421875 48.390625 
Q 24.90625 48.390625 20.390625 44.140625 
Q 15.875 39.890625 15.1875 32.171875 
z
" id="DejaVuSans-65"/>
      <path d="M 54.890625 33.015625 
L 54.890625 0 
L 45.90625 0 
L 45.90625 32.71875 
Q 45.90625 40.484375 42.875 44.328125 
Q 39.84375 48.1875 33.796875 48.1875 
Q 26.515625 48.1875 22.3125 43.546875 
Q 18.109375 38.921875 18.109375 30.90625 
L 18.109375 0 
L 9.078125 0 
L 9.078125 54.6875 
L 18.109375 54.6875 
L 18.109375 46.1875 
Q 21.34375 51.125 25.703125 53.5625 
Q 30.078125 56 35.796875 56 
Q 45.21875 56 50.046875 50.171875 
Q 54.890625 44.34375 54.890625 33.015625 
z
" id="DejaVuSans-6e"/>
      <path d="M 18.3125 70.21875 
L 18.3125 54.6875 
L 36.8125 54.6875 
L 36.8125 47.703125 
L 18.3125 47.703125 
L 18.3125 18.015625 
Q 18.3125 11.328125 20.140625 9.421875 
Q 21.96875 7.515625 27.59375 7.515625 
L 36.8125 7.515625 
L 36.8125 0 
L 27.59375 0 
Q 17.1875 0 13.234375 3.875 
Q 9.28125 7.765625 9.28125 18.015625 
L 9.28125 47.703125 
L 2.6875 47.703125 
L 2.6875 54.6875 
L 9.28125 54.6875 
L 9.28125 70.21875 
z
" id="DejaVuSans-74"/>
      <path d="M 48.78125 52.59375 
L 48.78125 44.1875 
Q 44.96875 46.296875 41.140625 47.34375 
Q 37.3125 48.390625 33.40625 48.390625 
Q 24.65625 48.390625 19.8125 42.84375 
Q 14.984375 37.3125 14.984375 27.296875 
Q 14.984375 17.28125 19.8125 11.734375 
Q 24.65625 6.203125 33.40625 6.203125 
Q 37.3125 6.203125 41.140625 7.25 
Q 44.96875 8.296875 48.78125 10.40625 
L 48.78125 2.09375 
Q 45.015625 0.34375 40.984375 -0.53125 
Q 36.96875 -1.421875 32.421875 -1.421875 
Q 20.0625 -1.421875 12.78125 6.34375 
Q 5.515625 14.109375 5.515625 27.296875 
Q 5.515625 40.671875 12.859375 48.328125 
Q 20.21875 56 33.015625 56 
Q 37.15625 56 41.109375 55.140625 
Q 45.0625 54.296875 48.78125 52.59375 
z
" id="DejaVuSans-63"/>
      <path id="DejaVuSans-20"/>
      <path d="M 51.125 44 
L 36.921875 44 
L 32.8125 27.6875 
L 47.125 27.6875 
z
M 43.796875 71.78125 
L 38.71875 51.515625 
L 52.984375 51.515625 
L 58.109375 71.78125 
L 65.921875 71.78125 
L 60.890625 51.515625 
L 76.125 51.515625 
L 76.125 44 
L 58.984375 44 
L 54.984375 27.6875 
L 70.515625 27.6875 
L 70.515625 20.21875 
L 53.078125 20.21875 
L 48 0 
L 40.1875 0 
L 45.21875 20.21875 
L 30.90625 20.21875 
L 25.875 0 
L 18.015625 0 
L 23.09375 20.21875 
L 7.71875 20.21875 
L 7.71875 27.6875 
L 24.90625 27.6875 
L 29 44 
L 13.28125 44 
L 13.28125 51.515625 
L 30.90625 51.515625 
L 35.890625 71.78125 
z
" id="DejaVuSans-23"/>
     </defs>
     <g transform="translate(692.494125 703.41475)scale(0.168 -0.168)">
      <use xlink:href="#DejaVuSans-53"/>
      <use x="63.476562" xlink:href="#DejaVuSans-65"/>
      <use x="125" xlink:href="#DejaVuSans-6e"/>
      <use x="188.378906" xlink:href="#DejaVuSans-74"/>
      <use x="227.587891" xlink:href="#DejaVuSans-65"/>
      <use x="289.111328" xlink:href="#DejaVuSans-6e"/>
      <use x="352.490234" xlink:href="#DejaVuSans-63"/>
      <use x="407.470703" xlink:href="#DejaVuSans-65"/>
      <use x="468.994141" xlink:href="#DejaVuSans-20"/>
      <use x="500.78125" xlink:href="#DejaVuSans-23"/>
     </g>
    </g>
   </g>
   <g id="matplotlib.axis_2">
    <g id="ytick_1">
     <g id="line2d_11">
      <path clip-path="url(#p861f529b46)" d="M 115.2 645.764713 
L 1368 645.764713 
" style="fill:none;stroke:#cbcbcb;"/>
     </g>
     <g id="line2d_12"/>
     <g id="text_7">
      <!-- −0.0000050 -->
      <defs>
       <path d="M 10.59375 35.5 
L 73.1875 35.5 
L 73.1875 27.203125 
L 10.59375 27.203125 
z
" id="DejaVuSans-2212"/>
       <path d="M 10.6875 12.40625 
L 21 12.40625 
L 21 0 
L 10.6875 0 
z
" id="DejaVuSans-2e"/>
       <path d="M 10.796875 72.90625 
L 49.515625 72.90625 
L 49.515625 64.59375 
L 19.828125 64.59375 
L 19.828125 46.734375 
Q 21.96875 47.46875 24.109375 47.828125 
Q 26.265625 48.1875 28.421875 48.1875 
Q 40.625 48.1875 47.75 41.5 
Q 54.890625 34.8125 54.890625 23.390625 
Q 54.890625 11.625 47.5625 5.09375 
Q 40.234375 -1.421875 26.90625 -1.421875 
Q 22.3125 -1.421875 17.546875 -0.640625 
Q 12.796875 0.140625 7.71875 1.703125 
L 7.71875 11.625 
Q 12.109375 9.234375 16.796875 8.0625 
Q 21.484375 6.890625 26.703125 6.890625 
Q 35.15625 6.890625 40.078125 11.328125 
Q 45.015625 15.765625 45.015625 23.390625 
Q 45.015625 31 40.078125 35.4375 
Q 35.15625 39.890625 26.703125 39.890625 
Q 22.75 39.890625 18.8125 39.015625 
Q 14.890625 38.140625 10.796875 36.28125 
z
" id="DejaVuSans-35"/>
      </defs>
      <g transform="translate(24.259062 651.083619)scale(0.14 -0.14)">
       <use xlink:href="#DejaVuSans-2212"/>
       <use x="83.789062" xlink:href="#DejaVuSans-30"/>
       <use x="147.412109" xlink:href="#DejaVuSans-2e"/>
       <use x="179.199219" xlink:href="#DejaVuSans-30"/>
       <use x="242.822266" xlink:href="#DejaVuSans-30"/>
       <use x="306.445312" xlink:href="#DejaVuSans-30"/>
       <use x="370.068359" xlink:href="#DejaVuSans-30"/>
       <use x="433.691406" xlink:href="#DejaVuSans-30"/>
       <use x="497.314453" xlink:href="#DejaVuSans-35"/>
       <use x="560.9375" xlink:href="#DejaVuSans-30"/>
      </g>
     </g>
    </g>
    <g id="ytick_2">
     <g id="line2d_13">
      <path clip-path="url(#p861f529b46)" d="M 115.2 567.650625 
L 1368 567.650625 
" style="fill:none;stroke:#cbcbcb;"/>
     </g>
     <g id="line2d_14"/>
     <g id="text_8">
      <!-- −0.0000025 -->
      <g transform="translate(24.259062 572.969531)scale(0.14 -0.14)">
       <use xlink:href="#DejaVuSans-2212"/>
       <use x="83.789062" xlink:href="#DejaVuSans-30"/>
       <use x="147.412109" xlink:href="#DejaVuSans-2e"/>
       <use x="179.199219" xlink:href="#DejaVuSans-30"/>
       <use x="242.822266" xlink:href="#DejaVuSans-30"/>
       <use x="306.445312" xlink:href="#DejaVuSans-30"/>
       <use x="370.068359" xlink:href="#DejaVuSans-30"/>
       <use x="433.691406" xlink:href="#DejaVuSans-30"/>
       <use x="497.314453" xlink:href="#DejaVuSans-32"/>
       <use x="560.9375" xlink:href="#DejaVuSans-35"/>
      </g>
     </g>
    </g>
    <g id="ytick_3">
     <g id="line2d_15">
      <path clip-path="url(#p861f529b46)" d="M 115.2 489.536537 
L 1368 489.536537 
" style="fill:none;stroke:#cbcbcb;"/>
     </g>
     <g id="line2d_16"/>
     <g id="text_9">
      <!-- 0.0000000 -->
      <g transform="translate(35.990625 494.855443)scale(0.14 -0.14)">
       <use xlink:href="#DejaVuSans-30"/>
       <use x="63.623047" xlink:href="#DejaVuSans-2e"/>
       <use x="95.410156" xlink:href="#DejaVuSans-30"/>
       <use x="159.033203" xlink:href="#DejaVuSans-30"/>
       <use x="222.65625" xlink:href="#DejaVuSans-30"/>
       <use x="286.279297" xlink:href="#DejaVuSans-30"/>
       <use x="349.902344" xlink:href="#DejaVuSans-30"/>
       <use x="413.525391" xlink:href="#DejaVuSans-30"/>
       <use x="477.148438" xlink:href="#DejaVuSans-30"/>
      </g>
     </g>
    </g>
    <g id="ytick_4">
     <g id="line2d_17">
      <path clip-path="url(#p861f529b46)" d="M 115.2 411.422449 
L 1368 411.422449 
" style="fill:none;stroke:#cbcbcb;"/>
     </g>
     <g id="line2d_18"/>
     <g id="text_10">
      <!-- 0.0000025 -->
      <g transform="translate(35.990625 416.741355)scale(0.14 -0.14)">
       <use xlink:href="#DejaVuSans-30"/>
       <use x="63.623047" xlink:href="#DejaVuSans-2e"/>
       <use x="95.410156" xlink:href="#DejaVuSans-30"/>
       <use x="159.033203" xlink:href="#DejaVuSans-30"/>
       <use x="222.65625" xlink:href="#DejaVuSans-30"/>
       <use x="286.279297" xlink:href="#DejaVuSans-30"/>
       <use x="349.902344" xlink:href="#DejaVuSans-30"/>
       <use x="413.525391" xlink:href="#DejaVuSans-32"/>
       <use x="477.148438" xlink:href="#DejaVuSans-35"/>
      </g>
     </g>
    </g>
    <g id="ytick_5">
     <g id="line2d_19">
      <path clip-path="url(#p861f529b46)" d="M 115.2 333.308361 
L 1368 333.308361 
" style="fill:none;stroke:#cbcbcb;"/>
     </g>
     <g id="line2d_20"/>
     <g id="text_11">
      <!-- 0.0000050 -->
      <g transform="translate(35.990625 338.627268)scale(0.14 -0.14)">
       <use xlink:href="#DejaVuSans-30"/>
       <use x="63.623047" xlink:href="#DejaVuSans-2e"/>
       <use x="95.410156" xlink:href="#DejaVuSans-30"/>
       <use x="159.033203" xlink:href="#DejaVuSans-30"/>
       <use x="222.65625" xlink:href="#DejaVuSans-30"/>
       <use x="286.279297" xlink:href="#DejaVuSans-30"/>
       <use x="349.902344" xlink:href="#DejaVuSans-30"/>
       <use x="413.525391" xlink:href="#DejaVuSans-35"/>
       <use x="477.148438" xlink:href="#DejaVuSans-30"/>
      </g>
     </g>
    </g>
    <g id="ytick_6">
     <g id="line2d_21">
      <path clip-path="url(#p861f529b46)" d="M 115.2 255.194273 
L 1368 255.194273 
" style="fill:none;stroke:#cbcbcb;"/>
     </g>
     <g id="line2d_22"/>
     <g id="text_12">
      <!-- 0.0000075 -->
      <defs>
       <path d="M 8.203125 72.90625 
L 55.078125 72.90625 
L 55.078125 68.703125 
L 28.609375 0 
L 18.3125 0 
L 43.21875 64.59375 
L 8.203125 64.59375 
z
" id="DejaVuSans-37"/>
      </defs>
      <g transform="translate(35.990625 260.51318)scale(0.14 -0.14)">
       <use xlink:href="#DejaVuSans-30"/>
       <use x="63.623047" xlink:href="#DejaVuSans-2e"/>
       <use x="95.410156" xlink:href="#DejaVuSans-30"/>
       <use x="159.033203" xlink:href="#DejaVuSans-30"/>
       <use x="222.65625" xlink:href="#DejaVuSans-30"/>
       <use x="286.279297" xlink:href="#DejaVuSans-30"/>
       <use x="349.902344" xlink:href="#DejaVuSans-30"/>
       <use x="413.525391" xlink:href="#DejaVuSans-37"/>
       <use x="477.148438" xlink:href="#DejaVuSans-35"/>
      </g>
     </g>
    </g>
    <g id="ytick_7">
     <g id="line2d_23">
      <path clip-path="url(#p861f529b46)" d="M 115.2 177.080186 
L 1368 177.080186 
" style="fill:none;stroke:#cbcbcb;"/>
     </g>
     <g id="line2d_24"/>
     <g id="text_13">
      <!-- 0.0000100 -->
      <defs>
       <path d="M 12.40625 8.296875 
L 28.515625 8.296875 
L 28.515625 63.921875 
L 10.984375 60.40625 
L 10.984375 69.390625 
L 28.421875 72.90625 
L 38.28125 72.90625 
L 38.28125 8.296875 
L 54.390625 8.296875 
L 54.390625 0 
L 12.40625 0 
z
" id="DejaVuSans-31"/>
      </defs>
      <g transform="translate(35.990625 182.399092)scale(0.14 -0.14)">
       <use xlink:href="#DejaVuSans-30"/>
       <use x="63.623047" xlink:href="#DejaVuSans-2e"/>
       <use x="95.410156" xlink:href="#DejaVuSans-30"/>
       <use x="159.033203" xlink:href="#DejaVuSans-30"/>
       <use x="222.65625" xlink:href="#DejaVuSans-30"/>
       <use x="286.279297" xlink:href="#DejaVuSans-30"/>
       <use x="349.902344" xlink:href="#DejaVuSans-31"/>
       <use x="413.525391" xlink:href="#DejaVuSans-30"/>
       <use x="477.148438" xlink:href="#DejaVuSans-30"/>
      </g>
     </g>
    </g>
    <g id="ytick_8">
     <g id="line2d_25">
      <path clip-path="url(#p861f529b46)" d="M 115.2 98.966098 
L 1368 98.966098 
" style="fill:none;stroke:#cbcbcb;"/>
     </g>
     <g id="line2d_26"/>
     <g id="text_14">
      <!-- 0.0000125 -->
      <g transform="translate(35.990625 104.285004)scale(0.14 -0.14)">
       <use xlink:href="#DejaVuSans-30"/>
       <use x="63.623047" xlink:href="#DejaVuSans-2e"/>
       <use x="95.410156" xlink:href="#DejaVuSans-30"/>
       <use x="159.033203" xlink:href="#DejaVuSans-30"/>
       <use x="222.65625" xlink:href="#DejaVuSans-30"/>
       <use x="286.279297" xlink:href="#DejaVuSans-30"/>
       <use x="349.902344" xlink:href="#DejaVuSans-31"/>
       <use x="413.525391" xlink:href="#DejaVuSans-32"/>
       <use x="477.148438" xlink:href="#DejaVuSans-35"/>
      </g>
     </g>
    </g>
    <g id="text_15">
     <!-- Sentiment Score -->
     <defs>
      <path d="M 9.421875 54.6875 
L 18.40625 54.6875 
L 18.40625 0 
L 9.421875 0 
z
M 9.421875 75.984375 
L 18.40625 75.984375 
L 18.40625 64.59375 
L 9.421875 64.59375 
z
" id="DejaVuSans-69"/>
      <path d="M 52 44.1875 
Q 55.375 50.25 60.0625 53.125 
Q 64.75 56 71.09375 56 
Q 79.640625 56 84.28125 50.015625 
Q 88.921875 44.046875 88.921875 33.015625 
L 88.921875 0 
L 79.890625 0 
L 79.890625 32.71875 
Q 79.890625 40.578125 77.09375 44.375 
Q 74.3125 48.1875 68.609375 48.1875 
Q 61.625 48.1875 57.5625 43.546875 
Q 53.515625 38.921875 53.515625 30.90625 
L 53.515625 0 
L 44.484375 0 
L 44.484375 32.71875 
Q 44.484375 40.625 41.703125 44.40625 
Q 38.921875 48.1875 33.109375 48.1875 
Q 26.21875 48.1875 22.15625 43.53125 
Q 18.109375 38.875 18.109375 30.90625 
L 18.109375 0 
L 9.078125 0 
L 9.078125 54.6875 
L 18.109375 54.6875 
L 18.109375 46.1875 
Q 21.1875 51.21875 25.484375 53.609375 
Q 29.78125 56 35.6875 56 
Q 41.65625 56 45.828125 52.96875 
Q 50 49.953125 52 44.1875 
z
" id="DejaVuSans-6d"/>
      <path d="M 30.609375 48.390625 
Q 23.390625 48.390625 19.1875 42.75 
Q 14.984375 37.109375 14.984375 27.296875 
Q 14.984375 17.484375 19.15625 11.84375 
Q 23.34375 6.203125 30.609375 6.203125 
Q 37.796875 6.203125 41.984375 11.859375 
Q 46.1875 17.53125 46.1875 27.296875 
Q 46.1875 37.015625 41.984375 42.703125 
Q 37.796875 48.390625 30.609375 48.390625 
z
M 30.609375 56 
Q 42.328125 56 49.015625 48.375 
Q 55.71875 40.765625 55.71875 27.296875 
Q 55.71875 13.875 49.015625 6.21875 
Q 42.328125 -1.421875 30.609375 -1.421875 
Q 18.84375 -1.421875 12.171875 6.21875 
Q 5.515625 13.875 5.515625 27.296875 
Q 5.515625 40.765625 12.171875 48.375 
Q 18.84375 56 30.609375 56 
z
" id="DejaVuSans-6f"/>
      <path d="M 41.109375 46.296875 
Q 39.59375 47.171875 37.8125 47.578125 
Q 36.03125 48 33.890625 48 
Q 26.265625 48 22.1875 43.046875 
Q 18.109375 38.09375 18.109375 28.8125 
L 18.109375 0 
L 9.078125 0 
L 9.078125 54.6875 
L 18.109375 54.6875 
L 18.109375 46.1875 
Q 20.953125 51.171875 25.484375 53.578125 
Q 30.03125 56 36.53125 56 
Q 37.453125 56 38.578125 55.875 
Q 39.703125 55.765625 41.0625 55.515625 
z
" id="DejaVuSans-72"/>
     </defs>
     <g transform="translate(16.765187 447.79875)rotate(-90)scale(0.168 -0.168)">
      <use xlink:href="#DejaVuSans-53"/>
      <use x="63.476562" xlink:href="#DejaVuSans-65"/>
      <use x="125" xlink:href="#DejaVuSans-6e"/>
      <use x="188.378906" xlink:href="#DejaVuSans-74"/>
      <use x="227.587891" xlink:href="#DejaVuSans-69"/>
      <use x="255.371094" xlink:href="#DejaVuSans-6d"/>
      <use x="352.783203" xlink:href="#DejaVuSans-65"/>
      <use x="414.306641" xlink:href="#DejaVuSans-6e"/>
      <use x="477.685547" xlink:href="#DejaVuSans-74"/>
      <use x="516.894531" xlink:href="#DejaVuSans-20"/>
      <use x="548.681641" xlink:href="#DejaVuSans-53"/>
      <use x="612.158203" xlink:href="#DejaVuSans-63"/>
      <use x="667.138672" xlink:href="#DejaVuSans-6f"/>
      <use x="728.320312" xlink:href="#DejaVuSans-72"/>
      <use x="769.402344" xlink:href="#DejaVuSans-65"/>
     </g>
    </g>
   </g>
   <g id="line2d_27">
    <path clip-path="url(#p861f529b46)" d="M 172.145455 488.385125 
L 204.24299 490.377453 
L 225.026451 491.56394 
L 231.544341 491.787253 
L 237.939253 491.721727 
L 238.800106 491.461268 
L 239.53798 491.008968 
L 240.275855 490.291736 
L 241.013729 489.270883 
L 241.874583 487.658656 
L 242.735436 485.565149 
L 243.719268 482.565016 
L 244.82608 478.415531 
L 246.055871 472.87628 
L 247.40864 465.736253 
L 249.007368 456.060508 
L 250.975033 442.67679 
L 253.557593 423.436578 
L 262.412086 356.077179 
L 264.994646 338.816195 
L 267.208269 325.51337 
L 269.175934 315.054098 
L 270.897641 307.044582 
L 272.619348 300.081132 
L 277.784469 279.997984 
L 279.752134 271.09923 
L 281.842778 260.600295 
L 284.17938 247.683372 
L 286.884919 231.423176 
L 290.328333 209.295994 
L 299.059846 152.447334 
L 301.027511 141.513396 
L 302.749218 133.13462 
L 304.224967 126.969588 
L 305.577737 122.22009 
L 306.807527 118.701374 
L 307.914339 116.219338 
L 308.898171 114.579237 
L 309.759025 113.594168 
L 310.496899 113.091377 
L 311.111794 112.917012 
L 311.72669 112.967957 
L 312.341585 113.246754 
L 312.95648 113.755581 
L 313.694355 114.671614 
L 314.555208 116.162079 
L 315.416061 118.104108 
L 316.399894 120.869103 
L 317.506706 124.65869 
L 318.736496 129.685833 
L 320.089266 136.164491 
L 321.687994 145.012618 
L 323.409701 155.824451 
L 325.500345 170.407806 
L 328.574821 193.635303 
L 335.092711 243.132281 
L 337.92123 262.719111 
L 340.380811 278.207588 
L 342.717413 291.492541 
L 345.054015 303.480986 
L 347.759555 316.12342 
L 352.063822 336.049874 
L 354.769361 349.96913 
L 357.966817 367.625456 
L 361.410231 387.910551 
L 365.714498 414.726014 
L 371.002597 447.552317 
L 373.3392 460.618309 
L 375.060906 469.096944 
L 376.536655 475.342605 
L 377.889425 480.102598 
L 378.996236 483.254242 
L 379.980069 485.478836 
L 380.963901 487.167582 
L 381.824755 488.227255 
L 382.685608 488.932275 
L 383.546462 489.33411 
L 384.530294 489.514627 
L 386.497959 489.536537 
L 424.990406 489.431796 
L 427.327008 489.138894 
L 429.540631 488.632652 
L 431.754254 487.894208 
L 434.213835 486.826096 
L 437.042354 485.34538 
L 441.100663 482.940415 
L 449.955155 477.621446 
L 453.644527 475.698884 
L 456.841983 474.271153 
L 459.178585 473.429672 
L 460.285396 473.263906 
L 461.14625 473.345899 
L 462.007103 473.660933 
L 462.867957 474.243266 
L 463.72881 475.118466 
L 464.589663 476.304218 
L 465.573496 478.052979 
L 466.680307 480.528341 
L 467.910098 483.90187 
L 469.262868 488.339702 
L 470.738616 493.987149 
L 472.460323 501.518521 
L 474.550967 511.779003 
L 477.256507 526.29811 
L 485.619083 572.004939 
L 488.078664 583.899622 
L 490.292287 593.560413 
L 492.382931 601.703268 
L 494.350596 608.455058 
L 496.195282 613.976343 
L 497.916989 618.445763 
L 499.638696 622.305134 
L 501.360403 625.622866 
L 503.08211 628.461065 
L 504.803817 630.870565 
L 506.525523 632.896012 
L 508.24723 634.582734 
L 510.091916 636.084301 
L 512.305539 637.58793 
L 518.331513 641.239859 
L 520.422157 642.286941 
L 522.020885 642.84153 
L 523.373655 643.072578 
L 524.603446 643.043497 
L 525.710257 642.785027 
L 526.817069 642.27356 
L 527.92388 641.48164 
L 529.030692 640.385634 
L 530.137503 638.965778 
L 531.367294 636.990192 
L 532.597085 634.587106 
L 533.949854 631.458081 
L 535.548582 627.14712 
L 537.270289 621.815348 
L 539.114975 615.322729 
L 541.08264 607.518907 
L 543.173284 598.291613 
L 545.632865 586.388286 
L 548.584363 570.937369 
L 558.299708 518.9675 
L 560.144394 510.774963 
L 561.743122 504.598375 
L 563.218871 499.785012 
L 564.448662 496.486349 
L 565.555473 494.095964 
L 566.539306 492.433105 
L 567.523138 491.191442 
L 568.383992 490.427495 
L 569.244845 489.931662 
L 570.228677 489.635745 
L 571.458468 489.537845 
L 586.461914 489.536537 
L 590.028306 489.434173 
L 591.504055 489.145421 
L 592.856825 488.646923 
L 594.086615 487.96693 
L 595.439385 486.950066 
L 596.792155 485.644658 
L 598.267904 483.896222 
L 599.866631 481.638858 
L 601.588338 478.820754 
L 603.556003 475.171847 
L 606.015584 470.10882 
L 609.827935 461.655066 
L 614.132202 452.23165 
L 616.714763 447.117861 
L 618.928386 443.23188 
L 620.896051 440.234814 
L 622.740737 437.840409 
L 624.462444 435.963347 
L 626.184151 434.406128 
L 627.905857 433.133346 
L 629.750543 432.046878 
L 631.595229 431.213431 
L 633.562894 430.568852 
L 635.653538 430.116517 
L 637.99014 429.841791 
L 640.818659 429.742948 
L 651.1489 429.812057 
L 653.73146 430.079727 
L 655.945083 430.537397 
L 657.912748 431.177107 
L 659.634455 431.960718 
L 661.356162 432.98868 
L 663.077869 434.289327 
L 664.799576 435.884605 
L 666.521283 437.788602 
L 668.365969 440.171979 
L 670.333634 443.091483 
L 672.424278 446.592762 
L 674.76088 450.948324 
L 677.466419 456.477029 
L 681.770686 465.87466 
L 685.828995 474.56986 
L 688.165598 479.054222 
L 690.010284 482.136105 
L 691.609011 484.403114 
L 693.08476 486.125812 
L 694.43753 487.378306 
L 695.790299 488.31822 
L 697.02009 488.913528 
L 698.37286 489.312528 
L 699.848609 489.5025 
L 702.30819 489.536537 
L 767.85603 489.4443 
L 768.962841 489.15085 
L 769.946674 488.64079 
L 770.930506 487.845712 
L 771.914339 486.732492 
L 772.898171 485.280747 
L 774.004983 483.231259 
L 775.234773 480.437976 
L 776.587543 476.758106 
L 778.063292 472.064881 
L 779.784999 465.788759 
L 781.752664 457.733473 
L 784.212245 446.685669 
L 789.623324 420.947018 
L 792.820779 406.434866 
L 795.28036 396.228845 
L 797.493984 387.954593 
L 799.584628 381.000298 
L 801.552293 375.205606 
L 803.519958 370.097593 
L 805.610602 365.330038 
L 807.947204 360.563385 
L 810.529764 355.795295 
L 813.235303 351.262931 
L 815.940843 347.17172 
L 818.523403 343.655713 
L 819.999152 341.971908 
L 821.228942 340.874372 
L 822.335754 340.167578 
L 823.319587 339.77854 
L 824.303419 339.625276 
L 825.164272 339.698218 
L 826.025126 339.97422 
L 827.008958 340.546307 
L 827.992791 341.397523 
L 829.099602 342.690774 
L 830.206414 344.336745 
L 831.436205 346.572437 
L 832.788974 349.51025 
L 835.371535 355.873013 
L 837.462179 360.712294 
L 838.937927 363.606178 
L 840.290697 365.78316 
L 841.520488 367.3513 
L 842.50432 368.28958 
L 843.365174 368.800785 
L 844.103048 368.968071 
L 844.717943 368.899335 
L 845.332839 368.632226 
L 846.070713 368.042856 
L 846.808587 367.156976 
L 847.669441 365.749676 
L 848.653273 363.659414 
L 849.760085 360.724521 
L 850.989875 356.801595 
L 852.465624 351.301867 
L 854.31031 343.490309 
L 857.261808 329.83612 
L 861.074158 312.408485 
L 863.53374 302.234482 
L 865.747363 294.026705 
L 867.960986 286.672904 
L 870.297588 279.708656 
L 873.003127 272.395469 
L 877.061437 262.147974 
L 879.521018 256.412242 
L 880.996766 253.507781 
L 882.472515 251.11859 
L 883.948264 249.153914 
L 885.546992 247.406871 
L 887.268699 245.874094 
L 889.113385 244.535809 
L 890.343175 243.874052 
L 891.327008 243.56658 
L 892.187861 243.506272 
L 893.048715 243.670656 
L 893.909568 244.074184 
L 894.8934 244.783975 
L 896.24617 246.066323 
L 898.582772 248.671123 
L 902.026186 252.433151 
L 905.4696 255.817292 
L 908.790034 259.137598 
L 910.388762 261.068832 
L 911.741532 263.054799 
L 912.971323 265.257493 
L 914.201113 267.93662 
L 915.430904 271.184218 
L 916.660694 275.09091 
L 917.890485 279.73577 
L 919.243255 285.714324 
L 920.841983 293.876564 
L 922.563689 303.862524 
L 924.654333 317.373955 
L 927.482852 337.280458 
L 932.770951 374.776614 
L 934.861596 387.869165 
L 936.706281 398.103862 
L 938.305009 405.839535 
L 939.780758 411.989445 
L 941.133528 416.781384 
L 942.486297 420.782527 
L 943.716088 423.77092 
L 944.945879 426.204113 
L 946.175669 428.176655 
L 947.40546 429.778221 
L 948.512271 430.891319 
L 949.496104 431.590234 
L 950.356957 431.961877 
L 951.217811 432.107524 
L 952.078664 432.042234 
L 953.062497 431.73951 
L 954.292287 431.096057 
L 956.997827 429.303934 
L 961.916989 425.807494 
L 967.942963 421.540595 
L 970.525523 419.974823 
L 972.616168 418.952349 
L 974.460853 418.29577 
L 976.059581 417.958643 
L 977.53533 417.883469 
L 978.8881 418.048106 
L 980.11789 418.416864 
L 981.347681 419.015668 
L 982.577472 419.866368 
L 983.807262 420.991559 
L 985.037053 422.414249 
L 986.389822 424.34656 
L 987.742592 426.681055 
L 989.218341 429.691756 
L 990.817069 433.485438 
L 992.538776 438.142672 
L 994.62942 444.46074 
L 1001.270289 465.123598 
L 1002.50008 468.007878 
L 1003.72987 470.31132 
L 1004.959661 472.120966 
L 1006.435409 473.84886 
L 1013.937132 481.723594 
L 1016.642672 484.208179 
L 1018.856295 485.945536 
L 1020.82396 487.218154 
L 1022.668646 488.154767 
L 1024.513332 488.833797 
L 1026.358017 489.26381 
L 1028.325682 489.484528 
L 1031.031222 489.536537 
L 1110.475696 489.426306 
L 1111.582507 489.110594 
L 1112.56634 488.579898 
L 1113.673151 487.698965 
L 1115.025921 486.301282 
L 1116.747628 484.161486 
L 1119.330188 480.541845 
L 1123.757434 474.323892 
L 1125.971058 471.623829 
L 1127.815743 469.725516 
L 1129.414471 468.383788 
L 1130.89022 467.41171 
L 1132.365969 466.696745 
L 1133.841717 466.227449 
L 1135.317466 465.984515 
L 1136.916194 465.948105 
L 1138.637901 466.129352 
L 1140.728545 466.583888 
L 1143.311105 467.384774 
L 1147.369414 468.907879 
L 1153.887305 471.342764 
L 1157.330718 472.376765 
L 1160.405195 473.065671 
L 1163.233713 473.470086 
L 1165.816274 473.623665 
L 1170.612457 473.800422 
L 1172.580122 474.161678 
L 1174.547787 474.745959 
L 1176.515452 475.571892 
L 1178.483117 476.653238 
L 1180.450782 477.98853 
L 1182.664405 479.769712 
L 1185.738882 482.31541 
L 1186.845693 482.881841 
L 1187.706547 483.082718 
L 1188.444421 483.055652 
L 1189.182295 482.823129 
L 1189.92017 482.368347 
L 1190.781023 481.539211 
L 1191.641876 480.374269 
L 1192.625709 478.620792 
L 1193.609541 476.414579 
L 1194.716353 473.400625 
L 1195.946144 469.42159 
L 1197.421892 463.849169 
L 1199.143599 456.418525 
L 1201.357222 445.793285 
L 1206.030427 421.857243 
L 1209.104903 406.835119 
L 1211.441505 396.496846 
L 1213.532149 388.186801 
L 1215.622794 380.761177 
L 1217.590459 374.55407 
L 1219.435144 369.442583 
L 1221.033872 365.638455 
L 1222.386642 362.972719 
L 1223.493453 361.245108 
L 1224.600265 359.891547 
L 1225.953035 358.60087 
L 1227.797721 357.164014 
L 1229.888365 355.82266 
L 1232.347946 354.519277 
L 1235.053485 353.344376 
L 1238.004983 352.318394 
L 1242.432229 351.050811 
L 1244.399894 350.70738 
L 1245.998622 350.661692 
L 1247.351391 350.840999 
L 1248.704161 351.257967 
L 1249.933952 351.874029 
L 1251.163742 352.746269 
L 1252.393533 353.902147 
L 1253.623324 355.364186 
L 1254.238219 356.215932 
L 1265.675272 395.899394 
L 1270.348476 413.515431 
L 1276.37445 437.168217 
L 1298.756639 525.888351 
L 1305.028571 549.35688 
L 1311.054545 571.041464 
L 1311.054545 571.041464 
" style="fill:none;stroke:#008fd5;stroke-width:4;"/>
   </g>
   <g id="patch_3">
    <path d="M 115.2 669.6 
L 115.2 86.4 
" style="fill:none;stroke:#f0f0f0;stroke-linecap:square;stroke-linejoin:miter;stroke-width:3;"/>
   </g>
   <g id="patch_4">
    <path d="M 1368 669.6 
L 1368 86.4 
" style="fill:none;stroke:#f0f0f0;stroke-linecap:square;stroke-linejoin:miter;stroke-width:3;"/>
   </g>
   <g id="patch_5">
    <path d="M 115.2 669.6 
L 1368 669.6 
" style="fill:none;stroke:#f0f0f0;stroke-linecap:square;stroke-linejoin:miter;stroke-width:3;"/>
   </g>
   <g id="patch_6">
    <path d="M 115.2 86.4 
L 1368 86.4 
" style="fill:none;stroke:#f0f0f0;stroke-linecap:square;stroke-linejoin:miter;stroke-width:3;"/>
   </g>
   <g id="legend_1">
    <g id="patch_7">
     <path d="M 1282.295938 118.149375 
L 1358.2 118.149375 
Q 1361 118.149375 1361 115.349375 
L 1361 96.2 
Q 1361 93.4 1358.2 93.4 
L 1282.295938 93.4 
Q 1279.495938 93.4 1279.495938 96.2 
L 1279.495938 115.349375 
Q 1279.495938 118.149375 1282.295938 118.149375 
z
" style="fill:#f0f0f0;opacity:0.8;stroke:#cccccc;stroke-linejoin:miter;stroke-width:0.5;"/>
    </g>
    <g id="line2d_28">
     <path d="M 1285.095937 104.737812 
L 1313.095937 104.737812 
" style="fill:none;stroke:#008fd5;stroke-width:4;"/>
    </g>
    <g id="line2d_29"/>
    <g id="text_16">
     <!-- Cujo -->
     <defs>
      <path d="M 64.40625 67.28125 
L 64.40625 56.890625 
Q 59.421875 61.53125 53.78125 63.8125 
Q 48.140625 66.109375 41.796875 66.109375 
Q 29.296875 66.109375 22.65625 58.46875 
Q 16.015625 50.828125 16.015625 36.375 
Q 16.015625 21.96875 22.65625 14.328125 
Q 29.296875 6.6875 41.796875 6.6875 
Q 48.140625 6.6875 53.78125 8.984375 
Q 59.421875 11.28125 64.40625 15.921875 
L 64.40625 5.609375 
Q 59.234375 2.09375 53.4375 0.328125 
Q 47.65625 -1.421875 41.21875 -1.421875 
Q 24.65625 -1.421875 15.125 8.703125 
Q 5.609375 18.84375 5.609375 36.375 
Q 5.609375 53.953125 15.125 64.078125 
Q 24.65625 74.21875 41.21875 74.21875 
Q 47.75 74.21875 53.53125 72.484375 
Q 59.328125 70.75 64.40625 67.28125 
z
" id="DejaVuSans-43"/>
      <path d="M 8.5 21.578125 
L 8.5 54.6875 
L 17.484375 54.6875 
L 17.484375 21.921875 
Q 17.484375 14.15625 20.5 10.265625 
Q 23.53125 6.390625 29.59375 6.390625 
Q 36.859375 6.390625 41.078125 11.03125 
Q 45.3125 15.671875 45.3125 23.6875 
L 45.3125 54.6875 
L 54.296875 54.6875 
L 54.296875 0 
L 45.3125 0 
L 45.3125 8.40625 
Q 42.046875 3.421875 37.71875 1 
Q 33.40625 -1.421875 27.6875 -1.421875 
Q 18.265625 -1.421875 13.375 4.4375 
Q 8.5 10.296875 8.5 21.578125 
z
M 31.109375 56 
z
" id="DejaVuSans-75"/>
      <path d="M 9.421875 54.6875 
L 18.40625 54.6875 
L 18.40625 -0.984375 
Q 18.40625 -11.421875 14.421875 -16.109375 
Q 10.453125 -20.796875 1.609375 -20.796875 
L -1.8125 -20.796875 
L -1.8125 -13.1875 
L 0.59375 -13.1875 
Q 5.71875 -13.1875 7.5625 -10.8125 
Q 9.421875 -8.453125 9.421875 -0.984375 
z
M 9.421875 75.984375 
L 18.40625 75.984375 
L 18.40625 64.59375 
L 9.421875 64.59375 
z
" id="DejaVuSans-6a"/>
     </defs>
     <g transform="translate(1324.295938 109.637812)scale(0.14 -0.14)">
      <use xlink:href="#DejaVuSans-43"/>
      <use x="69.824219" xlink:href="#DejaVuSans-75"/>
      <use x="133.203125" xlink:href="#DejaVuSans-6a"/>
      <use x="160.986328" xlink:href="#DejaVuSans-6f"/>
     </g>
    </g>
   </g>
  </g>
 </g>
 <defs>
  <clipPath id="p861f529b46">
   <rect height="583.2" width="1252.8" x="115.2" y="86.4"/>
  </clipPath>
 </defs>
</svg>
