<?xml version="1.0" encoding="utf-8" standalone="no"?>
<!DOCTYPE svg PUBLIC "-//W3C//DTD SVG 1.1//EN"
  "http://www.w3.org/Graphics/SVG/1.1/DTD/svg11.dtd">
<!-- Created with matplotlib (http://matplotlib.org/) -->
<svg height="720pt" version="1.1" viewBox="0 0 1440 720" width="1440pt" xmlns="http://www.w3.org/2000/svg" xmlns:xlink="http://www.w3.org/1999/xlink">
 <defs>
  <style type="text/css">
*{stroke-linecap:butt;stroke-linejoin:round;}
  </style>
 </defs>
 <g id="figure_1">
  <g id="patch_1">
   <path d="M 0 720 
L 1440 720 
L 1440 0 
L 0 0 
z
" style="fill:#f0f0f0;"/>
  </g>
  <g id="axes_1">
   <g id="patch_2">
    <path d="M 115.2 669.6 
L 1368 669.6 
L 1368 86.4 
L 115.2 86.4 
z
" style="fill:#f0f0f0;"/>
   </g>
   <g id="matplotlib.axis_1">
    <g id="xtick_1">
     <g id="line2d_1">
      <path clip-path="url(#pa9cf80ab1f)" d="M 172.145455 669.6 
L 172.145455 86.4 
" style="fill:none;stroke:#cbcbcb;"/>
     </g>
     <g id="line2d_2"/>
     <g id="text_1">
      <!-- 0 -->
      <defs>
       <path d="M 31.78125 66.40625 
Q 24.171875 66.40625 20.328125 58.90625 
Q 16.5 51.421875 16.5 36.375 
Q 16.5 21.390625 20.328125 13.890625 
Q 24.171875 6.390625 31.78125 6.390625 
Q 39.453125 6.390625 43.28125 13.890625 
Q 47.125 21.390625 47.125 36.375 
Q 47.125 51.421875 43.28125 58.90625 
Q 39.453125 66.40625 31.78125 66.40625 
z
M 31.78125 74.21875 
Q 44.046875 74.21875 50.515625 64.515625 
Q 56.984375 54.828125 56.984375 36.375 
Q 56.984375 17.96875 50.515625 8.265625 
Q 44.046875 -1.421875 31.78125 -1.421875 
Q 19.53125 -1.421875 13.0625 8.265625 
Q 6.59375 17.96875 6.59375 36.375 
Q 6.59375 54.828125 13.0625 64.515625 
Q 19.53125 74.21875 31.78125 74.21875 
z
" id="DejaVuSans-30"/>
      </defs>
      <g transform="translate(167.691705 683.737813)scale(0.14 -0.14)">
       <use xlink:href="#DejaVuSans-30"/>
      </g>
     </g>
    </g>
    <g id="xtick_2">
     <g id="line2d_3">
      <path clip-path="url(#pa9cf80ab1f)" d="M 321.271979 669.6 
L 321.271979 86.4 
" style="fill:none;stroke:#cbcbcb;"/>
     </g>
     <g id="line2d_4"/>
     <g id="text_2">
      <!-- 2500 -->
      <defs>
       <path d="M 19.1875 8.296875 
L 53.609375 8.296875 
L 53.609375 0 
L 7.328125 0 
L 7.328125 8.296875 
Q 12.9375 14.109375 22.625 23.890625 
Q 32.328125 33.6875 34.8125 36.53125 
Q 39.546875 41.84375 41.421875 45.53125 
Q 43.3125 49.21875 43.3125 52.78125 
Q 43.3125 58.59375 39.234375 62.25 
Q 35.15625 65.921875 28.609375 65.921875 
Q 23.96875 65.921875 18.8125 64.3125 
Q 13.671875 62.703125 7.8125 59.421875 
L 7.8125 69.390625 
Q 13.765625 71.78125 18.9375 73 
Q 24.125 74.21875 28.421875 74.21875 
Q 39.75 74.21875 46.484375 68.546875 
Q 53.21875 62.890625 53.21875 53.421875 
Q 53.21875 48.921875 51.53125 44.890625 
Q 49.859375 40.875 45.40625 35.40625 
Q 44.1875 33.984375 37.640625 27.21875 
Q 31.109375 20.453125 19.1875 8.296875 
z
" id="DejaVuSans-32"/>
       <path d="M 10.796875 72.90625 
L 49.515625 72.90625 
L 49.515625 64.59375 
L 19.828125 64.59375 
L 19.828125 46.734375 
Q 21.96875 47.46875 24.109375 47.828125 
Q 26.265625 48.1875 28.421875 48.1875 
Q 40.625 48.1875 47.75 41.5 
Q 54.890625 34.8125 54.890625 23.390625 
Q 54.890625 11.625 47.5625 5.09375 
Q 40.234375 -1.421875 26.90625 -1.421875 
Q 22.3125 -1.421875 17.546875 -0.640625 
Q 12.796875 0.140625 7.71875 1.703125 
L 7.71875 11.625 
Q 12.109375 9.234375 16.796875 8.0625 
Q 21.484375 6.890625 26.703125 6.890625 
Q 35.15625 6.890625 40.078125 11.328125 
Q 45.015625 15.765625 45.015625 23.390625 
Q 45.015625 31 40.078125 35.4375 
Q 35.15625 39.890625 26.703125 39.890625 
Q 22.75 39.890625 18.8125 39.015625 
Q 14.890625 38.140625 10.796875 36.28125 
z
" id="DejaVuSans-35"/>
      </defs>
      <g transform="translate(303.456979 683.737813)scale(0.14 -0.14)">
       <use xlink:href="#DejaVuSans-32"/>
       <use x="63.623047" xlink:href="#DejaVuSans-35"/>
       <use x="127.246094" xlink:href="#DejaVuSans-30"/>
       <use x="190.869141" xlink:href="#DejaVuSans-30"/>
      </g>
     </g>
    </g>
    <g id="xtick_3">
     <g id="line2d_5">
      <path clip-path="url(#pa9cf80ab1f)" d="M 470.398503 669.6 
L 470.398503 86.4 
" style="fill:none;stroke:#cbcbcb;"/>
     </g>
     <g id="line2d_6"/>
     <g id="text_3">
      <!-- 5000 -->
      <g transform="translate(452.583503 683.737813)scale(0.14 -0.14)">
       <use xlink:href="#DejaVuSans-35"/>
       <use x="63.623047" xlink:href="#DejaVuSans-30"/>
       <use x="127.246094" xlink:href="#DejaVuSans-30"/>
       <use x="190.869141" xlink:href="#DejaVuSans-30"/>
      </g>
     </g>
    </g>
    <g id="xtick_4">
     <g id="line2d_7">
      <path clip-path="url(#pa9cf80ab1f)" d="M 619.525027 669.6 
L 619.525027 86.4 
" style="fill:none;stroke:#cbcbcb;"/>
     </g>
     <g id="line2d_8"/>
     <g id="text_4">
      <!-- 7500 -->
      <defs>
       <path d="M 8.203125 72.90625 
L 55.078125 72.90625 
L 55.078125 68.703125 
L 28.609375 0 
L 18.3125 0 
L 43.21875 64.59375 
L 8.203125 64.59375 
z
" id="DejaVuSans-37"/>
      </defs>
      <g transform="translate(601.710027 683.737813)scale(0.14 -0.14)">
       <use xlink:href="#DejaVuSans-37"/>
       <use x="63.623047" xlink:href="#DejaVuSans-35"/>
       <use x="127.246094" xlink:href="#DejaVuSans-30"/>
       <use x="190.869141" xlink:href="#DejaVuSans-30"/>
      </g>
     </g>
    </g>
    <g id="xtick_5">
     <g id="line2d_9">
      <path clip-path="url(#pa9cf80ab1f)" d="M 768.651551 669.6 
L 768.651551 86.4 
" style="fill:none;stroke:#cbcbcb;"/>
     </g>
     <g id="line2d_10"/>
     <g id="text_5">
      <!-- 10000 -->
      <defs>
       <path d="M 12.40625 8.296875 
L 28.515625 8.296875 
L 28.515625 63.921875 
L 10.984375 60.40625 
L 10.984375 69.390625 
L 28.421875 72.90625 
L 38.28125 72.90625 
L 38.28125 8.296875 
L 54.390625 8.296875 
L 54.390625 0 
L 12.40625 0 
z
" id="DejaVuSans-31"/>
      </defs>
      <g transform="translate(746.382801 683.737813)scale(0.14 -0.14)">
       <use xlink:href="#DejaVuSans-31"/>
       <use x="63.623047" xlink:href="#DejaVuSans-30"/>
       <use x="127.246094" xlink:href="#DejaVuSans-30"/>
       <use x="190.869141" xlink:href="#DejaVuSans-30"/>
       <use x="254.492188" xlink:href="#DejaVuSans-30"/>
      </g>
     </g>
    </g>
    <g id="xtick_6">
     <g id="line2d_11">
      <path clip-path="url(#pa9cf80ab1f)" d="M 917.778076 669.6 
L 917.778076 86.4 
" style="fill:none;stroke:#cbcbcb;"/>
     </g>
     <g id="line2d_12"/>
     <g id="text_6">
      <!-- 12500 -->
      <g transform="translate(895.509326 683.737813)scale(0.14 -0.14)">
       <use xlink:href="#DejaVuSans-31"/>
       <use x="63.623047" xlink:href="#DejaVuSans-32"/>
       <use x="127.246094" xlink:href="#DejaVuSans-35"/>
       <use x="190.869141" xlink:href="#DejaVuSans-30"/>
       <use x="254.492188" xlink:href="#DejaVuSans-30"/>
      </g>
     </g>
    </g>
    <g id="xtick_7">
     <g id="line2d_13">
      <path clip-path="url(#pa9cf80ab1f)" d="M 1066.9046 669.6 
L 1066.9046 86.4 
" style="fill:none;stroke:#cbcbcb;"/>
     </g>
     <g id="line2d_14"/>
     <g id="text_7">
      <!-- 15000 -->
      <g transform="translate(1044.63585 683.737813)scale(0.14 -0.14)">
       <use xlink:href="#DejaVuSans-31"/>
       <use x="63.623047" xlink:href="#DejaVuSans-35"/>
       <use x="127.246094" xlink:href="#DejaVuSans-30"/>
       <use x="190.869141" xlink:href="#DejaVuSans-30"/>
       <use x="254.492188" xlink:href="#DejaVuSans-30"/>
      </g>
     </g>
    </g>
    <g id="xtick_8">
     <g id="line2d_15">
      <path clip-path="url(#pa9cf80ab1f)" d="M 1216.031124 669.6 
L 1216.031124 86.4 
" style="fill:none;stroke:#cbcbcb;"/>
     </g>
     <g id="line2d_16"/>
     <g id="text_8">
      <!-- 17500 -->
      <g transform="translate(1193.762374 683.737813)scale(0.14 -0.14)">
       <use xlink:href="#DejaVuSans-31"/>
       <use x="63.623047" xlink:href="#DejaVuSans-37"/>
       <use x="127.246094" xlink:href="#DejaVuSans-35"/>
       <use x="190.869141" xlink:href="#DejaVuSans-30"/>
       <use x="254.492188" xlink:href="#DejaVuSans-30"/>
      </g>
     </g>
    </g>
    <g id="xtick_9">
     <g id="line2d_17">
      <path clip-path="url(#pa9cf80ab1f)" d="M 1365.157648 669.6 
L 1365.157648 86.4 
" style="fill:none;stroke:#cbcbcb;"/>
     </g>
     <g id="line2d_18"/>
     <g id="text_9">
      <!-- 20000 -->
      <g transform="translate(1342.888898 683.737813)scale(0.14 -0.14)">
       <use xlink:href="#DejaVuSans-32"/>
       <use x="63.623047" xlink:href="#DejaVuSans-30"/>
       <use x="127.246094" xlink:href="#DejaVuSans-30"/>
       <use x="190.869141" xlink:href="#DejaVuSans-30"/>
       <use x="254.492188" xlink:href="#DejaVuSans-30"/>
      </g>
     </g>
    </g>
    <g id="text_10">
     <!-- Sentence # -->
     <defs>
      <path d="M 53.515625 70.515625 
L 53.515625 60.890625 
Q 47.90625 63.578125 42.921875 64.890625 
Q 37.9375 66.21875 33.296875 66.21875 
Q 25.25 66.21875 20.875 63.09375 
Q 16.5 59.96875 16.5 54.203125 
Q 16.5 49.359375 19.40625 46.890625 
Q 22.3125 44.4375 30.421875 42.921875 
L 36.375 41.703125 
Q 47.40625 39.59375 52.65625 34.296875 
Q 57.90625 29 57.90625 20.125 
Q 57.90625 9.515625 50.796875 4.046875 
Q 43.703125 -1.421875 29.984375 -1.421875 
Q 24.8125 -1.421875 18.96875 -0.25 
Q 13.140625 0.921875 6.890625 3.21875 
L 6.890625 13.375 
Q 12.890625 10.015625 18.65625 8.296875 
Q 24.421875 6.59375 29.984375 6.59375 
Q 38.421875 6.59375 43.015625 9.90625 
Q 47.609375 13.234375 47.609375 19.390625 
Q 47.609375 24.75 44.3125 27.78125 
Q 41.015625 30.8125 33.5 32.328125 
L 27.484375 33.5 
Q 16.453125 35.6875 11.515625 40.375 
Q 6.59375 45.0625 6.59375 53.421875 
Q 6.59375 63.09375 13.40625 68.65625 
Q 20.21875 74.21875 32.171875 74.21875 
Q 37.3125 74.21875 42.625 73.28125 
Q 47.953125 72.359375 53.515625 70.515625 
z
" id="DejaVuSans-53"/>
      <path d="M 56.203125 29.59375 
L 56.203125 25.203125 
L 14.890625 25.203125 
Q 15.484375 15.921875 20.484375 11.0625 
Q 25.484375 6.203125 34.421875 6.203125 
Q 39.59375 6.203125 44.453125 7.46875 
Q 49.3125 8.734375 54.109375 11.28125 
L 54.109375 2.78125 
Q 49.265625 0.734375 44.1875 -0.34375 
Q 39.109375 -1.421875 33.890625 -1.421875 
Q 20.796875 -1.421875 13.15625 6.1875 
Q 5.515625 13.8125 5.515625 26.8125 
Q 5.515625 40.234375 12.765625 48.109375 
Q 20.015625 56 32.328125 56 
Q 43.359375 56 49.78125 48.890625 
Q 56.203125 41.796875 56.203125 29.59375 
z
M 47.21875 32.234375 
Q 47.125 39.59375 43.09375 43.984375 
Q 39.0625 48.390625 32.421875 48.390625 
Q 24.90625 48.390625 20.390625 44.140625 
Q 15.875 39.890625 15.1875 32.171875 
z
" id="DejaVuSans-65"/>
      <path d="M 54.890625 33.015625 
L 54.890625 0 
L 45.90625 0 
L 45.90625 32.71875 
Q 45.90625 40.484375 42.875 44.328125 
Q 39.84375 48.1875 33.796875 48.1875 
Q 26.515625 48.1875 22.3125 43.546875 
Q 18.109375 38.921875 18.109375 30.90625 
L 18.109375 0 
L 9.078125 0 
L 9.078125 54.6875 
L 18.109375 54.6875 
L 18.109375 46.1875 
Q 21.34375 51.125 25.703125 53.5625 
Q 30.078125 56 35.796875 56 
Q 45.21875 56 50.046875 50.171875 
Q 54.890625 44.34375 54.890625 33.015625 
z
" id="DejaVuSans-6e"/>
      <path d="M 18.3125 70.21875 
L 18.3125 54.6875 
L 36.8125 54.6875 
L 36.8125 47.703125 
L 18.3125 47.703125 
L 18.3125 18.015625 
Q 18.3125 11.328125 20.140625 9.421875 
Q 21.96875 7.515625 27.59375 7.515625 
L 36.8125 7.515625 
L 36.8125 0 
L 27.59375 0 
Q 17.1875 0 13.234375 3.875 
Q 9.28125 7.765625 9.28125 18.015625 
L 9.28125 47.703125 
L 2.6875 47.703125 
L 2.6875 54.6875 
L 9.28125 54.6875 
L 9.28125 70.21875 
z
" id="DejaVuSans-74"/>
      <path d="M 48.78125 52.59375 
L 48.78125 44.1875 
Q 44.96875 46.296875 41.140625 47.34375 
Q 37.3125 48.390625 33.40625 48.390625 
Q 24.65625 48.390625 19.8125 42.84375 
Q 14.984375 37.3125 14.984375 27.296875 
Q 14.984375 17.28125 19.8125 11.734375 
Q 24.65625 6.203125 33.40625 6.203125 
Q 37.3125 6.203125 41.140625 7.25 
Q 44.96875 8.296875 48.78125 10.40625 
L 48.78125 2.09375 
Q 45.015625 0.34375 40.984375 -0.53125 
Q 36.96875 -1.421875 32.421875 -1.421875 
Q 20.0625 -1.421875 12.78125 6.34375 
Q 5.515625 14.109375 5.515625 27.296875 
Q 5.515625 40.671875 12.859375 48.328125 
Q 20.21875 56 33.015625 56 
Q 37.15625 56 41.109375 55.140625 
Q 45.0625 54.296875 48.78125 52.59375 
z
" id="DejaVuSans-63"/>
      <path id="DejaVuSans-20"/>
      <path d="M 51.125 44 
L 36.921875 44 
L 32.8125 27.6875 
L 47.125 27.6875 
z
M 43.796875 71.78125 
L 38.71875 51.515625 
L 52.984375 51.515625 
L 58.109375 71.78125 
L 65.921875 71.78125 
L 60.890625 51.515625 
L 76.125 51.515625 
L 76.125 44 
L 58.984375 44 
L 54.984375 27.6875 
L 70.515625 27.6875 
L 70.515625 20.21875 
L 53.078125 20.21875 
L 48 0 
L 40.1875 0 
L 45.21875 20.21875 
L 30.90625 20.21875 
L 25.875 0 
L 18.015625 0 
L 23.09375 20.21875 
L 7.71875 20.21875 
L 7.71875 27.6875 
L 24.90625 27.6875 
L 29 44 
L 13.28125 44 
L 13.28125 51.515625 
L 30.90625 51.515625 
L 35.890625 71.78125 
z
" id="DejaVuSans-23"/>
     </defs>
     <g transform="translate(692.494125 703.41475)scale(0.168 -0.168)">
      <use xlink:href="#DejaVuSans-53"/>
      <use x="63.476562" xlink:href="#DejaVuSans-65"/>
      <use x="125" xlink:href="#DejaVuSans-6e"/>
      <use x="188.378906" xlink:href="#DejaVuSans-74"/>
      <use x="227.587891" xlink:href="#DejaVuSans-65"/>
      <use x="289.111328" xlink:href="#DejaVuSans-6e"/>
      <use x="352.490234" xlink:href="#DejaVuSans-63"/>
      <use x="407.470703" xlink:href="#DejaVuSans-65"/>
      <use x="468.994141" xlink:href="#DejaVuSans-20"/>
      <use x="500.78125" xlink:href="#DejaVuSans-23"/>
     </g>
    </g>
   </g>
   <g id="matplotlib.axis_2">
    <g id="ytick_1">
     <g id="line2d_19">
      <path clip-path="url(#pa9cf80ab1f)" d="M 115.2 609.770433 
L 1368 609.770433 
" style="fill:none;stroke:#cbcbcb;"/>
     </g>
     <g id="line2d_20"/>
     <g id="text_11">
      <!-- −0.000025 -->
      <defs>
       <path d="M 10.59375 35.5 
L 73.1875 35.5 
L 73.1875 27.203125 
L 10.59375 27.203125 
z
" id="DejaVuSans-2212"/>
       <path d="M 10.6875 12.40625 
L 21 12.40625 
L 21 0 
L 10.6875 0 
z
" id="DejaVuSans-2e"/>
      </defs>
      <g transform="translate(33.166562 615.089339)scale(0.14 -0.14)">
       <use xlink:href="#DejaVuSans-2212"/>
       <use x="83.789062" xlink:href="#DejaVuSans-30"/>
       <use x="147.412109" xlink:href="#DejaVuSans-2e"/>
       <use x="179.199219" xlink:href="#DejaVuSans-30"/>
       <use x="242.822266" xlink:href="#DejaVuSans-30"/>
       <use x="306.445312" xlink:href="#DejaVuSans-30"/>
       <use x="370.068359" xlink:href="#DejaVuSans-30"/>
       <use x="433.691406" xlink:href="#DejaVuSans-32"/>
       <use x="497.314453" xlink:href="#DejaVuSans-35"/>
      </g>
     </g>
    </g>
    <g id="ytick_2">
     <g id="line2d_21">
      <path clip-path="url(#pa9cf80ab1f)" d="M 115.2 536.770465 
L 1368 536.770465 
" style="fill:none;stroke:#cbcbcb;"/>
     </g>
     <g id="line2d_22"/>
     <g id="text_12">
      <!-- 0.000000 -->
      <g transform="translate(44.898125 542.089371)scale(0.14 -0.14)">
       <use xlink:href="#DejaVuSans-30"/>
       <use x="63.623047" xlink:href="#DejaVuSans-2e"/>
       <use x="95.410156" xlink:href="#DejaVuSans-30"/>
       <use x="159.033203" xlink:href="#DejaVuSans-30"/>
       <use x="222.65625" xlink:href="#DejaVuSans-30"/>
       <use x="286.279297" xlink:href="#DejaVuSans-30"/>
       <use x="349.902344" xlink:href="#DejaVuSans-30"/>
       <use x="413.525391" xlink:href="#DejaVuSans-30"/>
      </g>
     </g>
    </g>
    <g id="ytick_3">
     <g id="line2d_23">
      <path clip-path="url(#pa9cf80ab1f)" d="M 115.2 463.770496 
L 1368 463.770496 
" style="fill:none;stroke:#cbcbcb;"/>
     </g>
     <g id="line2d_24"/>
     <g id="text_13">
      <!-- 0.000025 -->
      <g transform="translate(44.898125 469.089403)scale(0.14 -0.14)">
       <use xlink:href="#DejaVuSans-30"/>
       <use x="63.623047" xlink:href="#DejaVuSans-2e"/>
       <use x="95.410156" xlink:href="#DejaVuSans-30"/>
       <use x="159.033203" xlink:href="#DejaVuSans-30"/>
       <use x="222.65625" xlink:href="#DejaVuSans-30"/>
       <use x="286.279297" xlink:href="#DejaVuSans-30"/>
       <use x="349.902344" xlink:href="#DejaVuSans-32"/>
       <use x="413.525391" xlink:href="#DejaVuSans-35"/>
      </g>
     </g>
    </g>
    <g id="ytick_4">
     <g id="line2d_25">
      <path clip-path="url(#pa9cf80ab1f)" d="M 115.2 390.770528 
L 1368 390.770528 
" style="fill:none;stroke:#cbcbcb;"/>
     </g>
     <g id="line2d_26"/>
     <g id="text_14">
      <!-- 0.000050 -->
      <g transform="translate(44.898125 396.089434)scale(0.14 -0.14)">
       <use xlink:href="#DejaVuSans-30"/>
       <use x="63.623047" xlink:href="#DejaVuSans-2e"/>
       <use x="95.410156" xlink:href="#DejaVuSans-30"/>
       <use x="159.033203" xlink:href="#DejaVuSans-30"/>
       <use x="222.65625" xlink:href="#DejaVuSans-30"/>
       <use x="286.279297" xlink:href="#DejaVuSans-30"/>
       <use x="349.902344" xlink:href="#DejaVuSans-35"/>
       <use x="413.525391" xlink:href="#DejaVuSans-30"/>
      </g>
     </g>
    </g>
    <g id="ytick_5">
     <g id="line2d_27">
      <path clip-path="url(#pa9cf80ab1f)" d="M 115.2 317.77056 
L 1368 317.77056 
" style="fill:none;stroke:#cbcbcb;"/>
     </g>
     <g id="line2d_28"/>
     <g id="text_15">
      <!-- 0.000075 -->
      <g transform="translate(44.898125 323.089466)scale(0.14 -0.14)">
       <use xlink:href="#DejaVuSans-30"/>
       <use x="63.623047" xlink:href="#DejaVuSans-2e"/>
       <use x="95.410156" xlink:href="#DejaVuSans-30"/>
       <use x="159.033203" xlink:href="#DejaVuSans-30"/>
       <use x="222.65625" xlink:href="#DejaVuSans-30"/>
       <use x="286.279297" xlink:href="#DejaVuSans-30"/>
       <use x="349.902344" xlink:href="#DejaVuSans-37"/>
       <use x="413.525391" xlink:href="#DejaVuSans-35"/>
      </g>
     </g>
    </g>
    <g id="ytick_6">
     <g id="line2d_29">
      <path clip-path="url(#pa9cf80ab1f)" d="M 115.2 244.770592 
L 1368 244.770592 
" style="fill:none;stroke:#cbcbcb;"/>
     </g>
     <g id="line2d_30"/>
     <g id="text_16">
      <!-- 0.000100 -->
      <g transform="translate(44.898125 250.089498)scale(0.14 -0.14)">
       <use xlink:href="#DejaVuSans-30"/>
       <use x="63.623047" xlink:href="#DejaVuSans-2e"/>
       <use x="95.410156" xlink:href="#DejaVuSans-30"/>
       <use x="159.033203" xlink:href="#DejaVuSans-30"/>
       <use x="222.65625" xlink:href="#DejaVuSans-30"/>
       <use x="286.279297" xlink:href="#DejaVuSans-31"/>
       <use x="349.902344" xlink:href="#DejaVuSans-30"/>
       <use x="413.525391" xlink:href="#DejaVuSans-30"/>
      </g>
     </g>
    </g>
    <g id="ytick_7">
     <g id="line2d_31">
      <path clip-path="url(#pa9cf80ab1f)" d="M 115.2 171.770624 
L 1368 171.770624 
" style="fill:none;stroke:#cbcbcb;"/>
     </g>
     <g id="line2d_32"/>
     <g id="text_17">
      <!-- 0.000125 -->
      <g transform="translate(44.898125 177.08953)scale(0.14 -0.14)">
       <use xlink:href="#DejaVuSans-30"/>
       <use x="63.623047" xlink:href="#DejaVuSans-2e"/>
       <use x="95.410156" xlink:href="#DejaVuSans-30"/>
       <use x="159.033203" xlink:href="#DejaVuSans-30"/>
       <use x="222.65625" xlink:href="#DejaVuSans-30"/>
       <use x="286.279297" xlink:href="#DejaVuSans-31"/>
       <use x="349.902344" xlink:href="#DejaVuSans-32"/>
       <use x="413.525391" xlink:href="#DejaVuSans-35"/>
      </g>
     </g>
    </g>
    <g id="ytick_8">
     <g id="line2d_33">
      <path clip-path="url(#pa9cf80ab1f)" d="M 115.2 98.770655 
L 1368 98.770655 
" style="fill:none;stroke:#cbcbcb;"/>
     </g>
     <g id="line2d_34"/>
     <g id="text_18">
      <!-- 0.000150 -->
      <g transform="translate(44.898125 104.089562)scale(0.14 -0.14)">
       <use xlink:href="#DejaVuSans-30"/>
       <use x="63.623047" xlink:href="#DejaVuSans-2e"/>
       <use x="95.410156" xlink:href="#DejaVuSans-30"/>
       <use x="159.033203" xlink:href="#DejaVuSans-30"/>
       <use x="222.65625" xlink:href="#DejaVuSans-30"/>
       <use x="286.279297" xlink:href="#DejaVuSans-31"/>
       <use x="349.902344" xlink:href="#DejaVuSans-35"/>
       <use x="413.525391" xlink:href="#DejaVuSans-30"/>
      </g>
     </g>
    </g>
    <g id="text_19">
     <!-- Sentiment Score -->
     <defs>
      <path d="M 9.421875 54.6875 
L 18.40625 54.6875 
L 18.40625 0 
L 9.421875 0 
z
M 9.421875 75.984375 
L 18.40625 75.984375 
L 18.40625 64.59375 
L 9.421875 64.59375 
z
" id="DejaVuSans-69"/>
      <path d="M 52 44.1875 
Q 55.375 50.25 60.0625 53.125 
Q 64.75 56 71.09375 56 
Q 79.640625 56 84.28125 50.015625 
Q 88.921875 44.046875 88.921875 33.015625 
L 88.921875 0 
L 79.890625 0 
L 79.890625 32.71875 
Q 79.890625 40.578125 77.09375 44.375 
Q 74.3125 48.1875 68.609375 48.1875 
Q 61.625 48.1875 57.5625 43.546875 
Q 53.515625 38.921875 53.515625 30.90625 
L 53.515625 0 
L 44.484375 0 
L 44.484375 32.71875 
Q 44.484375 40.625 41.703125 44.40625 
Q 38.921875 48.1875 33.109375 48.1875 
Q 26.21875 48.1875 22.15625 43.53125 
Q 18.109375 38.875 18.109375 30.90625 
L 18.109375 0 
L 9.078125 0 
L 9.078125 54.6875 
L 18.109375 54.6875 
L 18.109375 46.1875 
Q 21.1875 51.21875 25.484375 53.609375 
Q 29.78125 56 35.6875 56 
Q 41.65625 56 45.828125 52.96875 
Q 50 49.953125 52 44.1875 
z
" id="DejaVuSans-6d"/>
      <path d="M 30.609375 48.390625 
Q 23.390625 48.390625 19.1875 42.75 
Q 14.984375 37.109375 14.984375 27.296875 
Q 14.984375 17.484375 19.15625 11.84375 
Q 23.34375 6.203125 30.609375 6.203125 
Q 37.796875 6.203125 41.984375 11.859375 
Q 46.1875 17.53125 46.1875 27.296875 
Q 46.1875 37.015625 41.984375 42.703125 
Q 37.796875 48.390625 30.609375 48.390625 
z
M 30.609375 56 
Q 42.328125 56 49.015625 48.375 
Q 55.71875 40.765625 55.71875 27.296875 
Q 55.71875 13.875 49.015625 6.21875 
Q 42.328125 -1.421875 30.609375 -1.421875 
Q 18.84375 -1.421875 12.171875 6.21875 
Q 5.515625 13.875 5.515625 27.296875 
Q 5.515625 40.765625 12.171875 48.375 
Q 18.84375 56 30.609375 56 
z
" id="DejaVuSans-6f"/>
      <path d="M 41.109375 46.296875 
Q 39.59375 47.171875 37.8125 47.578125 
Q 36.03125 48 33.890625 48 
Q 26.265625 48 22.1875 43.046875 
Q 18.109375 38.09375 18.109375 28.8125 
L 18.109375 0 
L 9.078125 0 
L 9.078125 54.6875 
L 18.109375 54.6875 
L 18.109375 46.1875 
Q 20.953125 51.171875 25.484375 53.578125 
Q 30.03125 56 36.53125 56 
Q 37.453125 56 38.578125 55.875 
Q 39.703125 55.765625 41.0625 55.515625 
z
" id="DejaVuSans-72"/>
     </defs>
     <g transform="translate(25.672687 447.79875)rotate(-90)scale(0.168 -0.168)">
      <use xlink:href="#DejaVuSans-53"/>
      <use x="63.476562" xlink:href="#DejaVuSans-65"/>
      <use x="125" xlink:href="#DejaVuSans-6e"/>
      <use x="188.378906" xlink:href="#DejaVuSans-74"/>
      <use x="227.587891" xlink:href="#DejaVuSans-69"/>
      <use x="255.371094" xlink:href="#DejaVuSans-6d"/>
      <use x="352.783203" xlink:href="#DejaVuSans-65"/>
      <use x="414.306641" xlink:href="#DejaVuSans-6e"/>
      <use x="477.685547" xlink:href="#DejaVuSans-74"/>
      <use x="516.894531" xlink:href="#DejaVuSans-20"/>
      <use x="548.681641" xlink:href="#DejaVuSans-53"/>
      <use x="612.158203" xlink:href="#DejaVuSans-63"/>
      <use x="667.138672" xlink:href="#DejaVuSans-6f"/>
      <use x="728.320312" xlink:href="#DejaVuSans-72"/>
      <use x="769.402344" xlink:href="#DejaVuSans-65"/>
     </g>
    </g>
   </g>
   <g id="line2d_35">
    <path clip-path="url(#pa9cf80ab1f)" d="M 172.145455 179.412613 
L 176.61925 206.688156 
L 180.854444 231.154902 
L 184.910685 253.31542 
L 188.907276 273.926215 
L 192.903867 293.371816 
L 196.840807 311.430635 
L 200.897048 328.984476 
L 205.132242 346.321073 
L 209.725339 364.170602 
L 215.093894 384.108853 
L 222.371268 410.227923 
L 225.592401 421.152946 
L 227.262618 426.087489 
L 228.45563 428.973727 
L 229.111787 430.178865 
L 231.199558 430.877185 
L 232.869775 431.206004 
L 234.539992 431.307384 
L 235.971607 431.176464 
L 237.22427 430.841302 
L 238.476933 430.273791 
L 239.848897 429.397356 
L 241.399812 428.128548 
L 243.427933 426.15276 
L 246.768367 422.546546 
L 257.087923 411.042573 
L 258.75814 408.654059 
L 260.249405 406.13594 
L 261.800321 403.069763 
L 263.470538 399.267183 
L 265.498659 394.062588 
L 269.137346 383.955628 
L 272.656732 374.460781 
L 274.565551 369.931637 
L 276.056817 366.940281 
L 277.309479 364.909553 
L 278.32354 363.657399 
L 279.27795 362.821172 
L 280.172709 362.324177 
L 281.067468 362.084555 
L 281.962227 362.079383 
L 282.916637 362.307841 
L 283.930697 362.784204 
L 285.123709 363.598216 
L 286.555324 364.862754 
L 288.285192 366.710481 
L 291.744927 370.854807 
L 296.338024 376.166699 
L 297.94859 377.721708 
L 299.380205 378.799596 
L 300.632868 379.482723 
L 301.706579 379.832929 
L 302.660989 379.922262 
L 303.555748 379.780323 
L 304.450507 379.39641 
L 305.345266 378.755725 
L 306.299676 377.777652 
L 307.254086 376.475277 
L 308.268146 374.713794 
L 309.341857 372.395791 
L 310.534869 369.271992 
L 311.966484 364.8576 
L 313.756002 358.558391 
L 316.798183 346.869741 
L 322.166738 326.341904 
L 324.910666 316.797386 
L 327.475642 308.664882 
L 330.279221 300.552276 
L 333.500354 291.90681 
L 336.06533 285.590831 
L 337.854848 281.738428 
L 339.286463 279.149146 
L 340.479475 277.400126 
L 341.493535 276.272829 
L 342.447945 275.529536 
L 343.402355 275.070804 
L 344.356765 274.869191 
L 345.311174 274.892784 
L 346.444536 275.153012 
L 347.8165 275.703884 
L 350.202524 276.956417 
L 351.932392 277.754236 
L 353.006103 278.011593 
L 353.900862 278.012567 
L 354.735971 277.793031 
L 355.511429 277.362514 
L 356.346537 276.624355 
L 357.181646 275.571822 
L 358.076405 274.056526 
L 359.030815 271.956 
L 360.044875 269.151272 
L 361.178237 265.312364 
L 362.430899 260.207413 
L 363.802863 253.634375 
L 365.353779 245.097188 
L 367.322249 232.900791 
L 370.125828 213.968476 
L 378.11901 159.155393 
L 380.147131 147.168229 
L 381.817348 138.569219 
L 383.248962 132.293388 
L 384.561276 127.489091 
L 385.754288 123.925613 
L 386.827999 121.386632 
L 387.782409 119.680254 
L 388.617517 118.618907 
L 389.333324 118.032591 
L 389.989481 117.760632 
L 390.585987 117.735162 
L 391.182493 117.921033 
L 391.83865 118.369231 
L 392.554457 119.14836 
L 393.389566 120.429058 
L 394.343976 122.356204 
L 395.417687 125.066508 
L 396.670349 128.868502 
L 398.161615 134.138444 
L 400.070434 141.756854 
L 402.993314 154.467502 
L 410.509291 187.451236 
L 412.895315 196.89474 
L 415.162038 204.934198 
L 418.323521 215.234112 
L 421.425352 225.560419 
L 423.572774 233.527194 
L 425.600895 241.898858 
L 427.390413 250.235601 
L 429.00098 258.794374 
L 430.551896 268.236884 
L 432.222113 279.845801 
L 434.011631 293.899117 
L 436.039752 311.620001 
L 438.425776 334.518748 
L 441.408307 365.460521 
L 447.55232 429.796306 
L 449.640091 448.96509 
L 451.369959 462.913002 
L 452.920874 473.69224 
L 454.292838 481.773692 
L 455.545501 487.912022 
L 456.678863 492.400454 
L 457.692923 495.538393 
L 458.587682 497.61987 
L 459.36314 498.905231 
L 460.019297 499.617066 
L 460.615803 499.967041 
L 461.152659 500.043774 
L 461.689514 499.900077 
L 462.28602 499.490381 
L 462.942177 498.749775 
L 463.717635 497.509407 
L 464.612394 495.636932 
L 465.686105 492.849374 
L 466.938768 488.953832 
L 468.489684 483.372889 
L 470.577455 474.948921 
L 473.97754 460.17951 
L 478.689938 439.812635 
L 482.328625 425.354707 
L 485.609408 413.201364 
L 488.830541 402.118662 
L 491.276216 394.410041 
L 493.304337 388.723204 
L 495.153506 384.17818 
L 496.943024 380.355717 
L 498.672892 377.167388 
L 500.879965 373.610717 
L 514.062749 353.605865 
L 515.792617 351.522242 
L 517.283882 350.063026 
L 518.536545 349.138511 
L 519.610256 348.612024 
L 520.624316 348.36503 
L 521.578726 348.366477 
L 522.473485 348.58668 
L 523.368244 349.032996 
L 524.322654 349.764529 
L 525.336715 350.830561 
L 526.470076 352.369194 
L 527.663088 354.377696 
L 528.975402 357.036762 
L 530.407016 360.457976 
L 531.957932 364.754529 
L 533.747451 370.397714 
L 536.431728 379.7049 
L 544.305608 407.374575 
L 546.631982 414.612236 
L 548.660103 420.213004 
L 550.270669 424.038376 
L 551.702284 426.887133 
L 553.074248 429.14054 
L 554.386561 430.87525 
L 555.639224 432.162354 
L 556.891887 433.129251 
L 558.084899 433.769586 
L 559.277911 434.150047 
L 560.590225 434.323266 
L 561.902538 434.273369 
L 563.274502 433.997122 
L 564.765768 433.465757 
L 566.555286 432.581251 
L 570.492226 430.296449 
L 573.653708 428.566975 
L 577.113444 426.949422 
L 579.439818 426.094797 
L 581.348637 425.626497 
L 583.078505 425.42958 
L 584.629421 425.472336 
L 586.061035 425.728474 
L 587.432999 426.202885 
L 588.804963 426.926485 
L 590.176927 427.909726 
L 591.489241 429.13021 
L 592.861205 430.728073 
L 594.531422 433.043913 
L 596.738494 436.529827 
L 602.1667 445.279326 
L 603.956218 447.630109 
L 605.686086 449.535253 
L 607.535255 451.232338 
L 610.100231 453.258319 
L 613.142412 455.699564 
L 615.170533 457.651631 
L 617.139003 459.864879 
L 619.286425 462.627506 
L 621.254895 465.520274 
L 623.223365 468.820299 
L 625.251486 472.669364 
L 627.756811 477.934009 
L 631.097246 485.534523 
L 634.139427 492.940311 
L 636.764053 499.91841 
L 639.32903 507.393282 
L 642.729114 518.067276 
L 649.350332 539.024168 
L 651.617055 545.319409 
L 653.525875 549.99616 
L 655.315393 553.82382 
L 657.164562 557.260158 
L 658.95408 560.122227 
L 661.459406 563.62495 
L 664.561238 568.089046 
L 667.484117 572.693996 
L 670.466648 577.81075 
L 673.389528 583.261132 
L 676.431709 589.41398 
L 681.263408 599.77565 
L 689.614494 617.757542 
L 691.761916 621.65729 
L 693.790036 624.890386 
L 695.698856 627.516593 
L 697.667326 629.839607 
L 700.05335 632.29326 
L 704.288544 636.259169 
L 707.986881 639.433834 
L 710.671159 641.473339 
L 712.222075 642.393448 
L 713.474738 642.890813 
L 714.548449 643.081776 
L 715.562509 643.02896 
L 716.516919 642.755187 
L 717.530979 642.218794 
L 718.545039 641.425276 
L 719.61875 640.302292 
L 720.811763 638.714904 
L 722.124076 636.578795 
L 723.555691 633.802389 
L 725.166257 630.17148 
L 727.254028 624.868911 
L 730.892716 614.865192 
L 736.320921 599.99377 
L 738.349042 595.138788 
L 740.078909 591.573118 
L 741.689476 588.757607 
L 743.240392 586.490222 
L 744.910609 584.460943 
L 747.177332 582.088914 
L 750.458116 578.658801 
L 752.247634 576.433796 
L 753.917851 573.99593 
L 755.528417 571.252962 
L 757.317936 567.741334 
L 759.346056 563.255083 
L 761.851382 557.136564 
L 765.072515 548.636895 
L 769.904214 535.853241 
L 772.40954 529.913057 
L 774.735914 524.946362 
L 776.704384 521.236755 
L 778.374601 518.529063 
L 779.985167 516.343227 
L 781.595734 514.534922 
L 783.2063 513.064448 
L 784.816867 511.898742 
L 786.427433 511.0134 
L 787.978349 510.415946 
L 789.648566 510.017191 
L 791.557386 509.798081 
L 794.241663 509.726708 
L 796.806639 509.883684 
L 802.234845 510.339977 
L 803.666459 510.1556 
L 804.978773 509.755345 
L 806.231436 509.134084 
L 807.484098 508.255875 
L 808.736761 507.098602 
L 809.989424 505.638881 
L 811.361388 503.692459 
L 812.912304 501.082581 
L 814.582521 497.815978 
L 816.193087 494.157551 
L 817.922955 489.64351 
L 820.010726 483.516313 
L 827.467053 460.976062 
L 831.523294 449.888047 
L 834.684776 441.852454 
L 837.249753 435.899574 
L 839.695428 430.792017 
L 844.586778 421.22835 
L 853.415068 403.99987 
L 855.085285 400.120554 
L 856.755502 395.664469 
L 858.723972 389.739278 
L 861.109997 381.789369 
L 867.731214 359.307175 
L 869.938287 352.812497 
L 872.085709 347.158173 
L 874.054179 342.580651 
L 875.784047 339.093957 
L 877.394613 336.324695 
L 879.005179 333.984965 
L 880.556095 332.110904 
L 881.928059 330.789354 
L 883.061421 329.981042 
L 884.075481 329.511248 
L 885.029891 329.309488 
L 885.92465 329.343617 
L 886.819409 329.594567 
L 887.773819 330.087598 
L 888.84753 330.901694 
L 889.980892 332.044583 
L 891.173904 333.572826 
L 892.366916 335.473229 
L 893.679229 338.003131 
L 895.051193 341.135511 
L 896.542459 345.101798 
L 898.153025 350.035387 
L 899.882893 356.062942 
L 901.791712 363.535279 
L 904.058436 373.350828 
L 906.921665 386.831137 
L 915.332401 427.021799 
L 917.957028 438.010351 
L 920.462353 447.562116 
L 922.908028 456.023115 
L 925.115101 462.878343 
L 927.083571 468.297988 
L 928.99239 472.940328 
L 930.722258 476.587307 
L 932.213523 479.230328 
L 933.585487 481.214623 
L 934.778499 482.559668 
L 935.85221 483.456609 
L 936.925921 484.071368 
L 937.999632 484.431289 
L 939.013693 484.549041 
L 940.027753 484.453805 
L 941.101464 484.126377 
L 942.234826 483.544847 
L 943.547139 482.612379 
L 945.157706 481.174865 
L 947.126176 479.109595 
L 948.915694 476.915607 
L 950.764863 474.282577 
L 952.912285 470.82913 
L 954.821104 467.344733 
L 956.491321 463.839064 
L 958.101888 459.926428 
L 959.772105 455.257662 
L 961.561623 449.5675 
L 963.709045 441.960401 
L 967.645985 426.965044 
L 971.04607 413.389937 
L 973.253143 403.658893 
L 975.340914 393.427892 
L 977.667288 380.84089 
L 980.590168 363.671168 
L 986.793831 325.518236 
L 990.313217 302.408013 
L 997.292338 256.111966 
L 999.320459 244.309993 
L 1001.050327 235.516275 
L 1002.660893 228.420061 
L 1004.092508 223.044799 
L 1005.404821 218.953955 
L 1006.597834 215.954283 
L 1007.671545 213.838348 
L 1008.625954 212.436158 
L 1009.461063 211.595603 
L 1010.17687 211.168629 
L 1010.892677 211.005395 
L 1011.548834 211.076556 
L 1012.264641 211.382675 
L 1013.040099 211.967794 
L 1013.934859 212.946968 
L 1014.948919 214.414647 
L 1016.141931 216.555039 
L 1017.871799 220.165056 
L 1022.226293 229.436587 
L 1023.657908 231.879992 
L 1024.85092 233.518563 
L 1025.864981 234.572332 
L 1026.75974 235.214946 
L 1027.594848 235.55791 
L 1028.370306 235.649276 
L 1029.145764 235.526965 
L 1029.980873 235.174206 
L 1030.935282 234.529081 
L 1032.068644 233.489616 
L 1033.559909 231.793524 
L 1036.54244 227.949958 
L 1038.689862 225.37615 
L 1040.240777 223.848944 
L 1041.49344 222.911045 
L 1042.567151 222.379407 
L 1043.46191 222.177202 
L 1044.297019 222.215556 
L 1045.132127 222.484779 
L 1045.967236 222.998335 
L 1046.861995 223.831831 
L 1047.816405 225.052795 
L 1048.830465 226.731223 
L 1049.963827 229.073142 
L 1051.156839 232.064803 
L 1052.469152 235.964033 
L 1053.960418 241.123892 
L 1055.630635 247.750178 
L 1057.420153 255.795846 
L 1059.269322 265.145103 
L 1061.357093 276.899627 
L 1064.518576 296.159401 
L 1068.753769 321.769022 
L 1070.960841 333.764378 
L 1072.75036 342.29816 
L 1074.301276 348.653289 
L 1075.73289 353.641305 
L 1077.104854 357.66101 
L 1078.417168 360.829837 
L 1079.61018 363.159544 
L 1080.743541 364.900633 
L 1081.817252 366.162308 
L 1082.831313 367.032866 
L 1083.845373 367.613573 
L 1084.799783 367.907477 
L 1085.694542 367.960966 
L 1086.648952 367.787431 
L 1087.603362 367.386077 
L 1088.677073 366.681877 
L 1089.929735 365.567514 
L 1091.659603 363.688178 
L 1094.701784 360.340374 
L 1095.954447 359.316477 
L 1097.028158 358.708484 
L 1097.982568 358.401843 
L 1098.877327 358.334289 
L 1099.772086 358.48429 
L 1100.726496 358.874143 
L 1101.740556 359.528928 
L 1102.933568 360.580527 
L 1104.365183 362.161426 
L 1106.572255 364.97522 
L 1111.582907 371.451409 
L 1113.372425 373.366446 
L 1114.744389 374.541658 
L 1115.8181 375.193484 
L 1116.83216 375.555387 
L 1117.78657 375.660326 
L 1118.74098 375.53035 
L 1119.69539 375.162053 
L 1120.649799 374.552803 
L 1121.66386 373.635697 
L 1122.737571 372.354912 
L 1123.930583 370.578918 
L 1125.302547 368.120817 
L 1126.913113 364.743313 
L 1129.716692 358.20731 
L 1132.281668 352.489647 
L 1134.011536 349.156888 
L 1135.502801 346.764707 
L 1136.815115 345.065148 
L 1138.008127 343.877653 
L 1139.141488 343.068437 
L 1140.27485 342.531522 
L 1141.527513 342.197014 
L 1143.317031 341.986928 
L 1146.538164 341.601158 
L 1148.327682 341.1528 
L 1149.997899 340.509073 
L 1151.668116 339.62017 
L 1153.457635 338.400729 
L 1155.605057 336.644421 
L 1158.289334 334.149739 
L 1159.84025 332.404756 
L 1161.212214 330.515082 
L 1162.584178 328.235226 
L 1163.956142 325.504375 
L 1165.328106 322.273867 
L 1166.70007 318.48721 
L 1168.131685 313.878408 
L 1169.742251 307.912667 
L 1171.59142 300.186997 
L 1173.619541 290.736755 
L 1175.647661 280.164004 
L 1177.914385 267.102016 
L 1180.896915 248.468813 
L 1186.742675 211.684845 
L 1189.128699 198.284264 
L 1191.276121 187.464699 
L 1193.12529 179.260385 
L 1195.09376 171.562215 
L 1197.718387 162.259462 
L 1202.132532 147.545837 
L 1206.84493 132.530597 
L 1208.992352 126.377751 
L 1210.781871 121.911962 
L 1212.332786 118.626221 
L 1213.6451 116.337384 
L 1214.778461 114.783139 
L 1215.732871 113.815435 
L 1216.62763 113.216476 
L 1217.403088 112.952649 
L 1218.178546 112.927683 
L 1218.954004 113.139183 
L 1219.729462 113.584491 
L 1220.564571 114.326164 
L 1221.45933 115.422477 
L 1222.47339 117.041429 
L 1223.547101 119.197838 
L 1224.680463 121.97551 
L 1225.933125 125.650085 
L 1227.245439 130.197124 
L 1228.677053 135.972165 
L 1230.227969 143.195034 
L 1231.838536 151.815708 
L 1233.449102 161.656878 
L 1235.119319 173.239109 
L 1236.968488 187.661401 
L 1239.235211 207.167676 
L 1242.873899 240.729905 
L 1247.288044 280.90099 
L 1250.509177 308.106391 
L 1254.147864 336.984388 
L 1255.460177 344.187329 
L 1256.71284 349.860495 
L 1257.965503 354.513549 
L 1259.277816 358.520544 
L 1260.64978 361.990889 
L 1262.141046 365.148418 
L 1263.751612 368.034327 
L 1265.54113 370.777552 
L 1267.5096 373.384382 
L 1269.716673 375.930684 
L 1272.102697 378.345151 
L 1274.667674 380.623738 
L 1277.23265 382.607032 
L 1279.678325 384.224391 
L 1282.004699 385.502073 
L 1284.15212 386.433514 
L 1286.180241 387.069504 
L 1288.089061 387.433408 
L 1289.878579 387.549699 
L 1291.608447 387.435184 
L 1293.219013 387.11039 
L 1294.82958 386.56206 
L 1296.440146 385.780887 
L 1298.110363 384.716884 
L 1299.78058 383.385578 
L 1301.510448 381.714438 
L 1303.240316 379.734023 
L 1305.029834 377.346006 
L 1306.879003 374.499968 
L 1308.787822 371.141974 
L 1310.756292 367.226811 
L 1311.054545 366.593702 
L 1311.054545 366.593702 
" style="fill:none;stroke:#008fd5;stroke-width:4;"/>
   </g>
   <g id="patch_3">
    <path d="M 115.2 669.6 
L 115.2 86.4 
" style="fill:none;stroke:#f0f0f0;stroke-linecap:square;stroke-linejoin:miter;stroke-width:3;"/>
   </g>
   <g id="patch_4">
    <path d="M 1368 669.6 
L 1368 86.4 
" style="fill:none;stroke:#f0f0f0;stroke-linecap:square;stroke-linejoin:miter;stroke-width:3;"/>
   </g>
   <g id="patch_5">
    <path d="M 115.2 669.6 
L 1368 669.6 
" style="fill:none;stroke:#f0f0f0;stroke-linecap:square;stroke-linejoin:miter;stroke-width:3;"/>
   </g>
   <g id="patch_6">
    <path d="M 115.2 86.4 
L 1368 86.4 
" style="fill:none;stroke:#f0f0f0;stroke-linecap:square;stroke-linejoin:miter;stroke-width:3;"/>
   </g>
   <g id="legend_1">
    <g id="patch_7">
     <path d="M 125 118.149375 
L 285.306562 118.149375 
Q 288.106562 118.149375 288.106562 115.349375 
L 288.106562 96.2 
Q 288.106562 93.4 285.306562 93.4 
L 125 93.4 
Q 122.2 93.4 122.2 96.2 
L 122.2 115.349375 
Q 122.2 118.149375 125 118.149375 
z
" style="fill:#f0f0f0;opacity:0.8;stroke:#cccccc;stroke-linejoin:miter;stroke-width:0.5;"/>
    </g>
    <g id="line2d_36">
     <path d="M 127.8 104.737812 
L 155.8 104.737812 
" style="fill:none;stroke:#008fd5;stroke-width:4;"/>
    </g>
    <g id="line2d_37"/>
    <g id="text_20">
     <!-- Dark Tower, The -->
     <defs>
      <path d="M 19.671875 64.796875 
L 19.671875 8.109375 
L 31.59375 8.109375 
Q 46.6875 8.109375 53.6875 14.9375 
Q 60.6875 21.78125 60.6875 36.53125 
Q 60.6875 51.171875 53.6875 57.984375 
Q 46.6875 64.796875 31.59375 64.796875 
z
M 9.8125 72.90625 
L 30.078125 72.90625 
Q 51.265625 72.90625 61.171875 64.09375 
Q 71.09375 55.28125 71.09375 36.53125 
Q 71.09375 17.671875 61.125 8.828125 
Q 51.171875 0 30.078125 0 
L 9.8125 0 
z
" id="DejaVuSans-44"/>
      <path d="M 34.28125 27.484375 
Q 23.390625 27.484375 19.1875 25 
Q 14.984375 22.515625 14.984375 16.5 
Q 14.984375 11.71875 18.140625 8.90625 
Q 21.296875 6.109375 26.703125 6.109375 
Q 34.1875 6.109375 38.703125 11.40625 
Q 43.21875 16.703125 43.21875 25.484375 
L 43.21875 27.484375 
z
M 52.203125 31.203125 
L 52.203125 0 
L 43.21875 0 
L 43.21875 8.296875 
Q 40.140625 3.328125 35.546875 0.953125 
Q 30.953125 -1.421875 24.3125 -1.421875 
Q 15.921875 -1.421875 10.953125 3.296875 
Q 6 8.015625 6 15.921875 
Q 6 25.140625 12.171875 29.828125 
Q 18.359375 34.515625 30.609375 34.515625 
L 43.21875 34.515625 
L 43.21875 35.40625 
Q 43.21875 41.609375 39.140625 45 
Q 35.0625 48.390625 27.6875 48.390625 
Q 23 48.390625 18.546875 47.265625 
Q 14.109375 46.140625 10.015625 43.890625 
L 10.015625 52.203125 
Q 14.9375 54.109375 19.578125 55.046875 
Q 24.21875 56 28.609375 56 
Q 40.484375 56 46.34375 49.84375 
Q 52.203125 43.703125 52.203125 31.203125 
z
" id="DejaVuSans-61"/>
      <path d="M 9.078125 75.984375 
L 18.109375 75.984375 
L 18.109375 31.109375 
L 44.921875 54.6875 
L 56.390625 54.6875 
L 27.390625 29.109375 
L 57.625 0 
L 45.90625 0 
L 18.109375 26.703125 
L 18.109375 0 
L 9.078125 0 
z
" id="DejaVuSans-6b"/>
      <path d="M -0.296875 72.90625 
L 61.375 72.90625 
L 61.375 64.59375 
L 35.5 64.59375 
L 35.5 0 
L 25.59375 0 
L 25.59375 64.59375 
L -0.296875 64.59375 
z
" id="DejaVuSans-54"/>
      <path d="M 4.203125 54.6875 
L 13.1875 54.6875 
L 24.421875 12.015625 
L 35.59375 54.6875 
L 46.1875 54.6875 
L 57.421875 12.015625 
L 68.609375 54.6875 
L 77.59375 54.6875 
L 63.28125 0 
L 52.6875 0 
L 40.921875 44.828125 
L 29.109375 0 
L 18.5 0 
z
" id="DejaVuSans-77"/>
      <path d="M 11.71875 12.40625 
L 22.015625 12.40625 
L 22.015625 4 
L 14.015625 -11.625 
L 7.71875 -11.625 
L 11.71875 4 
z
" id="DejaVuSans-2c"/>
      <path d="M 54.890625 33.015625 
L 54.890625 0 
L 45.90625 0 
L 45.90625 32.71875 
Q 45.90625 40.484375 42.875 44.328125 
Q 39.84375 48.1875 33.796875 48.1875 
Q 26.515625 48.1875 22.3125 43.546875 
Q 18.109375 38.921875 18.109375 30.90625 
L 18.109375 0 
L 9.078125 0 
L 9.078125 75.984375 
L 18.109375 75.984375 
L 18.109375 46.1875 
Q 21.34375 51.125 25.703125 53.5625 
Q 30.078125 56 35.796875 56 
Q 45.21875 56 50.046875 50.171875 
Q 54.890625 44.34375 54.890625 33.015625 
z
" id="DejaVuSans-68"/>
     </defs>
     <g transform="translate(167 109.637812)scale(0.14 -0.14)">
      <use xlink:href="#DejaVuSans-44"/>
      <use x="77.001953" xlink:href="#DejaVuSans-61"/>
      <use x="138.28125" xlink:href="#DejaVuSans-72"/>
      <use x="179.394531" xlink:href="#DejaVuSans-6b"/>
      <use x="237.304688" xlink:href="#DejaVuSans-20"/>
      <use x="269.091797" xlink:href="#DejaVuSans-54"/>
      <use x="329.910156" xlink:href="#DejaVuSans-6f"/>
      <use x="391.091797" xlink:href="#DejaVuSans-77"/>
      <use x="472.878906" xlink:href="#DejaVuSans-65"/>
      <use x="534.402344" xlink:href="#DejaVuSans-72"/>
      <use x="575.515625" xlink:href="#DejaVuSans-2c"/>
      <use x="607.302734" xlink:href="#DejaVuSans-20"/>
      <use x="639.089844" xlink:href="#DejaVuSans-54"/>
      <use x="700.173828" xlink:href="#DejaVuSans-68"/>
      <use x="763.552734" xlink:href="#DejaVuSans-65"/>
     </g>
    </g>
   </g>
  </g>
 </g>
 <defs>
  <clipPath id="pa9cf80ab1f">
   <rect height="583.2" width="1252.8" x="115.2" y="86.4"/>
  </clipPath>
 </defs>
</svg>
