<?xml version="1.0" encoding="utf-8" standalone="no"?>
<!DOCTYPE svg PUBLIC "-//W3C//DTD SVG 1.1//EN"
  "http://www.w3.org/Graphics/SVG/1.1/DTD/svg11.dtd">
<!-- Created with matplotlib (http://matplotlib.org/) -->
<svg height="720pt" version="1.1" viewBox="0 0 1440 720" width="1440pt" xmlns="http://www.w3.org/2000/svg" xmlns:xlink="http://www.w3.org/1999/xlink">
 <defs>
  <style type="text/css">
*{stroke-linecap:butt;stroke-linejoin:round;}
  </style>
 </defs>
 <g id="figure_1">
  <g id="patch_1">
   <path d="M 0 720 
L 1440 720 
L 1440 0 
L 0 0 
z
" style="fill:#f0f0f0;"/>
  </g>
  <g id="axes_1">
   <g id="patch_2">
    <path d="M 115.2 669.6 
L 1368 669.6 
L 1368 86.4 
L 115.2 86.4 
z
" style="fill:#f0f0f0;"/>
   </g>
   <g id="matplotlib.axis_1">
    <g id="xtick_1">
     <g id="line2d_1">
      <path clip-path="url(#p69e8b9bc6d)" d="M 172.145455 669.6 
L 172.145455 86.4 
" style="fill:none;stroke:#cbcbcb;"/>
     </g>
     <g id="line2d_2"/>
     <g id="text_1">
      <!-- 0 -->
      <defs>
       <path d="M 31.78125 66.40625 
Q 24.171875 66.40625 20.328125 58.90625 
Q 16.5 51.421875 16.5 36.375 
Q 16.5 21.390625 20.328125 13.890625 
Q 24.171875 6.390625 31.78125 6.390625 
Q 39.453125 6.390625 43.28125 13.890625 
Q 47.125 21.390625 47.125 36.375 
Q 47.125 51.421875 43.28125 58.90625 
Q 39.453125 66.40625 31.78125 66.40625 
z
M 31.78125 74.21875 
Q 44.046875 74.21875 50.515625 64.515625 
Q 56.984375 54.828125 56.984375 36.375 
Q 56.984375 17.96875 50.515625 8.265625 
Q 44.046875 -1.421875 31.78125 -1.421875 
Q 19.53125 -1.421875 13.0625 8.265625 
Q 6.59375 17.96875 6.59375 36.375 
Q 6.59375 54.828125 13.0625 64.515625 
Q 19.53125 74.21875 31.78125 74.21875 
z
" id="DejaVuSans-30"/>
      </defs>
      <g transform="translate(167.691705 683.737813)scale(0.14 -0.14)">
       <use xlink:href="#DejaVuSans-30"/>
      </g>
     </g>
    </g>
    <g id="xtick_2">
     <g id="line2d_3">
      <path clip-path="url(#p69e8b9bc6d)" d="M 446.317118 669.6 
L 446.317118 86.4 
" style="fill:none;stroke:#cbcbcb;"/>
     </g>
     <g id="line2d_4"/>
     <g id="text_2">
      <!-- 1000 -->
      <defs>
       <path d="M 12.40625 8.296875 
L 28.515625 8.296875 
L 28.515625 63.921875 
L 10.984375 60.40625 
L 10.984375 69.390625 
L 28.421875 72.90625 
L 38.28125 72.90625 
L 38.28125 8.296875 
L 54.390625 8.296875 
L 54.390625 0 
L 12.40625 0 
z
" id="DejaVuSans-31"/>
      </defs>
      <g transform="translate(428.502118 683.737813)scale(0.14 -0.14)">
       <use xlink:href="#DejaVuSans-31"/>
       <use x="63.623047" xlink:href="#DejaVuSans-30"/>
       <use x="127.246094" xlink:href="#DejaVuSans-30"/>
       <use x="190.869141" xlink:href="#DejaVuSans-30"/>
      </g>
     </g>
    </g>
    <g id="xtick_3">
     <g id="line2d_5">
      <path clip-path="url(#p69e8b9bc6d)" d="M 720.488782 669.6 
L 720.488782 86.4 
" style="fill:none;stroke:#cbcbcb;"/>
     </g>
     <g id="line2d_6"/>
     <g id="text_3">
      <!-- 2000 -->
      <defs>
       <path d="M 19.1875 8.296875 
L 53.609375 8.296875 
L 53.609375 0 
L 7.328125 0 
L 7.328125 8.296875 
Q 12.9375 14.109375 22.625 23.890625 
Q 32.328125 33.6875 34.8125 36.53125 
Q 39.546875 41.84375 41.421875 45.53125 
Q 43.3125 49.21875 43.3125 52.78125 
Q 43.3125 58.59375 39.234375 62.25 
Q 35.15625 65.921875 28.609375 65.921875 
Q 23.96875 65.921875 18.8125 64.3125 
Q 13.671875 62.703125 7.8125 59.421875 
L 7.8125 69.390625 
Q 13.765625 71.78125 18.9375 73 
Q 24.125 74.21875 28.421875 74.21875 
Q 39.75 74.21875 46.484375 68.546875 
Q 53.21875 62.890625 53.21875 53.421875 
Q 53.21875 48.921875 51.53125 44.890625 
Q 49.859375 40.875 45.40625 35.40625 
Q 44.1875 33.984375 37.640625 27.21875 
Q 31.109375 20.453125 19.1875 8.296875 
z
" id="DejaVuSans-32"/>
      </defs>
      <g transform="translate(702.673782 683.737813)scale(0.14 -0.14)">
       <use xlink:href="#DejaVuSans-32"/>
       <use x="63.623047" xlink:href="#DejaVuSans-30"/>
       <use x="127.246094" xlink:href="#DejaVuSans-30"/>
       <use x="190.869141" xlink:href="#DejaVuSans-30"/>
      </g>
     </g>
    </g>
    <g id="xtick_4">
     <g id="line2d_7">
      <path clip-path="url(#p69e8b9bc6d)" d="M 994.660446 669.6 
L 994.660446 86.4 
" style="fill:none;stroke:#cbcbcb;"/>
     </g>
     <g id="line2d_8"/>
     <g id="text_4">
      <!-- 3000 -->
      <defs>
       <path d="M 40.578125 39.3125 
Q 47.65625 37.796875 51.625 33 
Q 55.609375 28.21875 55.609375 21.1875 
Q 55.609375 10.40625 48.1875 4.484375 
Q 40.765625 -1.421875 27.09375 -1.421875 
Q 22.515625 -1.421875 17.65625 -0.515625 
Q 12.796875 0.390625 7.625 2.203125 
L 7.625 11.71875 
Q 11.71875 9.328125 16.59375 8.109375 
Q 21.484375 6.890625 26.8125 6.890625 
Q 36.078125 6.890625 40.9375 10.546875 
Q 45.796875 14.203125 45.796875 21.1875 
Q 45.796875 27.640625 41.28125 31.265625 
Q 36.765625 34.90625 28.71875 34.90625 
L 20.21875 34.90625 
L 20.21875 43.015625 
L 29.109375 43.015625 
Q 36.375 43.015625 40.234375 45.921875 
Q 44.09375 48.828125 44.09375 54.296875 
Q 44.09375 59.90625 40.109375 62.90625 
Q 36.140625 65.921875 28.71875 65.921875 
Q 24.65625 65.921875 20.015625 65.03125 
Q 15.375 64.15625 9.8125 62.3125 
L 9.8125 71.09375 
Q 15.4375 72.65625 20.34375 73.4375 
Q 25.25 74.21875 29.59375 74.21875 
Q 40.828125 74.21875 47.359375 69.109375 
Q 53.90625 64.015625 53.90625 55.328125 
Q 53.90625 49.265625 50.4375 45.09375 
Q 46.96875 40.921875 40.578125 39.3125 
z
" id="DejaVuSans-33"/>
      </defs>
      <g transform="translate(976.845446 683.737813)scale(0.14 -0.14)">
       <use xlink:href="#DejaVuSans-33"/>
       <use x="63.623047" xlink:href="#DejaVuSans-30"/>
       <use x="127.246094" xlink:href="#DejaVuSans-30"/>
       <use x="190.869141" xlink:href="#DejaVuSans-30"/>
      </g>
     </g>
    </g>
    <g id="xtick_5">
     <g id="line2d_9">
      <path clip-path="url(#p69e8b9bc6d)" d="M 1268.832109 669.6 
L 1268.832109 86.4 
" style="fill:none;stroke:#cbcbcb;"/>
     </g>
     <g id="line2d_10"/>
     <g id="text_5">
      <!-- 4000 -->
      <defs>
       <path d="M 37.796875 64.3125 
L 12.890625 25.390625 
L 37.796875 25.390625 
z
M 35.203125 72.90625 
L 47.609375 72.90625 
L 47.609375 25.390625 
L 58.015625 25.390625 
L 58.015625 17.1875 
L 47.609375 17.1875 
L 47.609375 0 
L 37.796875 0 
L 37.796875 17.1875 
L 4.890625 17.1875 
L 4.890625 26.703125 
z
" id="DejaVuSans-34"/>
      </defs>
      <g transform="translate(1251.017109 683.737813)scale(0.14 -0.14)">
       <use xlink:href="#DejaVuSans-34"/>
       <use x="63.623047" xlink:href="#DejaVuSans-30"/>
       <use x="127.246094" xlink:href="#DejaVuSans-30"/>
       <use x="190.869141" xlink:href="#DejaVuSans-30"/>
      </g>
     </g>
    </g>
    <g id="text_6">
     <!-- Sentence # -->
     <defs>
      <path d="M 53.515625 70.515625 
L 53.515625 60.890625 
Q 47.90625 63.578125 42.921875 64.890625 
Q 37.9375 66.21875 33.296875 66.21875 
Q 25.25 66.21875 20.875 63.09375 
Q 16.5 59.96875 16.5 54.203125 
Q 16.5 49.359375 19.40625 46.890625 
Q 22.3125 44.4375 30.421875 42.921875 
L 36.375 41.703125 
Q 47.40625 39.59375 52.65625 34.296875 
Q 57.90625 29 57.90625 20.125 
Q 57.90625 9.515625 50.796875 4.046875 
Q 43.703125 -1.421875 29.984375 -1.421875 
Q 24.8125 -1.421875 18.96875 -0.25 
Q 13.140625 0.921875 6.890625 3.21875 
L 6.890625 13.375 
Q 12.890625 10.015625 18.65625 8.296875 
Q 24.421875 6.59375 29.984375 6.59375 
Q 38.421875 6.59375 43.015625 9.90625 
Q 47.609375 13.234375 47.609375 19.390625 
Q 47.609375 24.75 44.3125 27.78125 
Q 41.015625 30.8125 33.5 32.328125 
L 27.484375 33.5 
Q 16.453125 35.6875 11.515625 40.375 
Q 6.59375 45.0625 6.59375 53.421875 
Q 6.59375 63.09375 13.40625 68.65625 
Q 20.21875 74.21875 32.171875 74.21875 
Q 37.3125 74.21875 42.625 73.28125 
Q 47.953125 72.359375 53.515625 70.515625 
z
" id="DejaVuSans-53"/>
      <path d="M 56.203125 29.59375 
L 56.203125 25.203125 
L 14.890625 25.203125 
Q 15.484375 15.921875 20.484375 11.0625 
Q 25.484375 6.203125 34.421875 6.203125 
Q 39.59375 6.203125 44.453125 7.46875 
Q 49.3125 8.734375 54.109375 11.28125 
L 54.109375 2.78125 
Q 49.265625 0.734375 44.1875 -0.34375 
Q 39.109375 -1.421875 33.890625 -1.421875 
Q 20.796875 -1.421875 13.15625 6.1875 
Q 5.515625 13.8125 5.515625 26.8125 
Q 5.515625 40.234375 12.765625 48.109375 
Q 20.015625 56 32.328125 56 
Q 43.359375 56 49.78125 48.890625 
Q 56.203125 41.796875 56.203125 29.59375 
z
M 47.21875 32.234375 
Q 47.125 39.59375 43.09375 43.984375 
Q 39.0625 48.390625 32.421875 48.390625 
Q 24.90625 48.390625 20.390625 44.140625 
Q 15.875 39.890625 15.1875 32.171875 
z
" id="DejaVuSans-65"/>
      <path d="M 54.890625 33.015625 
L 54.890625 0 
L 45.90625 0 
L 45.90625 32.71875 
Q 45.90625 40.484375 42.875 44.328125 
Q 39.84375 48.1875 33.796875 48.1875 
Q 26.515625 48.1875 22.3125 43.546875 
Q 18.109375 38.921875 18.109375 30.90625 
L 18.109375 0 
L 9.078125 0 
L 9.078125 54.6875 
L 18.109375 54.6875 
L 18.109375 46.1875 
Q 21.34375 51.125 25.703125 53.5625 
Q 30.078125 56 35.796875 56 
Q 45.21875 56 50.046875 50.171875 
Q 54.890625 44.34375 54.890625 33.015625 
z
" id="DejaVuSans-6e"/>
      <path d="M 18.3125 70.21875 
L 18.3125 54.6875 
L 36.8125 54.6875 
L 36.8125 47.703125 
L 18.3125 47.703125 
L 18.3125 18.015625 
Q 18.3125 11.328125 20.140625 9.421875 
Q 21.96875 7.515625 27.59375 7.515625 
L 36.8125 7.515625 
L 36.8125 0 
L 27.59375 0 
Q 17.1875 0 13.234375 3.875 
Q 9.28125 7.765625 9.28125 18.015625 
L 9.28125 47.703125 
L 2.6875 47.703125 
L 2.6875 54.6875 
L 9.28125 54.6875 
L 9.28125 70.21875 
z
" id="DejaVuSans-74"/>
      <path d="M 48.78125 52.59375 
L 48.78125 44.1875 
Q 44.96875 46.296875 41.140625 47.34375 
Q 37.3125 48.390625 33.40625 48.390625 
Q 24.65625 48.390625 19.8125 42.84375 
Q 14.984375 37.3125 14.984375 27.296875 
Q 14.984375 17.28125 19.8125 11.734375 
Q 24.65625 6.203125 33.40625 6.203125 
Q 37.3125 6.203125 41.140625 7.25 
Q 44.96875 8.296875 48.78125 10.40625 
L 48.78125 2.09375 
Q 45.015625 0.34375 40.984375 -0.53125 
Q 36.96875 -1.421875 32.421875 -1.421875 
Q 20.0625 -1.421875 12.78125 6.34375 
Q 5.515625 14.109375 5.515625 27.296875 
Q 5.515625 40.671875 12.859375 48.328125 
Q 20.21875 56 33.015625 56 
Q 37.15625 56 41.109375 55.140625 
Q 45.0625 54.296875 48.78125 52.59375 
z
" id="DejaVuSans-63"/>
      <path id="DejaVuSans-20"/>
      <path d="M 51.125 44 
L 36.921875 44 
L 32.8125 27.6875 
L 47.125 27.6875 
z
M 43.796875 71.78125 
L 38.71875 51.515625 
L 52.984375 51.515625 
L 58.109375 71.78125 
L 65.921875 71.78125 
L 60.890625 51.515625 
L 76.125 51.515625 
L 76.125 44 
L 58.984375 44 
L 54.984375 27.6875 
L 70.515625 27.6875 
L 70.515625 20.21875 
L 53.078125 20.21875 
L 48 0 
L 40.1875 0 
L 45.21875 20.21875 
L 30.90625 20.21875 
L 25.875 0 
L 18.015625 0 
L 23.09375 20.21875 
L 7.71875 20.21875 
L 7.71875 27.6875 
L 24.90625 27.6875 
L 29 44 
L 13.28125 44 
L 13.28125 51.515625 
L 30.90625 51.515625 
L 35.890625 71.78125 
z
" id="DejaVuSans-23"/>
     </defs>
     <g transform="translate(692.494125 703.41475)scale(0.168 -0.168)">
      <use xlink:href="#DejaVuSans-53"/>
      <use x="63.476562" xlink:href="#DejaVuSans-65"/>
      <use x="125" xlink:href="#DejaVuSans-6e"/>
      <use x="188.378906" xlink:href="#DejaVuSans-74"/>
      <use x="227.587891" xlink:href="#DejaVuSans-65"/>
      <use x="289.111328" xlink:href="#DejaVuSans-6e"/>
      <use x="352.490234" xlink:href="#DejaVuSans-63"/>
      <use x="407.470703" xlink:href="#DejaVuSans-65"/>
      <use x="468.994141" xlink:href="#DejaVuSans-20"/>
      <use x="500.78125" xlink:href="#DejaVuSans-23"/>
     </g>
    </g>
   </g>
   <g id="matplotlib.axis_2">
    <g id="ytick_1">
     <g id="line2d_11">
      <path clip-path="url(#p69e8b9bc6d)" d="M 115.2 636.222427 
L 1368 636.222427 
" style="fill:none;stroke:#cbcbcb;"/>
     </g>
     <g id="line2d_12"/>
     <g id="text_7">
      <!-- −0.010 -->
      <defs>
       <path d="M 10.59375 35.5 
L 73.1875 35.5 
L 73.1875 27.203125 
L 10.59375 27.203125 
z
" id="DejaVuSans-2212"/>
       <path d="M 10.6875 12.40625 
L 21 12.40625 
L 21 0 
L 10.6875 0 
z
" id="DejaVuSans-2e"/>
      </defs>
      <g transform="translate(59.889063 641.541333)scale(0.14 -0.14)">
       <use xlink:href="#DejaVuSans-2212"/>
       <use x="83.789062" xlink:href="#DejaVuSans-30"/>
       <use x="147.412109" xlink:href="#DejaVuSans-2e"/>
       <use x="179.199219" xlink:href="#DejaVuSans-30"/>
       <use x="242.822266" xlink:href="#DejaVuSans-31"/>
       <use x="306.445312" xlink:href="#DejaVuSans-30"/>
      </g>
     </g>
    </g>
    <g id="ytick_2">
     <g id="line2d_13">
      <path clip-path="url(#p69e8b9bc6d)" d="M 115.2 529.196723 
L 1368 529.196723 
" style="fill:none;stroke:#cbcbcb;"/>
     </g>
     <g id="line2d_14"/>
     <g id="text_8">
      <!-- −0.005 -->
      <defs>
       <path d="M 10.796875 72.90625 
L 49.515625 72.90625 
L 49.515625 64.59375 
L 19.828125 64.59375 
L 19.828125 46.734375 
Q 21.96875 47.46875 24.109375 47.828125 
Q 26.265625 48.1875 28.421875 48.1875 
Q 40.625 48.1875 47.75 41.5 
Q 54.890625 34.8125 54.890625 23.390625 
Q 54.890625 11.625 47.5625 5.09375 
Q 40.234375 -1.421875 26.90625 -1.421875 
Q 22.3125 -1.421875 17.546875 -0.640625 
Q 12.796875 0.140625 7.71875 1.703125 
L 7.71875 11.625 
Q 12.109375 9.234375 16.796875 8.0625 
Q 21.484375 6.890625 26.703125 6.890625 
Q 35.15625 6.890625 40.078125 11.328125 
Q 45.015625 15.765625 45.015625 23.390625 
Q 45.015625 31 40.078125 35.4375 
Q 35.15625 39.890625 26.703125 39.890625 
Q 22.75 39.890625 18.8125 39.015625 
Q 14.890625 38.140625 10.796875 36.28125 
z
" id="DejaVuSans-35"/>
      </defs>
      <g transform="translate(59.889063 534.51563)scale(0.14 -0.14)">
       <use xlink:href="#DejaVuSans-2212"/>
       <use x="83.789062" xlink:href="#DejaVuSans-30"/>
       <use x="147.412109" xlink:href="#DejaVuSans-2e"/>
       <use x="179.199219" xlink:href="#DejaVuSans-30"/>
       <use x="242.822266" xlink:href="#DejaVuSans-30"/>
       <use x="306.445312" xlink:href="#DejaVuSans-35"/>
      </g>
     </g>
    </g>
    <g id="ytick_3">
     <g id="line2d_15">
      <path clip-path="url(#p69e8b9bc6d)" d="M 115.2 422.17102 
L 1368 422.17102 
" style="fill:none;stroke:#cbcbcb;"/>
     </g>
     <g id="line2d_16"/>
     <g id="text_9">
      <!-- 0.000 -->
      <g transform="translate(71.620625 427.489926)scale(0.14 -0.14)">
       <use xlink:href="#DejaVuSans-30"/>
       <use x="63.623047" xlink:href="#DejaVuSans-2e"/>
       <use x="95.410156" xlink:href="#DejaVuSans-30"/>
       <use x="159.033203" xlink:href="#DejaVuSans-30"/>
       <use x="222.65625" xlink:href="#DejaVuSans-30"/>
      </g>
     </g>
    </g>
    <g id="ytick_4">
     <g id="line2d_17">
      <path clip-path="url(#p69e8b9bc6d)" d="M 115.2 315.145316 
L 1368 315.145316 
" style="fill:none;stroke:#cbcbcb;"/>
     </g>
     <g id="line2d_18"/>
     <g id="text_10">
      <!-- 0.005 -->
      <g transform="translate(71.620625 320.464223)scale(0.14 -0.14)">
       <use xlink:href="#DejaVuSans-30"/>
       <use x="63.623047" xlink:href="#DejaVuSans-2e"/>
       <use x="95.410156" xlink:href="#DejaVuSans-30"/>
       <use x="159.033203" xlink:href="#DejaVuSans-30"/>
       <use x="222.65625" xlink:href="#DejaVuSans-35"/>
      </g>
     </g>
    </g>
    <g id="ytick_5">
     <g id="line2d_19">
      <path clip-path="url(#p69e8b9bc6d)" d="M 115.2 208.119613 
L 1368 208.119613 
" style="fill:none;stroke:#cbcbcb;"/>
     </g>
     <g id="line2d_20"/>
     <g id="text_11">
      <!-- 0.010 -->
      <g transform="translate(71.620625 213.438519)scale(0.14 -0.14)">
       <use xlink:href="#DejaVuSans-30"/>
       <use x="63.623047" xlink:href="#DejaVuSans-2e"/>
       <use x="95.410156" xlink:href="#DejaVuSans-30"/>
       <use x="159.033203" xlink:href="#DejaVuSans-31"/>
       <use x="222.65625" xlink:href="#DejaVuSans-30"/>
      </g>
     </g>
    </g>
    <g id="ytick_6">
     <g id="line2d_21">
      <path clip-path="url(#p69e8b9bc6d)" d="M 115.2 101.093909 
L 1368 101.093909 
" style="fill:none;stroke:#cbcbcb;"/>
     </g>
     <g id="line2d_22"/>
     <g id="text_12">
      <!-- 0.015 -->
      <g transform="translate(71.620625 106.412816)scale(0.14 -0.14)">
       <use xlink:href="#DejaVuSans-30"/>
       <use x="63.623047" xlink:href="#DejaVuSans-2e"/>
       <use x="95.410156" xlink:href="#DejaVuSans-30"/>
       <use x="159.033203" xlink:href="#DejaVuSans-31"/>
       <use x="222.65625" xlink:href="#DejaVuSans-35"/>
      </g>
     </g>
    </g>
    <g id="text_13">
     <!-- Sentiment Score -->
     <defs>
      <path d="M 9.421875 54.6875 
L 18.40625 54.6875 
L 18.40625 0 
L 9.421875 0 
z
M 9.421875 75.984375 
L 18.40625 75.984375 
L 18.40625 64.59375 
L 9.421875 64.59375 
z
" id="DejaVuSans-69"/>
      <path d="M 52 44.1875 
Q 55.375 50.25 60.0625 53.125 
Q 64.75 56 71.09375 56 
Q 79.640625 56 84.28125 50.015625 
Q 88.921875 44.046875 88.921875 33.015625 
L 88.921875 0 
L 79.890625 0 
L 79.890625 32.71875 
Q 79.890625 40.578125 77.09375 44.375 
Q 74.3125 48.1875 68.609375 48.1875 
Q 61.625 48.1875 57.5625 43.546875 
Q 53.515625 38.921875 53.515625 30.90625 
L 53.515625 0 
L 44.484375 0 
L 44.484375 32.71875 
Q 44.484375 40.625 41.703125 44.40625 
Q 38.921875 48.1875 33.109375 48.1875 
Q 26.21875 48.1875 22.15625 43.53125 
Q 18.109375 38.875 18.109375 30.90625 
L 18.109375 0 
L 9.078125 0 
L 9.078125 54.6875 
L 18.109375 54.6875 
L 18.109375 46.1875 
Q 21.1875 51.21875 25.484375 53.609375 
Q 29.78125 56 35.6875 56 
Q 41.65625 56 45.828125 52.96875 
Q 50 49.953125 52 44.1875 
z
" id="DejaVuSans-6d"/>
      <path d="M 30.609375 48.390625 
Q 23.390625 48.390625 19.1875 42.75 
Q 14.984375 37.109375 14.984375 27.296875 
Q 14.984375 17.484375 19.15625 11.84375 
Q 23.34375 6.203125 30.609375 6.203125 
Q 37.796875 6.203125 41.984375 11.859375 
Q 46.1875 17.53125 46.1875 27.296875 
Q 46.1875 37.015625 41.984375 42.703125 
Q 37.796875 48.390625 30.609375 48.390625 
z
M 30.609375 56 
Q 42.328125 56 49.015625 48.375 
Q 55.71875 40.765625 55.71875 27.296875 
Q 55.71875 13.875 49.015625 6.21875 
Q 42.328125 -1.421875 30.609375 -1.421875 
Q 18.84375 -1.421875 12.171875 6.21875 
Q 5.515625 13.875 5.515625 27.296875 
Q 5.515625 40.765625 12.171875 48.375 
Q 18.84375 56 30.609375 56 
z
" id="DejaVuSans-6f"/>
      <path d="M 41.109375 46.296875 
Q 39.59375 47.171875 37.8125 47.578125 
Q 36.03125 48 33.890625 48 
Q 26.265625 48 22.1875 43.046875 
Q 18.109375 38.09375 18.109375 28.8125 
L 18.109375 0 
L 9.078125 0 
L 9.078125 54.6875 
L 18.109375 54.6875 
L 18.109375 46.1875 
Q 20.953125 51.171875 25.484375 53.578125 
Q 30.03125 56 36.53125 56 
Q 37.453125 56 38.578125 55.875 
Q 39.703125 55.765625 41.0625 55.515625 
z
" id="DejaVuSans-72"/>
     </defs>
     <g transform="translate(52.395187 447.79875)rotate(-90)scale(0.168 -0.168)">
      <use xlink:href="#DejaVuSans-53"/>
      <use x="63.476562" xlink:href="#DejaVuSans-65"/>
      <use x="125" xlink:href="#DejaVuSans-6e"/>
      <use x="188.378906" xlink:href="#DejaVuSans-74"/>
      <use x="227.587891" xlink:href="#DejaVuSans-69"/>
      <use x="255.371094" xlink:href="#DejaVuSans-6d"/>
      <use x="352.783203" xlink:href="#DejaVuSans-65"/>
      <use x="414.306641" xlink:href="#DejaVuSans-6e"/>
      <use x="477.685547" xlink:href="#DejaVuSans-74"/>
      <use x="516.894531" xlink:href="#DejaVuSans-20"/>
      <use x="548.681641" xlink:href="#DejaVuSans-53"/>
      <use x="612.158203" xlink:href="#DejaVuSans-63"/>
      <use x="667.138672" xlink:href="#DejaVuSans-6f"/>
      <use x="728.320312" xlink:href="#DejaVuSans-72"/>
      <use x="769.402344" xlink:href="#DejaVuSans-65"/>
     </g>
    </g>
   </g>
   <g id="line2d_23">
    <path clip-path="url(#p69e8b9bc6d)" d="M 172.145455 452.90298 
L 187.224896 428.791668 
L 192.159986 420.367914 
L 196.820904 411.962222 
L 201.755994 402.586973 
L 207.787771 390.607729 
L 216.561264 373.155836 
L 219.851324 367.124334 
L 222.318869 363.05923 
L 224.238071 360.327112 
L 225.883101 358.39246 
L 227.253959 357.121611 
L 228.624817 356.16029 
L 228.898989 355.998678 
L 231.640706 352.34214 
L 239.317512 342.373622 
L 242.059229 338.272175 
L 244.800945 333.751671 
L 249.736035 325.110073 
L 256.041984 314.093382 
L 260.42873 306.874763 
L 263.992962 301.433203 
L 266.734679 297.684016 
L 271.669768 291.074655 
L 274.685657 286.537303 
L 278.798232 279.928482 
L 281.81412 275.236757 
L 283.45915 273.03883 
L 284.830008 271.509448 
L 286.200867 270.284083 
L 287.571725 269.375369 
L 288.668412 268.907954 
L 289.765098 268.698628 
L 290.861785 268.76081 
L 291.958472 269.10007 
L 293.055158 269.714124 
L 294.151845 270.596667 
L 295.248532 271.736688 
L 296.61939 273.486513 
L 298.26442 275.994398 
L 300.183621 279.373763 
L 302.651166 284.235112 
L 306.215398 291.804463 
L 311.150488 302.895735 
L 323.214041 330.563906 
L 325.681586 337.018645 
L 327.87496 343.413771 
L 329.794161 349.645771 
L 331.987534 357.560086 
L 334.180908 366.300093 
L 336.648453 377.090075 
L 339.390169 390.176117 
L 342.131886 404.339504 
L 345.147774 421.135821 
L 348.437834 440.835677 
L 354.469611 478.757801 
L 358.856358 505.690938 
L 362.694761 527.835109 
L 366.258992 547.014903 
L 369.549052 563.552247 
L 372.290769 576.230147 
L 374.758314 586.56046 
L 377.225859 595.890863 
L 380.241747 606.402862 
L 383.257636 616.134878 
L 385.725181 623.40149 
L 387.918554 629.137508 
L 389.837756 633.502103 
L 391.482785 636.692087 
L 392.853644 638.896919 
L 394.224502 640.654435 
L 395.321189 641.724553 
L 396.417875 642.485715 
L 397.514562 642.939585 
L 398.611249 643.090909 
L 399.707935 642.950056 
L 400.804622 642.531058 
L 401.901309 641.850717 
L 402.997995 640.930534 
L 404.368854 639.469915 
L 405.739712 637.688303 
L 407.384742 635.168643 
L 409.303944 631.774604 
L 411.497317 627.392034 
L 413.964862 621.942897 
L 416.432407 615.990943 
L 418.899952 609.404891 
L 421.093325 602.963064 
L 423.286698 595.855976 
L 425.754243 587.035223 
L 428.221788 577.395109 
L 430.963505 565.723749 
L 433.705222 553.055918 
L 437.543625 534.08401 
L 442.478715 509.752411 
L 445.220432 497.286575 
L 448.23632 484.640382 
L 451.252208 472.888182 
L 453.993925 463.088534 
L 456.187298 456.008037 
L 458.380671 449.677522 
L 460.299873 444.838489 
L 461.944903 441.239272 
L 463.589933 438.123653 
L 465.234963 435.434494 
L 467.154165 432.728399 
L 469.347538 430.052592 
L 472.089255 427.09778 
L 476.476001 422.73425 
L 479.49189 420.00523 
L 481.685263 418.29796 
L 483.604464 417.075401 
L 485.249494 416.264768 
L 487.168696 415.568134 
L 489.636241 414.930167 
L 492.652129 414.388405 
L 495.393846 414.147897 
L 502.522309 413.61932 
L 504.715683 413.118122 
L 506.634884 412.437294 
L 508.279914 411.627328 
L 509.924944 410.587099 
L 511.569974 409.304618 
L 513.489176 407.500308 
L 515.134206 405.674229 
L 516.779236 403.545266 
L 518.424266 401.074808 
L 520.343467 397.77033 
L 522.536841 393.514284 
L 525.004386 388.193409 
L 532.407021 371.803699 
L 534.052051 368.831328 
L 535.422909 366.793446 
L 536.519596 365.497109 
L 537.616282 364.518471 
L 538.712969 363.869043 
L 539.535484 363.606041 
L 540.357999 363.537141 
L 541.180514 363.658347 
L 542.003029 363.96243 
L 543.099715 364.64006 
L 544.196402 365.606052 
L 545.56726 367.175719 
L 546.938119 369.101082 
L 548.583149 371.799684 
L 550.776522 375.850026 
L 554.066582 382.447373 
L 559.824187 394.600278 
L 565.033449 406.018908 
L 567.775165 412.494013 
L 570.24271 418.899108 
L 572.436084 425.187 
L 574.629457 432.168914 
L 576.82283 439.956618 
L 579.016203 448.588087 
L 581.483748 459.269576 
L 584.225465 472.246249 
L 587.515525 489.066129 
L 594.095645 522.967152 
L 596.289018 532.96004 
L 598.20822 540.729221 
L 600.127422 547.607705 
L 602.046623 553.604216 
L 603.691653 558.015462 
L 605.336683 561.742674 
L 606.981713 564.85158 
L 608.352571 567.009169 
L 609.72343 568.787187 
L 611.094288 570.196153 
L 612.465146 571.243945 
L 613.561833 571.826375 
L 614.65852 572.187486 
L 615.755206 572.335486 
L 616.851893 572.277103 
L 617.94858 572.012066 
L 619.045266 571.531738 
L 620.141953 570.821657 
L 621.23864 569.867475 
L 622.335326 568.657511 
L 623.706185 566.779793 
L 625.077043 564.506739 
L 626.722073 561.286002 
L 628.367103 557.570644 
L 630.286305 552.708238 
L 632.75385 545.775298 
L 636.043909 535.747349 
L 640.156484 522.460714 
L 652.494209 482.074886 
L 656.880956 468.779342 
L 659.622673 461.141471 
L 661.816046 455.721131 
L 663.461076 452.175752 
L 665.106106 449.134476 
L 666.476964 447.009667 
L 667.847822 445.275393 
L 669.218681 443.902984 
L 670.589539 442.827964 
L 672.234569 441.839834 
L 673.879599 441.127254 
L 675.250457 440.747735 
L 676.621316 440.576211 
L 677.992174 440.616085 
L 679.363032 440.853308 
L 681.008062 441.368426 
L 683.201436 442.30219 
L 685.394809 443.482213 
L 687.862354 445.066868 
L 691.152414 447.475003 
L 696.635847 451.855823 
L 700.748422 455.295403 
L 703.76431 458.101986 
L 706.231855 460.731307 
L 713.63449 468.949286 
L 716.102035 471.282011 
L 718.021237 472.795744 
L 719.666267 473.833207 
L 721.311297 474.603498 
L 722.682155 475.000257 
L 724.053014 475.135004 
L 725.1497 475.043434 
L 726.520558 474.683961 
L 727.891417 474.088033 
L 729.810618 472.984283 
L 732.826507 470.942108 
L 735.294052 469.010527 
L 737.213253 467.21771 
L 739.132455 465.105279 
L 741.051657 462.642744 
L 742.970858 459.806379 
L 745.712575 455.290166 
L 749.82515 448.529219 
L 751.744352 445.745188 
L 753.389382 443.73039 
L 754.76024 442.370755 
L 756.131098 441.294606 
L 757.501956 440.466 
L 759.146986 439.747346 
L 760.792016 439.269762 
L 762.98539 438.893318 
L 768.742995 438.030472 
L 775.323115 436.654106 
L 778.887346 435.983981 
L 780.806548 435.840407 
L 782.451578 435.969124 
L 784.096608 436.336482 
L 787.660839 437.469181 
L 790.676728 438.333442 
L 792.595929 438.687997 
L 794.240959 438.769645 
L 795.611818 438.595923 
L 796.982676 438.144884 
L 798.353534 437.419548 
L 799.724393 436.424033 
L 801.095251 435.173108 
L 802.740281 433.366299 
L 804.385311 431.22585 
L 806.304513 428.314389 
L 808.497886 424.53998 
L 810.965431 419.842386 
L 813.981319 413.556767 
L 817.271379 406.138972 
L 821.383954 396.854832 
L 823.851499 391.870051 
L 826.044872 387.933929 
L 827.964074 384.938865 
L 829.883276 382.389724 
L 831.528306 380.565968 
L 833.173336 379.06342 
L 834.818366 377.86701 
L 836.463396 376.939108 
L 838.108426 376.246192 
L 839.753456 375.771794 
L 841.398486 375.503902 
L 843.043516 375.461558 
L 844.688546 375.670397 
L 846.333576 376.115928 
L 848.526949 376.951989 
L 851.817009 378.489757 
L 854.284554 379.860326 
L 856.477927 381.322615 
L 858.397129 382.862647 
L 860.590502 384.91946 
L 863.60639 388.088748 
L 867.170622 392.115089 
L 869.638167 395.23696 
L 871.83154 398.404414 
L 874.024914 402.030248 
L 876.492459 406.613756 
L 883.895093 420.807039 
L 886.63681 425.399314 
L 888.830183 428.632414 
L 891.023557 431.456502 
L 892.668587 433.257946 
L 894.039445 434.493632 
L 895.410303 435.469196 
L 896.781162 436.19601 
L 898.15202 436.702193 
L 899.79705 437.067085 
L 901.716252 437.224101 
L 903.635453 437.146329 
L 906.651342 436.747573 
L 909.941401 436.365933 
L 912.134775 436.335598 
L 914.328148 436.52259 
L 916.795693 436.953204 
L 919.263238 437.59947 
L 922.279126 438.633421 
L 924.4725 439.611574 
L 926.665873 440.835964 
L 932.971821 444.56212 
L 939.27777 447.909944 
L 941.471143 449.481194 
L 944.212859 451.76898 
L 948.051263 454.9848 
L 949.696293 456.084126 
L 951.067151 456.764795 
L 952.438009 457.197192 
L 953.808868 457.359026 
L 955.179726 457.248148 
L 956.550584 456.888108 
L 958.195614 456.204241 
L 960.937331 454.766567 
L 963.679048 453.101576 
L 965.324078 451.883727 
L 966.969108 450.385774 
L 968.614138 448.552835 
L 970.533339 446.006038 
L 972.726712 442.668691 
L 975.194257 438.467338 
L 978.210146 432.829206 
L 985.612781 418.746278 
L 987.257811 416.199839 
L 988.628669 414.438846 
L 989.999527 413.064879 
L 991.096214 412.285025 
L 992.192901 411.812242 
L 993.015416 411.661791 
L 993.837931 411.682936 
L 994.934617 411.963004 
L 996.031304 412.499482 
L 997.402162 413.458397 
L 999.047192 414.9125 
L 1002.611424 418.491263 
L 1005.627312 421.37847 
L 1007.820685 423.178192 
L 1010.28823 424.924155 
L 1014.400805 427.479188 
L 1018.51338 430.191597 
L 1021.80344 432.575301 
L 1023.722642 434.206477 
L 1025.641844 436.141959 
L 1027.286874 438.099508 
L 1029.206075 440.770292 
L 1031.125277 443.863468 
L 1033.044478 447.363114 
L 1035.237852 451.802039 
L 1037.705397 457.29612 
L 1040.172942 463.336644 
L 1043.463002 472.079574 
L 1047.301405 482.249931 
L 1049.220607 486.709614 
L 1050.865637 489.971015 
L 1052.236495 492.236328 
L 1053.607353 494.063309 
L 1054.978212 495.459138 
L 1056.074898 496.280168 
L 1057.171585 496.842121 
L 1058.268272 497.163761 
L 1059.364958 497.270745 
L 1060.735817 497.14605 
L 1062.106675 496.782406 
L 1064.025876 495.986978 
L 1068.686795 493.897675 
L 1070.605996 493.334233 
L 1071.976855 493.134917 
L 1073.347713 493.137905 
L 1074.718571 493.359892 
L 1076.08943 493.816919 
L 1077.460288 494.503833 
L 1079.105318 495.590377 
L 1081.298691 497.324988 
L 1087.60464 502.524146 
L 1089.523841 503.735928 
L 1091.168871 504.52101 
L 1092.53973 504.953811 
L 1093.910588 505.149582 
L 1095.281446 505.08926 
L 1096.652304 504.766026 
L 1098.023163 504.189415 
L 1099.668193 503.22211 
L 1101.587394 501.792859 
L 1103.506596 500.051701 
L 1105.425798 498.001813 
L 1108.441686 494.379888 
L 1112.005918 489.775787 
L 1116.118493 484.022352 
L 1119.682724 478.682093 
L 1122.424441 474.118774 
L 1125.440329 468.628155 
L 1128.182046 463.171384 
L 1131.197934 456.653616 
L 1134.762166 448.401543 
L 1138.326397 439.591322 
L 1141.890629 430.237518 
L 1145.180689 420.978403 
L 1149.293264 408.675306 
L 1155.873384 388.929838 
L 1158.889272 380.483595 
L 1161.630989 373.408102 
L 1164.372705 366.912244 
L 1167.936937 359.108173 
L 1172.323684 349.423792 
L 1175.613744 341.58442 
L 1178.081289 335.160162 
L 1180.823005 327.377999 
L 1184.113065 317.298922 
L 1188.773983 302.995952 
L 1191.5157 295.334121 
L 1193.709073 289.81612 
L 1195.628275 285.514389 
L 1197.547477 281.729941 
L 1199.466678 278.466127 
L 1201.111708 276.102921 
L 1202.756738 274.127089 
L 1204.401768 272.51191 
L 1206.046798 271.19821 
L 1208.514343 269.545398 
L 1213.723605 266.390113 
L 1221.12624 262.280008 
L 1223.319613 261.257877 
L 1225.238815 260.609877 
L 1226.883845 260.279459 
L 1228.254703 260.206845 
L 1229.625561 260.346689 
L 1230.99642 260.701424 
L 1232.367278 261.278744 
L 1233.738136 262.089305 
L 1235.108995 263.143165 
L 1236.479853 264.451639 
L 1237.850711 266.026282 
L 1239.495741 268.286538 
L 1241.140771 270.965542 
L 1243.059973 274.589559 
L 1245.253346 279.248455 
L 1248.543406 286.832489 
L 1252.107638 294.958843 
L 1254.301011 299.39072 
L 1254.849354 299.822569 
L 1255.397698 300.055015 
L 1255.946041 300.088604 
L 1256.494384 299.930933 
L 1257.042728 299.593838 
L 1257.865243 298.782776 
L 1258.687758 297.65005 
L 1259.784444 295.722571 
L 1261.155303 292.780854 
L 1262.800333 288.667949 
L 1264.993706 282.49606 
L 1267.735423 274.066164 
L 1271.573826 261.487742 
L 1278.153946 239.02229 
L 1288.024126 204.5261 
L 1294.604246 180.803703 
L 1299.265164 163.1748 
L 1303.103567 147.820388 
L 1306.94197 131.51473 
L 1310.780374 114.186092 
L 1311.054545 112.909091 
L 1311.054545 112.909091 
" style="fill:none;stroke:#008fd5;stroke-width:4;"/>
   </g>
   <g id="patch_3">
    <path d="M 115.2 669.6 
L 115.2 86.4 
" style="fill:none;stroke:#f0f0f0;stroke-linecap:square;stroke-linejoin:miter;stroke-width:3;"/>
   </g>
   <g id="patch_4">
    <path d="M 1368 669.6 
L 1368 86.4 
" style="fill:none;stroke:#f0f0f0;stroke-linecap:square;stroke-linejoin:miter;stroke-width:3;"/>
   </g>
   <g id="patch_5">
    <path d="M 115.2 669.6 
L 1368 669.6 
" style="fill:none;stroke:#f0f0f0;stroke-linecap:square;stroke-linejoin:miter;stroke-width:3;"/>
   </g>
   <g id="patch_6">
    <path d="M 115.2 86.4 
L 1368 86.4 
" style="fill:none;stroke:#f0f0f0;stroke-linecap:square;stroke-linejoin:miter;stroke-width:3;"/>
   </g>
   <g id="legend_1">
    <g id="patch_7">
     <path d="M 125 118.53875 
L 467.866562 118.53875 
Q 470.666562 118.53875 470.666562 115.73875 
L 470.666562 96.2 
Q 470.666562 93.4 467.866562 93.4 
L 125 93.4 
Q 122.2 93.4 122.2 96.2 
L 122.2 115.73875 
Q 122.2 118.53875 125 118.53875 
z
" style="fill:#f0f0f0;opacity:0.8;stroke:#cccccc;stroke-linejoin:miter;stroke-width:0.5;"/>
    </g>
    <g id="line2d_24">
     <path d="M 127.8 104.737812 
L 155.8 104.737812 
" style="fill:none;stroke:#008fd5;stroke-width:4;"/>
    </g>
    <g id="line2d_25"/>
    <g id="text_14">
     <!-- Girl Who Loved Tom Gordon_ A Novel, The -->
     <defs>
      <path d="M 59.515625 10.40625 
L 59.515625 29.984375 
L 43.40625 29.984375 
L 43.40625 38.09375 
L 69.28125 38.09375 
L 69.28125 6.78125 
Q 63.578125 2.734375 56.6875 0.65625 
Q 49.8125 -1.421875 42 -1.421875 
Q 24.90625 -1.421875 15.25 8.5625 
Q 5.609375 18.5625 5.609375 36.375 
Q 5.609375 54.25 15.25 64.234375 
Q 24.90625 74.21875 42 74.21875 
Q 49.125 74.21875 55.546875 72.453125 
Q 61.96875 70.703125 67.390625 67.28125 
L 67.390625 56.78125 
Q 61.921875 61.421875 55.765625 63.765625 
Q 49.609375 66.109375 42.828125 66.109375 
Q 29.4375 66.109375 22.71875 58.640625 
Q 16.015625 51.171875 16.015625 36.375 
Q 16.015625 21.625 22.71875 14.15625 
Q 29.4375 6.6875 42.828125 6.6875 
Q 48.046875 6.6875 52.140625 7.59375 
Q 56.25 8.5 59.515625 10.40625 
z
" id="DejaVuSans-47"/>
      <path d="M 9.421875 75.984375 
L 18.40625 75.984375 
L 18.40625 0 
L 9.421875 0 
z
" id="DejaVuSans-6c"/>
      <path d="M 3.328125 72.90625 
L 13.28125 72.90625 
L 28.609375 11.28125 
L 43.890625 72.90625 
L 54.984375 72.90625 
L 70.3125 11.28125 
L 85.59375 72.90625 
L 95.609375 72.90625 
L 77.296875 0 
L 64.890625 0 
L 49.515625 63.28125 
L 33.984375 0 
L 21.578125 0 
z
" id="DejaVuSans-57"/>
      <path d="M 54.890625 33.015625 
L 54.890625 0 
L 45.90625 0 
L 45.90625 32.71875 
Q 45.90625 40.484375 42.875 44.328125 
Q 39.84375 48.1875 33.796875 48.1875 
Q 26.515625 48.1875 22.3125 43.546875 
Q 18.109375 38.921875 18.109375 30.90625 
L 18.109375 0 
L 9.078125 0 
L 9.078125 75.984375 
L 18.109375 75.984375 
L 18.109375 46.1875 
Q 21.34375 51.125 25.703125 53.5625 
Q 30.078125 56 35.796875 56 
Q 45.21875 56 50.046875 50.171875 
Q 54.890625 44.34375 54.890625 33.015625 
z
" id="DejaVuSans-68"/>
      <path d="M 9.8125 72.90625 
L 19.671875 72.90625 
L 19.671875 8.296875 
L 55.171875 8.296875 
L 55.171875 0 
L 9.8125 0 
z
" id="DejaVuSans-4c"/>
      <path d="M 2.984375 54.6875 
L 12.5 54.6875 
L 29.59375 8.796875 
L 46.6875 54.6875 
L 56.203125 54.6875 
L 35.6875 0 
L 23.484375 0 
z
" id="DejaVuSans-76"/>
      <path d="M 45.40625 46.390625 
L 45.40625 75.984375 
L 54.390625 75.984375 
L 54.390625 0 
L 45.40625 0 
L 45.40625 8.203125 
Q 42.578125 3.328125 38.25 0.953125 
Q 33.9375 -1.421875 27.875 -1.421875 
Q 17.96875 -1.421875 11.734375 6.484375 
Q 5.515625 14.40625 5.515625 27.296875 
Q 5.515625 40.1875 11.734375 48.09375 
Q 17.96875 56 27.875 56 
Q 33.9375 56 38.25 53.625 
Q 42.578125 51.265625 45.40625 46.390625 
z
M 14.796875 27.296875 
Q 14.796875 17.390625 18.875 11.75 
Q 22.953125 6.109375 30.078125 6.109375 
Q 37.203125 6.109375 41.296875 11.75 
Q 45.40625 17.390625 45.40625 27.296875 
Q 45.40625 37.203125 41.296875 42.84375 
Q 37.203125 48.484375 30.078125 48.484375 
Q 22.953125 48.484375 18.875 42.84375 
Q 14.796875 37.203125 14.796875 27.296875 
z
" id="DejaVuSans-64"/>
      <path d="M -0.296875 72.90625 
L 61.375 72.90625 
L 61.375 64.59375 
L 35.5 64.59375 
L 35.5 0 
L 25.59375 0 
L 25.59375 64.59375 
L -0.296875 64.59375 
z
" id="DejaVuSans-54"/>
      <path d="M 50.984375 -16.609375 
L 50.984375 -23.578125 
L -0.984375 -23.578125 
L -0.984375 -16.609375 
z
" id="DejaVuSans-5f"/>
      <path d="M 34.1875 63.1875 
L 20.796875 26.90625 
L 47.609375 26.90625 
z
M 28.609375 72.90625 
L 39.796875 72.90625 
L 67.578125 0 
L 57.328125 0 
L 50.6875 18.703125 
L 17.828125 18.703125 
L 11.1875 0 
L 0.78125 0 
z
" id="DejaVuSans-41"/>
      <path d="M 9.8125 72.90625 
L 23.09375 72.90625 
L 55.421875 11.921875 
L 55.421875 72.90625 
L 64.984375 72.90625 
L 64.984375 0 
L 51.703125 0 
L 19.390625 60.984375 
L 19.390625 0 
L 9.8125 0 
z
" id="DejaVuSans-4e"/>
      <path d="M 11.71875 12.40625 
L 22.015625 12.40625 
L 22.015625 4 
L 14.015625 -11.625 
L 7.71875 -11.625 
L 11.71875 4 
z
" id="DejaVuSans-2c"/>
     </defs>
     <g transform="translate(167 109.637812)scale(0.14 -0.14)">
      <use xlink:href="#DejaVuSans-47"/>
      <use x="77.490234" xlink:href="#DejaVuSans-69"/>
      <use x="105.273438" xlink:href="#DejaVuSans-72"/>
      <use x="146.386719" xlink:href="#DejaVuSans-6c"/>
      <use x="174.169922" xlink:href="#DejaVuSans-20"/>
      <use x="205.957031" xlink:href="#DejaVuSans-57"/>
      <use x="304.833984" xlink:href="#DejaVuSans-68"/>
      <use x="368.212891" xlink:href="#DejaVuSans-6f"/>
      <use x="429.394531" xlink:href="#DejaVuSans-20"/>
      <use x="461.181641" xlink:href="#DejaVuSans-4c"/>
      <use x="516.878906" xlink:href="#DejaVuSans-6f"/>
      <use x="578.060547" xlink:href="#DejaVuSans-76"/>
      <use x="637.240234" xlink:href="#DejaVuSans-65"/>
      <use x="698.763672" xlink:href="#DejaVuSans-64"/>
      <use x="762.240234" xlink:href="#DejaVuSans-20"/>
      <use x="794.027344" xlink:href="#DejaVuSans-54"/>
      <use x="854.845703" xlink:href="#DejaVuSans-6f"/>
      <use x="916.027344" xlink:href="#DejaVuSans-6d"/>
      <use x="1013.439453" xlink:href="#DejaVuSans-20"/>
      <use x="1045.226562" xlink:href="#DejaVuSans-47"/>
      <use x="1122.716797" xlink:href="#DejaVuSans-6f"/>
      <use x="1183.898438" xlink:href="#DejaVuSans-72"/>
      <use x="1224.996094" xlink:href="#DejaVuSans-64"/>
      <use x="1288.472656" xlink:href="#DejaVuSans-6f"/>
      <use x="1349.654297" xlink:href="#DejaVuSans-6e"/>
      <use x="1413.033203" xlink:href="#DejaVuSans-5f"/>
      <use x="1463.033203" xlink:href="#DejaVuSans-20"/>
      <use x="1494.820312" xlink:href="#DejaVuSans-41"/>
      <use x="1563.228516" xlink:href="#DejaVuSans-20"/>
      <use x="1595.015625" xlink:href="#DejaVuSans-4e"/>
      <use x="1669.820312" xlink:href="#DejaVuSans-6f"/>
      <use x="1731.001953" xlink:href="#DejaVuSans-76"/>
      <use x="1790.181641" xlink:href="#DejaVuSans-65"/>
      <use x="1851.705078" xlink:href="#DejaVuSans-6c"/>
      <use x="1879.488281" xlink:href="#DejaVuSans-2c"/>
      <use x="1911.275391" xlink:href="#DejaVuSans-20"/>
      <use x="1943.0625" xlink:href="#DejaVuSans-54"/>
      <use x="2004.146484" xlink:href="#DejaVuSans-68"/>
      <use x="2067.525391" xlink:href="#DejaVuSans-65"/>
     </g>
    </g>
   </g>
  </g>
 </g>
 <defs>
  <clipPath id="p69e8b9bc6d">
   <rect height="583.2" width="1252.8" x="115.2" y="86.4"/>
  </clipPath>
 </defs>
</svg>
