<?xml version="1.0" encoding="utf-8" standalone="no"?>
<!DOCTYPE svg PUBLIC "-//W3C//DTD SVG 1.1//EN"
  "http://www.w3.org/Graphics/SVG/1.1/DTD/svg11.dtd">
<!-- Created with matplotlib (http://matplotlib.org/) -->
<svg height="720pt" version="1.1" viewBox="0 0 1440 720" width="1440pt" xmlns="http://www.w3.org/2000/svg" xmlns:xlink="http://www.w3.org/1999/xlink">
 <defs>
  <style type="text/css">
*{stroke-linecap:butt;stroke-linejoin:round;}
  </style>
 </defs>
 <g id="figure_1">
  <g id="patch_1">
   <path d="M 0 720 
L 1440 720 
L 1440 0 
L 0 0 
z
" style="fill:#f0f0f0;"/>
  </g>
  <g id="axes_1">
   <g id="patch_2">
    <path d="M 115.2 669.6 
L 1368 669.6 
L 1368 86.4 
L 115.2 86.4 
z
" style="fill:#f0f0f0;"/>
   </g>
   <g id="matplotlib.axis_1">
    <g id="xtick_1">
     <g id="line2d_1">
      <path clip-path="url(#pe35872b448)" d="M 172.145455 669.6 
L 172.145455 86.4 
" style="fill:none;stroke:#cbcbcb;"/>
     </g>
     <g id="line2d_2"/>
     <g id="text_1">
      <!-- 0 -->
      <defs>
       <path d="M 31.78125 66.40625 
Q 24.171875 66.40625 20.328125 58.90625 
Q 16.5 51.421875 16.5 36.375 
Q 16.5 21.390625 20.328125 13.890625 
Q 24.171875 6.390625 31.78125 6.390625 
Q 39.453125 6.390625 43.28125 13.890625 
Q 47.125 21.390625 47.125 36.375 
Q 47.125 51.421875 43.28125 58.90625 
Q 39.453125 66.40625 31.78125 66.40625 
z
M 31.78125 74.21875 
Q 44.046875 74.21875 50.515625 64.515625 
Q 56.984375 54.828125 56.984375 36.375 
Q 56.984375 17.96875 50.515625 8.265625 
Q 44.046875 -1.421875 31.78125 -1.421875 
Q 19.53125 -1.421875 13.0625 8.265625 
Q 6.59375 17.96875 6.59375 36.375 
Q 6.59375 54.828125 13.0625 64.515625 
Q 19.53125 74.21875 31.78125 74.21875 
z
" id="DejaVuSans-30"/>
      </defs>
      <g transform="translate(167.691705 683.737813)scale(0.14 -0.14)">
       <use xlink:href="#DejaVuSans-30"/>
      </g>
     </g>
    </g>
    <g id="xtick_2">
     <g id="line2d_3">
      <path clip-path="url(#pe35872b448)" d="M 385.224798 669.6 
L 385.224798 86.4 
" style="fill:none;stroke:#cbcbcb;"/>
     </g>
     <g id="line2d_4"/>
     <g id="text_2">
      <!-- 1000 -->
      <defs>
       <path d="M 12.40625 8.296875 
L 28.515625 8.296875 
L 28.515625 63.921875 
L 10.984375 60.40625 
L 10.984375 69.390625 
L 28.421875 72.90625 
L 38.28125 72.90625 
L 38.28125 8.296875 
L 54.390625 8.296875 
L 54.390625 0 
L 12.40625 0 
z
" id="DejaVuSans-31"/>
      </defs>
      <g transform="translate(367.409798 683.737813)scale(0.14 -0.14)">
       <use xlink:href="#DejaVuSans-31"/>
       <use x="63.623047" xlink:href="#DejaVuSans-30"/>
       <use x="127.246094" xlink:href="#DejaVuSans-30"/>
       <use x="190.869141" xlink:href="#DejaVuSans-30"/>
      </g>
     </g>
    </g>
    <g id="xtick_3">
     <g id="line2d_5">
      <path clip-path="url(#pe35872b448)" d="M 598.304142 669.6 
L 598.304142 86.4 
" style="fill:none;stroke:#cbcbcb;"/>
     </g>
     <g id="line2d_6"/>
     <g id="text_3">
      <!-- 2000 -->
      <defs>
       <path d="M 19.1875 8.296875 
L 53.609375 8.296875 
L 53.609375 0 
L 7.328125 0 
L 7.328125 8.296875 
Q 12.9375 14.109375 22.625 23.890625 
Q 32.328125 33.6875 34.8125 36.53125 
Q 39.546875 41.84375 41.421875 45.53125 
Q 43.3125 49.21875 43.3125 52.78125 
Q 43.3125 58.59375 39.234375 62.25 
Q 35.15625 65.921875 28.609375 65.921875 
Q 23.96875 65.921875 18.8125 64.3125 
Q 13.671875 62.703125 7.8125 59.421875 
L 7.8125 69.390625 
Q 13.765625 71.78125 18.9375 73 
Q 24.125 74.21875 28.421875 74.21875 
Q 39.75 74.21875 46.484375 68.546875 
Q 53.21875 62.890625 53.21875 53.421875 
Q 53.21875 48.921875 51.53125 44.890625 
Q 49.859375 40.875 45.40625 35.40625 
Q 44.1875 33.984375 37.640625 27.21875 
Q 31.109375 20.453125 19.1875 8.296875 
z
" id="DejaVuSans-32"/>
      </defs>
      <g transform="translate(580.489142 683.737813)scale(0.14 -0.14)">
       <use xlink:href="#DejaVuSans-32"/>
       <use x="63.623047" xlink:href="#DejaVuSans-30"/>
       <use x="127.246094" xlink:href="#DejaVuSans-30"/>
       <use x="190.869141" xlink:href="#DejaVuSans-30"/>
      </g>
     </g>
    </g>
    <g id="xtick_4">
     <g id="line2d_7">
      <path clip-path="url(#pe35872b448)" d="M 811.383485 669.6 
L 811.383485 86.4 
" style="fill:none;stroke:#cbcbcb;"/>
     </g>
     <g id="line2d_8"/>
     <g id="text_4">
      <!-- 3000 -->
      <defs>
       <path d="M 40.578125 39.3125 
Q 47.65625 37.796875 51.625 33 
Q 55.609375 28.21875 55.609375 21.1875 
Q 55.609375 10.40625 48.1875 4.484375 
Q 40.765625 -1.421875 27.09375 -1.421875 
Q 22.515625 -1.421875 17.65625 -0.515625 
Q 12.796875 0.390625 7.625 2.203125 
L 7.625 11.71875 
Q 11.71875 9.328125 16.59375 8.109375 
Q 21.484375 6.890625 26.8125 6.890625 
Q 36.078125 6.890625 40.9375 10.546875 
Q 45.796875 14.203125 45.796875 21.1875 
Q 45.796875 27.640625 41.28125 31.265625 
Q 36.765625 34.90625 28.71875 34.90625 
L 20.21875 34.90625 
L 20.21875 43.015625 
L 29.109375 43.015625 
Q 36.375 43.015625 40.234375 45.921875 
Q 44.09375 48.828125 44.09375 54.296875 
Q 44.09375 59.90625 40.109375 62.90625 
Q 36.140625 65.921875 28.71875 65.921875 
Q 24.65625 65.921875 20.015625 65.03125 
Q 15.375 64.15625 9.8125 62.3125 
L 9.8125 71.09375 
Q 15.4375 72.65625 20.34375 73.4375 
Q 25.25 74.21875 29.59375 74.21875 
Q 40.828125 74.21875 47.359375 69.109375 
Q 53.90625 64.015625 53.90625 55.328125 
Q 53.90625 49.265625 50.4375 45.09375 
Q 46.96875 40.921875 40.578125 39.3125 
z
" id="DejaVuSans-33"/>
      </defs>
      <g transform="translate(793.568485 683.737813)scale(0.14 -0.14)">
       <use xlink:href="#DejaVuSans-33"/>
       <use x="63.623047" xlink:href="#DejaVuSans-30"/>
       <use x="127.246094" xlink:href="#DejaVuSans-30"/>
       <use x="190.869141" xlink:href="#DejaVuSans-30"/>
      </g>
     </g>
    </g>
    <g id="xtick_5">
     <g id="line2d_9">
      <path clip-path="url(#pe35872b448)" d="M 1024.462828 669.6 
L 1024.462828 86.4 
" style="fill:none;stroke:#cbcbcb;"/>
     </g>
     <g id="line2d_10"/>
     <g id="text_5">
      <!-- 4000 -->
      <defs>
       <path d="M 37.796875 64.3125 
L 12.890625 25.390625 
L 37.796875 25.390625 
z
M 35.203125 72.90625 
L 47.609375 72.90625 
L 47.609375 25.390625 
L 58.015625 25.390625 
L 58.015625 17.1875 
L 47.609375 17.1875 
L 47.609375 0 
L 37.796875 0 
L 37.796875 17.1875 
L 4.890625 17.1875 
L 4.890625 26.703125 
z
" id="DejaVuSans-34"/>
      </defs>
      <g transform="translate(1006.647828 683.737813)scale(0.14 -0.14)">
       <use xlink:href="#DejaVuSans-34"/>
       <use x="63.623047" xlink:href="#DejaVuSans-30"/>
       <use x="127.246094" xlink:href="#DejaVuSans-30"/>
       <use x="190.869141" xlink:href="#DejaVuSans-30"/>
      </g>
     </g>
    </g>
    <g id="xtick_6">
     <g id="line2d_11">
      <path clip-path="url(#pe35872b448)" d="M 1237.542172 669.6 
L 1237.542172 86.4 
" style="fill:none;stroke:#cbcbcb;"/>
     </g>
     <g id="line2d_12"/>
     <g id="text_6">
      <!-- 5000 -->
      <defs>
       <path d="M 10.796875 72.90625 
L 49.515625 72.90625 
L 49.515625 64.59375 
L 19.828125 64.59375 
L 19.828125 46.734375 
Q 21.96875 47.46875 24.109375 47.828125 
Q 26.265625 48.1875 28.421875 48.1875 
Q 40.625 48.1875 47.75 41.5 
Q 54.890625 34.8125 54.890625 23.390625 
Q 54.890625 11.625 47.5625 5.09375 
Q 40.234375 -1.421875 26.90625 -1.421875 
Q 22.3125 -1.421875 17.546875 -0.640625 
Q 12.796875 0.140625 7.71875 1.703125 
L 7.71875 11.625 
Q 12.109375 9.234375 16.796875 8.0625 
Q 21.484375 6.890625 26.703125 6.890625 
Q 35.15625 6.890625 40.078125 11.328125 
Q 45.015625 15.765625 45.015625 23.390625 
Q 45.015625 31 40.078125 35.4375 
Q 35.15625 39.890625 26.703125 39.890625 
Q 22.75 39.890625 18.8125 39.015625 
Q 14.890625 38.140625 10.796875 36.28125 
z
" id="DejaVuSans-35"/>
      </defs>
      <g transform="translate(1219.727172 683.737813)scale(0.14 -0.14)">
       <use xlink:href="#DejaVuSans-35"/>
       <use x="63.623047" xlink:href="#DejaVuSans-30"/>
       <use x="127.246094" xlink:href="#DejaVuSans-30"/>
       <use x="190.869141" xlink:href="#DejaVuSans-30"/>
      </g>
     </g>
    </g>
    <g id="text_7">
     <!-- Sentence # -->
     <defs>
      <path d="M 53.515625 70.515625 
L 53.515625 60.890625 
Q 47.90625 63.578125 42.921875 64.890625 
Q 37.9375 66.21875 33.296875 66.21875 
Q 25.25 66.21875 20.875 63.09375 
Q 16.5 59.96875 16.5 54.203125 
Q 16.5 49.359375 19.40625 46.890625 
Q 22.3125 44.4375 30.421875 42.921875 
L 36.375 41.703125 
Q 47.40625 39.59375 52.65625 34.296875 
Q 57.90625 29 57.90625 20.125 
Q 57.90625 9.515625 50.796875 4.046875 
Q 43.703125 -1.421875 29.984375 -1.421875 
Q 24.8125 -1.421875 18.96875 -0.25 
Q 13.140625 0.921875 6.890625 3.21875 
L 6.890625 13.375 
Q 12.890625 10.015625 18.65625 8.296875 
Q 24.421875 6.59375 29.984375 6.59375 
Q 38.421875 6.59375 43.015625 9.90625 
Q 47.609375 13.234375 47.609375 19.390625 
Q 47.609375 24.75 44.3125 27.78125 
Q 41.015625 30.8125 33.5 32.328125 
L 27.484375 33.5 
Q 16.453125 35.6875 11.515625 40.375 
Q 6.59375 45.0625 6.59375 53.421875 
Q 6.59375 63.09375 13.40625 68.65625 
Q 20.21875 74.21875 32.171875 74.21875 
Q 37.3125 74.21875 42.625 73.28125 
Q 47.953125 72.359375 53.515625 70.515625 
z
" id="DejaVuSans-53"/>
      <path d="M 56.203125 29.59375 
L 56.203125 25.203125 
L 14.890625 25.203125 
Q 15.484375 15.921875 20.484375 11.0625 
Q 25.484375 6.203125 34.421875 6.203125 
Q 39.59375 6.203125 44.453125 7.46875 
Q 49.3125 8.734375 54.109375 11.28125 
L 54.109375 2.78125 
Q 49.265625 0.734375 44.1875 -0.34375 
Q 39.109375 -1.421875 33.890625 -1.421875 
Q 20.796875 -1.421875 13.15625 6.1875 
Q 5.515625 13.8125 5.515625 26.8125 
Q 5.515625 40.234375 12.765625 48.109375 
Q 20.015625 56 32.328125 56 
Q 43.359375 56 49.78125 48.890625 
Q 56.203125 41.796875 56.203125 29.59375 
z
M 47.21875 32.234375 
Q 47.125 39.59375 43.09375 43.984375 
Q 39.0625 48.390625 32.421875 48.390625 
Q 24.90625 48.390625 20.390625 44.140625 
Q 15.875 39.890625 15.1875 32.171875 
z
" id="DejaVuSans-65"/>
      <path d="M 54.890625 33.015625 
L 54.890625 0 
L 45.90625 0 
L 45.90625 32.71875 
Q 45.90625 40.484375 42.875 44.328125 
Q 39.84375 48.1875 33.796875 48.1875 
Q 26.515625 48.1875 22.3125 43.546875 
Q 18.109375 38.921875 18.109375 30.90625 
L 18.109375 0 
L 9.078125 0 
L 9.078125 54.6875 
L 18.109375 54.6875 
L 18.109375 46.1875 
Q 21.34375 51.125 25.703125 53.5625 
Q 30.078125 56 35.796875 56 
Q 45.21875 56 50.046875 50.171875 
Q 54.890625 44.34375 54.890625 33.015625 
z
" id="DejaVuSans-6e"/>
      <path d="M 18.3125 70.21875 
L 18.3125 54.6875 
L 36.8125 54.6875 
L 36.8125 47.703125 
L 18.3125 47.703125 
L 18.3125 18.015625 
Q 18.3125 11.328125 20.140625 9.421875 
Q 21.96875 7.515625 27.59375 7.515625 
L 36.8125 7.515625 
L 36.8125 0 
L 27.59375 0 
Q 17.1875 0 13.234375 3.875 
Q 9.28125 7.765625 9.28125 18.015625 
L 9.28125 47.703125 
L 2.6875 47.703125 
L 2.6875 54.6875 
L 9.28125 54.6875 
L 9.28125 70.21875 
z
" id="DejaVuSans-74"/>
      <path d="M 48.78125 52.59375 
L 48.78125 44.1875 
Q 44.96875 46.296875 41.140625 47.34375 
Q 37.3125 48.390625 33.40625 48.390625 
Q 24.65625 48.390625 19.8125 42.84375 
Q 14.984375 37.3125 14.984375 27.296875 
Q 14.984375 17.28125 19.8125 11.734375 
Q 24.65625 6.203125 33.40625 6.203125 
Q 37.3125 6.203125 41.140625 7.25 
Q 44.96875 8.296875 48.78125 10.40625 
L 48.78125 2.09375 
Q 45.015625 0.34375 40.984375 -0.53125 
Q 36.96875 -1.421875 32.421875 -1.421875 
Q 20.0625 -1.421875 12.78125 6.34375 
Q 5.515625 14.109375 5.515625 27.296875 
Q 5.515625 40.671875 12.859375 48.328125 
Q 20.21875 56 33.015625 56 
Q 37.15625 56 41.109375 55.140625 
Q 45.0625 54.296875 48.78125 52.59375 
z
" id="DejaVuSans-63"/>
      <path id="DejaVuSans-20"/>
      <path d="M 51.125 44 
L 36.921875 44 
L 32.8125 27.6875 
L 47.125 27.6875 
z
M 43.796875 71.78125 
L 38.71875 51.515625 
L 52.984375 51.515625 
L 58.109375 71.78125 
L 65.921875 71.78125 
L 60.890625 51.515625 
L 76.125 51.515625 
L 76.125 44 
L 58.984375 44 
L 54.984375 27.6875 
L 70.515625 27.6875 
L 70.515625 20.21875 
L 53.078125 20.21875 
L 48 0 
L 40.1875 0 
L 45.21875 20.21875 
L 30.90625 20.21875 
L 25.875 0 
L 18.015625 0 
L 23.09375 20.21875 
L 7.71875 20.21875 
L 7.71875 27.6875 
L 24.90625 27.6875 
L 29 44 
L 13.28125 44 
L 13.28125 51.515625 
L 30.90625 51.515625 
L 35.890625 71.78125 
z
" id="DejaVuSans-23"/>
     </defs>
     <g transform="translate(692.494125 703.41475)scale(0.168 -0.168)">
      <use xlink:href="#DejaVuSans-53"/>
      <use x="63.476562" xlink:href="#DejaVuSans-65"/>
      <use x="125" xlink:href="#DejaVuSans-6e"/>
      <use x="188.378906" xlink:href="#DejaVuSans-74"/>
      <use x="227.587891" xlink:href="#DejaVuSans-65"/>
      <use x="289.111328" xlink:href="#DejaVuSans-6e"/>
      <use x="352.490234" xlink:href="#DejaVuSans-63"/>
      <use x="407.470703" xlink:href="#DejaVuSans-65"/>
      <use x="468.994141" xlink:href="#DejaVuSans-20"/>
      <use x="500.78125" xlink:href="#DejaVuSans-23"/>
     </g>
    </g>
   </g>
   <g id="matplotlib.axis_2">
    <g id="ytick_1">
     <g id="line2d_13">
      <path clip-path="url(#pe35872b448)" d="M 115.2 560.811038 
L 1368 560.811038 
" style="fill:none;stroke:#cbcbcb;"/>
     </g>
     <g id="line2d_14"/>
     <g id="text_8">
      <!-- 0.00000 -->
      <defs>
       <path d="M 10.6875 12.40625 
L 21 12.40625 
L 21 0 
L 10.6875 0 
z
" id="DejaVuSans-2e"/>
      </defs>
      <g transform="translate(53.805625 566.129944)scale(0.14 -0.14)">
       <use xlink:href="#DejaVuSans-30"/>
       <use x="63.623047" xlink:href="#DejaVuSans-2e"/>
       <use x="95.410156" xlink:href="#DejaVuSans-30"/>
       <use x="159.033203" xlink:href="#DejaVuSans-30"/>
       <use x="222.65625" xlink:href="#DejaVuSans-30"/>
       <use x="286.279297" xlink:href="#DejaVuSans-30"/>
       <use x="349.902344" xlink:href="#DejaVuSans-30"/>
      </g>
     </g>
    </g>
    <g id="ytick_2">
     <g id="line2d_15">
      <path clip-path="url(#pe35872b448)" d="M 115.2 434.90948 
L 1368 434.90948 
" style="fill:none;stroke:#cbcbcb;"/>
     </g>
     <g id="line2d_16"/>
     <g id="text_9">
      <!-- 0.00005 -->
      <g transform="translate(53.805625 440.228386)scale(0.14 -0.14)">
       <use xlink:href="#DejaVuSans-30"/>
       <use x="63.623047" xlink:href="#DejaVuSans-2e"/>
       <use x="95.410156" xlink:href="#DejaVuSans-30"/>
       <use x="159.033203" xlink:href="#DejaVuSans-30"/>
       <use x="222.65625" xlink:href="#DejaVuSans-30"/>
       <use x="286.279297" xlink:href="#DejaVuSans-30"/>
       <use x="349.902344" xlink:href="#DejaVuSans-35"/>
      </g>
     </g>
    </g>
    <g id="ytick_3">
     <g id="line2d_17">
      <path clip-path="url(#pe35872b448)" d="M 115.2 309.007923 
L 1368 309.007923 
" style="fill:none;stroke:#cbcbcb;"/>
     </g>
     <g id="line2d_18"/>
     <g id="text_10">
      <!-- 0.00010 -->
      <g transform="translate(53.805625 314.326829)scale(0.14 -0.14)">
       <use xlink:href="#DejaVuSans-30"/>
       <use x="63.623047" xlink:href="#DejaVuSans-2e"/>
       <use x="95.410156" xlink:href="#DejaVuSans-30"/>
       <use x="159.033203" xlink:href="#DejaVuSans-30"/>
       <use x="222.65625" xlink:href="#DejaVuSans-30"/>
       <use x="286.279297" xlink:href="#DejaVuSans-31"/>
       <use x="349.902344" xlink:href="#DejaVuSans-30"/>
      </g>
     </g>
    </g>
    <g id="ytick_4">
     <g id="line2d_19">
      <path clip-path="url(#pe35872b448)" d="M 115.2 183.106365 
L 1368 183.106365 
" style="fill:none;stroke:#cbcbcb;"/>
     </g>
     <g id="line2d_20"/>
     <g id="text_11">
      <!-- 0.00015 -->
      <g transform="translate(53.805625 188.425272)scale(0.14 -0.14)">
       <use xlink:href="#DejaVuSans-30"/>
       <use x="63.623047" xlink:href="#DejaVuSans-2e"/>
       <use x="95.410156" xlink:href="#DejaVuSans-30"/>
       <use x="159.033203" xlink:href="#DejaVuSans-30"/>
       <use x="222.65625" xlink:href="#DejaVuSans-30"/>
       <use x="286.279297" xlink:href="#DejaVuSans-31"/>
       <use x="349.902344" xlink:href="#DejaVuSans-35"/>
      </g>
     </g>
    </g>
    <g id="text_12">
     <!-- Sentiment Score -->
     <defs>
      <path d="M 9.421875 54.6875 
L 18.40625 54.6875 
L 18.40625 0 
L 9.421875 0 
z
M 9.421875 75.984375 
L 18.40625 75.984375 
L 18.40625 64.59375 
L 9.421875 64.59375 
z
" id="DejaVuSans-69"/>
      <path d="M 52 44.1875 
Q 55.375 50.25 60.0625 53.125 
Q 64.75 56 71.09375 56 
Q 79.640625 56 84.28125 50.015625 
Q 88.921875 44.046875 88.921875 33.015625 
L 88.921875 0 
L 79.890625 0 
L 79.890625 32.71875 
Q 79.890625 40.578125 77.09375 44.375 
Q 74.3125 48.1875 68.609375 48.1875 
Q 61.625 48.1875 57.5625 43.546875 
Q 53.515625 38.921875 53.515625 30.90625 
L 53.515625 0 
L 44.484375 0 
L 44.484375 32.71875 
Q 44.484375 40.625 41.703125 44.40625 
Q 38.921875 48.1875 33.109375 48.1875 
Q 26.21875 48.1875 22.15625 43.53125 
Q 18.109375 38.875 18.109375 30.90625 
L 18.109375 0 
L 9.078125 0 
L 9.078125 54.6875 
L 18.109375 54.6875 
L 18.109375 46.1875 
Q 21.1875 51.21875 25.484375 53.609375 
Q 29.78125 56 35.6875 56 
Q 41.65625 56 45.828125 52.96875 
Q 50 49.953125 52 44.1875 
z
" id="DejaVuSans-6d"/>
      <path d="M 30.609375 48.390625 
Q 23.390625 48.390625 19.1875 42.75 
Q 14.984375 37.109375 14.984375 27.296875 
Q 14.984375 17.484375 19.15625 11.84375 
Q 23.34375 6.203125 30.609375 6.203125 
Q 37.796875 6.203125 41.984375 11.859375 
Q 46.1875 17.53125 46.1875 27.296875 
Q 46.1875 37.015625 41.984375 42.703125 
Q 37.796875 48.390625 30.609375 48.390625 
z
M 30.609375 56 
Q 42.328125 56 49.015625 48.375 
Q 55.71875 40.765625 55.71875 27.296875 
Q 55.71875 13.875 49.015625 6.21875 
Q 42.328125 -1.421875 30.609375 -1.421875 
Q 18.84375 -1.421875 12.171875 6.21875 
Q 5.515625 13.875 5.515625 27.296875 
Q 5.515625 40.765625 12.171875 48.375 
Q 18.84375 56 30.609375 56 
z
" id="DejaVuSans-6f"/>
      <path d="M 41.109375 46.296875 
Q 39.59375 47.171875 37.8125 47.578125 
Q 36.03125 48 33.890625 48 
Q 26.265625 48 22.1875 43.046875 
Q 18.109375 38.09375 18.109375 28.8125 
L 18.109375 0 
L 9.078125 0 
L 9.078125 54.6875 
L 18.109375 54.6875 
L 18.109375 46.1875 
Q 20.953125 51.171875 25.484375 53.578125 
Q 30.03125 56 36.53125 56 
Q 37.453125 56 38.578125 55.875 
Q 39.703125 55.765625 41.0625 55.515625 
z
" id="DejaVuSans-72"/>
     </defs>
     <g transform="translate(46.31175 447.79875)rotate(-90)scale(0.168 -0.168)">
      <use xlink:href="#DejaVuSans-53"/>
      <use x="63.476562" xlink:href="#DejaVuSans-65"/>
      <use x="125" xlink:href="#DejaVuSans-6e"/>
      <use x="188.378906" xlink:href="#DejaVuSans-74"/>
      <use x="227.587891" xlink:href="#DejaVuSans-69"/>
      <use x="255.371094" xlink:href="#DejaVuSans-6d"/>
      <use x="352.783203" xlink:href="#DejaVuSans-65"/>
      <use x="414.306641" xlink:href="#DejaVuSans-6e"/>
      <use x="477.685547" xlink:href="#DejaVuSans-74"/>
      <use x="516.894531" xlink:href="#DejaVuSans-20"/>
      <use x="548.681641" xlink:href="#DejaVuSans-53"/>
      <use x="612.158203" xlink:href="#DejaVuSans-63"/>
      <use x="667.138672" xlink:href="#DejaVuSans-6f"/>
      <use x="728.320312" xlink:href="#DejaVuSans-72"/>
      <use x="769.402344" xlink:href="#DejaVuSans-65"/>
     </g>
    </g>
   </g>
   <g id="line2d_21">
    <path clip-path="url(#pe35872b448)" d="M 172.145455 643.090909 
L 176.620121 625.076333 
L 181.094787 607.961143 
L 185.569453 591.741354 
L 189.83104 577.140076 
L 193.879548 564.049187 
L 197.714976 552.357818 
L 201.550404 541.356171 
L 205.385832 531.027502 
L 209.647419 520.240311 
L 217.744434 499.977197 
L 220.301386 492.854639 
L 222.858338 485.073115 
L 229.037639 465.806288 
L 230.316115 465.041739 
L 231.594591 464.531611 
L 232.659988 464.318611 
L 233.725385 464.321145 
L 234.790782 464.558793 
L 235.856178 465.045351 
L 236.921575 465.788011 
L 237.986972 466.793174 
L 239.265448 468.356696 
L 240.543924 470.319473 
L 241.8224 472.687546 
L 243.313955 475.963618 
L 244.805511 479.77479 
L 246.510145 484.747704 
L 248.42786 491.074162 
L 250.558653 498.898098 
L 254.60716 514.923127 
L 257.164113 524.542652 
L 259.081827 530.921405 
L 260.573382 535.209973 
L 262.064937 538.808287 
L 263.343414 541.280295 
L 264.40881 542.90036 
L 265.474207 544.130534 
L 266.539604 544.983908 
L 267.391921 545.406356 
L 268.244238 545.608582 
L 269.096556 545.602904 
L 269.948873 545.404139 
L 271.01427 544.911217 
L 272.292746 544.017251 
L 273.784301 542.673787 
L 279.324364 537.385724 
L 281.668237 535.566822 
L 284.01211 534.046464 
L 286.355983 532.806998 
L 288.699855 531.828955 
L 291.043728 531.093776 
L 293.387601 530.589945 
L 295.944553 530.283341 
L 298.714585 530.181884 
L 302.336933 530.28381 
L 316.613249 531.105341 
L 318.957122 531.601734 
L 320.874836 532.204288 
L 322.366392 532.920083 
L 323.644868 533.801495 
L 324.923344 534.985174 
L 326.20182 536.507212 
L 327.480296 538.389946 
L 328.758772 540.642974 
L 330.250327 543.731969 
L 331.954962 547.825026 
L 333.872676 553.046967 
L 336.216549 560.093127 
L 344.100485 584.438664 
L 346.231278 590.025058 
L 348.148992 594.440248 
L 349.853627 597.838955 
L 351.558262 600.731346 
L 353.049817 602.844671 
L 354.541373 604.571289 
L 355.819849 605.75123 
L 357.098325 606.661694 
L 358.376801 607.313285 
L 359.655277 607.722292 
L 360.933753 607.914548 
L 362.425308 607.919497 
L 369.456927 607.561093 
L 373.079275 607.847239 
L 376.914704 608.332727 
L 384.58556 609.468048 
L 386.716353 609.476724 
L 388.420988 609.265625 
L 390.125623 608.812993 
L 391.617178 608.190196 
L 393.108734 607.328591 
L 394.600289 606.206399 
L 396.091845 604.808011 
L 397.796479 602.867771 
L 399.501114 600.583305 
L 401.418828 597.653208 
L 403.97578 593.302926 
L 408.237367 585.518383 
L 412.498954 577.859256 
L 415.268985 573.335959 
L 417.612858 569.95019 
L 419.530572 567.543619 
L 421.448286 565.501016 
L 423.152921 564.00705 
L 424.857556 562.819417 
L 426.349111 562.026813 
L 427.840667 561.453939 
L 429.545301 561.04511 
L 431.889174 560.775402 
L 433.593809 560.499399 
L 435.085364 560.013302 
L 436.36384 559.376428 
L 437.855396 558.369752 
L 439.346951 557.089875 
L 441.051586 555.32308 
L 442.9693 553.003219 
L 445.952411 548.971761 
L 450.213998 543.25453 
L 452.77095 540.201237 
L 454.901743 537.983395 
L 456.819457 536.280477 
L 458.737172 534.877933 
L 460.441806 533.889161 
L 462.146441 533.142171 
L 463.851076 532.629304 
L 465.555711 532.33632 
L 467.473425 532.243461 
L 469.391139 532.366602 
L 471.735011 532.751376 
L 474.718122 533.49389 
L 481.110503 535.410101 
L 485.585169 536.615425 
L 489.207518 537.35898 
L 495.386819 538.579042 
L 497.943771 539.332134 
L 500.074564 540.180155 
L 502.205358 541.266619 
L 504.336151 542.595595 
L 506.680024 544.333226 
L 509.236976 546.53085 
L 512.007007 549.215003 
L 515.416277 552.851331 
L 520.95634 559.145592 
L 523.726371 562.603215 
L 526.496403 566.456213 
L 530.54491 572.553706 
L 534.380338 578.22403 
L 536.511132 580.965447 
L 538.215767 582.832587 
L 539.920401 584.384263 
L 541.625036 585.639969 
L 543.75583 586.898538 
L 546.95202 588.498948 
L 550.574369 590.058013 
L 554.196717 591.388569 
L 556.75367 592.10716 
L 558.884463 592.464332 
L 561.228336 592.626188 
L 563.785288 592.581101 
L 569.751509 592.32873 
L 571.243065 592.586336 
L 572.73462 593.06084 
L 574.226176 593.765182 
L 575.717731 594.699461 
L 577.422366 596.028181 
L 579.766239 598.185454 
L 587.010936 605.119365 
L 589.14173 606.726051 
L 590.846364 607.75496 
L 592.33792 608.391022 
L 593.616396 608.677888 
L 594.681793 608.707329 
L 595.747189 608.530069 
L 596.812586 608.13524 
L 597.877983 607.515777 
L 598.94338 606.66834 
L 600.221856 605.349855 
L 601.500332 603.706717 
L 602.991887 601.395264 
L 604.696522 598.271494 
L 606.614236 594.218228 
L 608.958109 588.656665 
L 612.580458 579.340556 
L 616.628965 569.083188 
L 618.972838 563.781167 
L 620.677473 560.422599 
L 621.955949 558.333932 
L 623.021345 556.954481 
L 624.086742 555.93913 
L 624.939059 555.401439 
L 625.791377 555.11208 
L 626.643694 555.069441 
L 627.496012 555.26715 
L 628.348329 555.694957 
L 629.413726 556.530971 
L 630.479122 557.666706 
L 631.757598 559.359764 
L 633.462233 562.008273 
L 638.576137 570.193889 
L 640.280772 572.394557 
L 641.772328 573.943313 
L 643.050804 574.957463 
L 644.32928 575.669027 
L 645.394676 576.030397 
L 646.460073 576.1817 
L 647.52547 576.10997 
L 648.590867 575.81835 
L 649.869343 575.214037 
L 651.360898 574.212792 
L 653.065533 572.756044 
L 655.196326 570.595986 
L 658.605596 566.747013 
L 661.801786 563.237497 
L 663.293341 561.903026 
L 664.358738 561.196271 
L 665.424135 560.750025 
L 666.276452 560.606654 
L 667.128769 560.671075 
L 667.981087 560.957069 
L 668.833404 561.475846 
L 669.685722 562.236438 
L 670.751118 563.537769 
L 671.816515 565.235291 
L 672.881912 567.328461 
L 674.160388 570.349754 
L 675.651943 574.533901 
L 677.356578 580.068856 
L 679.700451 588.541635 
L 686.732069 614.427023 
L 688.862862 621.217678 
L 690.567497 625.953985 
L 692.059053 629.524298 
L 693.550608 632.52687 
L 694.829084 634.630976 
L 696.10756 636.293639 
L 697.172957 637.342344 
L 698.238354 638.090906 
L 699.30375 638.551242 
L 700.369147 638.740531 
L 701.434544 638.682024 
L 702.49994 638.406068 
L 703.778417 637.842295 
L 705.269972 636.946806 
L 706.974607 635.658142 
L 708.892321 633.932001 
L 711.662352 631.105011 
L 715.923939 626.73549 
L 717.841653 625.109261 
L 719.546288 623.959193 
L 721.890161 622.657262 
L 725.51251 620.932566 
L 733.396445 617.262688 
L 734.888001 616.161904 
L 736.379556 614.750483 
L 737.871111 613.007367 
L 739.362667 610.92362 
L 741.067302 608.131179 
L 742.985016 604.524462 
L 745.541968 599.177962 
L 752.573586 584.252988 
L 755.343618 578.895316 
L 757.68749 574.842558 
L 759.605205 571.93909 
L 761.522919 569.438883 
L 763.440633 567.316416 
L 765.145267 565.754487 
L 766.849902 564.503151 
L 768.128378 563.827994 
L 769.193775 563.484384 
L 770.259172 563.359089 
L 771.324568 563.456438 
L 772.389965 563.767769 
L 773.668441 564.392495 
L 775.159997 565.388101 
L 776.864631 566.804344 
L 778.569266 568.531422 
L 780.273901 570.578576 
L 782.191615 573.260249 
L 784.109329 576.333279 
L 786.453202 580.565109 
L 789.223233 586.053517 
L 794.124058 596.355832 
L 797.959486 604.172966 
L 800.942597 609.747133 
L 803.499549 614.07368 
L 805.843422 617.635833 
L 807.974215 620.495977 
L 809.89193 622.702001 
L 811.596564 624.307183 
L 813.08812 625.391936 
L 814.366596 626.060718 
L 815.645072 626.475261 
L 816.923548 626.630375 
L 818.202024 626.52763 
L 819.4805 626.174992 
L 820.758976 625.587501 
L 822.250532 624.635021 
L 823.955166 623.247806 
L 825.87288 621.370183 
L 828.216753 618.742585 
L 832.47834 613.892413 
L 834.396054 612.093081 
L 836.526848 610.40683 
L 839.296879 608.5339 
L 841.853831 606.744733 
L 843.984625 604.966609 
L 846.115418 602.891169 
L 848.246211 600.498907 
L 850.377005 597.76687 
L 852.720878 594.372664 
L 855.27783 590.239739 
L 858.260941 584.958242 
L 866.357956 570.283126 
L 868.27567 567.39841 
L 869.980304 565.229224 
L 871.47186 563.684305 
L 872.750336 562.639972 
L 874.028812 561.854826 
L 875.307288 561.315656 
L 876.585764 560.994556 
L 878.077319 560.835547 
L 880.208113 560.838521 
L 881.912748 561.01673 
L 883.830462 561.452041 
L 887.452811 562.554645 
L 889.583604 563.41062 
L 891.288239 564.340926 
L 892.992874 565.547886 
L 894.697508 567.058456 
L 896.402143 568.876552 
L 898.319857 571.267994 
L 900.876809 574.884662 
L 903.220682 578.0481 
L 904.712237 579.699531 
L 905.990713 580.787988 
L 907.05611 581.425761 
L 908.121507 581.79809 
L 909.186904 581.895012 
L 910.2523 581.714844 
L 911.317697 581.273085 
L 912.596173 580.476011 
L 914.300808 579.125348 
L 919.627791 574.676552 
L 921.332426 573.593624 
L 923.037061 572.77723 
L 924.528616 572.29407 
L 926.020172 572.02447 
L 927.511727 571.957516 
L 929.216362 572.107289 
L 931.134076 572.527963 
L 933.264869 573.25714 
L 935.608742 574.312975 
L 939.870329 576.57426 
L 945.836551 579.640201 
L 948.180424 580.611884 
L 950.098138 581.184071 
L 951.802772 581.4735 
L 953.294328 581.526892 
L 954.785883 581.371185 
L 956.277439 580.98849 
L 957.768994 580.378361 
L 959.473629 579.438721 
L 961.391343 578.131498 
L 963.948295 576.108337 
L 970.553755 570.74427 
L 973.110707 569.009993 
L 975.2415 567.817447 
L 977.159214 566.994012 
L 978.863849 566.49831 
L 980.568484 566.253291 
L 982.060039 566.258906 
L 983.551595 566.473244 
L 985.256229 566.963127 
L 986.960864 567.684777 
L 989.091657 568.835442 
L 995.057879 572.229309 
L 998.680228 573.988824 
L 999.958704 574.365419 
L 1001.23718 574.49318 
L 1002.515656 574.360109 
L 1003.794132 573.966303 
L 1005.072608 573.321244 
L 1006.351084 572.442523 
L 1007.84264 571.156178 
L 1009.760354 569.184428 
L 1014.23502 564.428902 
L 1015.939655 563.056149 
L 1020.201242 559.855256 
L 1021.692797 558.396655 
L 1023.184352 556.617585 
L 1024.675908 554.437889 
L 1026.167463 551.82713 
L 1027.872098 548.375969 
L 1030.002891 543.493273 
L 1032.772923 536.503593 
L 1040.656859 516.184885 
L 1043.213811 510.384782 
L 1045.344604 506.089699 
L 1047.262318 502.682911 
L 1049.180032 499.702499 
L 1051.097746 497.129627 
L 1053.01546 494.93891 
L 1054.933175 493.090464 
L 1056.850889 491.536237 
L 1058.981682 490.103007 
L 1061.325555 488.82017 
L 1063.882507 487.699318 
L 1066.439459 486.824805 
L 1068.783332 486.241102 
L 1071.340284 485.842885 
L 1074.110316 485.404986 
L 1075.388792 484.983347 
L 1076.667268 484.315933 
L 1077.732664 483.528337 
L 1078.798061 482.471572 
L 1079.863458 481.099217 
L 1080.928854 479.382196 
L 1082.207331 476.851483 
L 1083.485807 473.817025 
L 1084.977362 469.654106 
L 1086.468917 464.803559 
L 1088.173552 458.474238 
L 1090.304346 449.605209 
L 1093.287456 436.086643 
L 1098.401361 412.873438 
L 1101.384471 400.546465 
L 1104.154503 390.0155 
L 1107.137614 379.57638 
L 1110.120725 369.917592 
L 1113.316915 360.32596 
L 1116.300026 352.026513 
L 1119.496216 343.802437 
L 1122.692406 336.182694 
L 1125.249358 330.650977 
L 1127.167072 327.0006 
L 1128.871707 324.241357 
L 1130.150183 322.558774 
L 1131.428659 321.222811 
L 1132.707135 320.223389 
L 1133.772532 319.6384 
L 1134.837928 319.276182 
L 1135.903325 319.141714 
L 1136.968722 319.239363 
L 1138.034119 319.573016 
L 1139.099515 320.144477 
L 1140.164912 320.955707 
L 1141.443388 322.251871 
L 1142.721864 323.919711 
L 1144.00034 325.978115 
L 1145.278816 328.44064 
L 1146.770372 331.844808 
L 1148.261927 335.842781 
L 1149.753482 340.446975 
L 1151.458117 346.445854 
L 1153.375831 354.076319 
L 1155.506625 363.516349 
L 1157.850497 374.948398 
L 1160.40745 388.602083 
L 1163.177481 404.63019 
L 1166.373671 424.502347 
L 1170.422179 451.268901 
L 1175.962242 487.974912 
L 1178.306114 501.908872 
L 1180.223829 511.9588 
L 1181.928463 519.706787 
L 1183.420019 525.558736 
L 1185.124653 531.31347 
L 1186.829288 536.23672 
L 1188.320844 539.885968 
L 1189.812399 542.907114 
L 1191.090875 545.037574 
L 1192.369351 546.77199 
L 1193.647827 548.110197 
L 1194.713224 548.936435 
L 1195.778621 549.52464 
L 1197.057097 549.966415 
L 1198.335573 550.180496 
L 1199.614049 550.171751 
L 1200.892525 549.931131 
L 1202.171001 549.467105 
L 1203.662556 548.668159 
L 1205.367191 547.463595 
L 1207.284905 545.82277 
L 1210.907254 542.342051 
L 1213.464206 540.060267 
L 1215.808079 538.273809 
L 1217.938872 536.920546 
L 1220.069666 535.821799 
L 1222.413539 534.873078 
L 1224.970491 534.083224 
L 1227.953601 533.395157 
L 1232.002109 532.508692 
L 1233.706744 531.840544 
L 1235.198299 531.027035 
L 1236.689855 529.983663 
L 1238.394489 528.507426 
L 1240.099124 526.739691 
L 1242.016838 524.426671 
L 1244.147632 521.498393 
L 1246.278425 518.2285 
L 1248.196139 514.892676 
L 1249.900774 511.484998 
L 1251.605409 507.524363 
L 1253.310043 502.942062 
L 1254.37544 499.751989 
L 1255.866995 492.640141 
L 1257.78471 482.299642 
L 1260.554741 466.001483 
L 1265.242487 436.85204 
L 1273.76566 382.259541 
L 1281.649596 330.477657 
L 1287.828897 288.470656 
L 1293.795119 246.330693 
L 1299.335182 205.583892 
L 1304.236006 167.914753 
L 1309.56299 125.164655 
L 1311.054545 112.909091 
L 1311.054545 112.909091 
" style="fill:none;stroke:#008fd5;stroke-width:4;"/>
   </g>
   <g id="patch_3">
    <path d="M 115.2 669.6 
L 115.2 86.4 
" style="fill:none;stroke:#f0f0f0;stroke-linecap:square;stroke-linejoin:miter;stroke-width:3;"/>
   </g>
   <g id="patch_4">
    <path d="M 1368 669.6 
L 1368 86.4 
" style="fill:none;stroke:#f0f0f0;stroke-linecap:square;stroke-linejoin:miter;stroke-width:3;"/>
   </g>
   <g id="patch_5">
    <path d="M 115.2 669.6 
L 1368 669.6 
" style="fill:none;stroke:#f0f0f0;stroke-linecap:square;stroke-linejoin:miter;stroke-width:3;"/>
   </g>
   <g id="patch_6">
    <path d="M 115.2 86.4 
L 1368 86.4 
" style="fill:none;stroke:#f0f0f0;stroke-linecap:square;stroke-linejoin:miter;stroke-width:3;"/>
   </g>
   <g id="legend_1">
    <g id="patch_7">
     <path d="M 125 118.149375 
L 280.53125 118.149375 
Q 283.33125 118.149375 283.33125 115.349375 
L 283.33125 96.2 
Q 283.33125 93.4 280.53125 93.4 
L 125 93.4 
Q 122.2 93.4 122.2 96.2 
L 122.2 115.349375 
Q 122.2 118.149375 125 118.149375 
z
" style="fill:#f0f0f0;opacity:0.8;stroke:#cccccc;stroke-linejoin:miter;stroke-width:0.5;"/>
    </g>
    <g id="line2d_22">
     <path d="M 127.8 104.737812 
L 155.8 104.737812 
" style="fill:none;stroke:#008fd5;stroke-width:4;"/>
    </g>
    <g id="line2d_23"/>
    <g id="text_13">
     <!-- Gunslinger, The -->
     <defs>
      <path d="M 59.515625 10.40625 
L 59.515625 29.984375 
L 43.40625 29.984375 
L 43.40625 38.09375 
L 69.28125 38.09375 
L 69.28125 6.78125 
Q 63.578125 2.734375 56.6875 0.65625 
Q 49.8125 -1.421875 42 -1.421875 
Q 24.90625 -1.421875 15.25 8.5625 
Q 5.609375 18.5625 5.609375 36.375 
Q 5.609375 54.25 15.25 64.234375 
Q 24.90625 74.21875 42 74.21875 
Q 49.125 74.21875 55.546875 72.453125 
Q 61.96875 70.703125 67.390625 67.28125 
L 67.390625 56.78125 
Q 61.921875 61.421875 55.765625 63.765625 
Q 49.609375 66.109375 42.828125 66.109375 
Q 29.4375 66.109375 22.71875 58.640625 
Q 16.015625 51.171875 16.015625 36.375 
Q 16.015625 21.625 22.71875 14.15625 
Q 29.4375 6.6875 42.828125 6.6875 
Q 48.046875 6.6875 52.140625 7.59375 
Q 56.25 8.5 59.515625 10.40625 
z
" id="DejaVuSans-47"/>
      <path d="M 8.5 21.578125 
L 8.5 54.6875 
L 17.484375 54.6875 
L 17.484375 21.921875 
Q 17.484375 14.15625 20.5 10.265625 
Q 23.53125 6.390625 29.59375 6.390625 
Q 36.859375 6.390625 41.078125 11.03125 
Q 45.3125 15.671875 45.3125 23.6875 
L 45.3125 54.6875 
L 54.296875 54.6875 
L 54.296875 0 
L 45.3125 0 
L 45.3125 8.40625 
Q 42.046875 3.421875 37.71875 1 
Q 33.40625 -1.421875 27.6875 -1.421875 
Q 18.265625 -1.421875 13.375 4.4375 
Q 8.5 10.296875 8.5 21.578125 
z
M 31.109375 56 
z
" id="DejaVuSans-75"/>
      <path d="M 44.28125 53.078125 
L 44.28125 44.578125 
Q 40.484375 46.53125 36.375 47.5 
Q 32.28125 48.484375 27.875 48.484375 
Q 21.1875 48.484375 17.84375 46.4375 
Q 14.5 44.390625 14.5 40.28125 
Q 14.5 37.15625 16.890625 35.375 
Q 19.28125 33.59375 26.515625 31.984375 
L 29.59375 31.296875 
Q 39.15625 29.25 43.1875 25.515625 
Q 47.21875 21.78125 47.21875 15.09375 
Q 47.21875 7.46875 41.1875 3.015625 
Q 35.15625 -1.421875 24.609375 -1.421875 
Q 20.21875 -1.421875 15.453125 -0.5625 
Q 10.6875 0.296875 5.421875 2 
L 5.421875 11.28125 
Q 10.40625 8.6875 15.234375 7.390625 
Q 20.0625 6.109375 24.8125 6.109375 
Q 31.15625 6.109375 34.5625 8.28125 
Q 37.984375 10.453125 37.984375 14.40625 
Q 37.984375 18.0625 35.515625 20.015625 
Q 33.0625 21.96875 24.703125 23.78125 
L 21.578125 24.515625 
Q 13.234375 26.265625 9.515625 29.90625 
Q 5.8125 33.546875 5.8125 39.890625 
Q 5.8125 47.609375 11.28125 51.796875 
Q 16.75 56 26.8125 56 
Q 31.78125 56 36.171875 55.265625 
Q 40.578125 54.546875 44.28125 53.078125 
z
" id="DejaVuSans-73"/>
      <path d="M 9.421875 75.984375 
L 18.40625 75.984375 
L 18.40625 0 
L 9.421875 0 
z
" id="DejaVuSans-6c"/>
      <path d="M 45.40625 27.984375 
Q 45.40625 37.75 41.375 43.109375 
Q 37.359375 48.484375 30.078125 48.484375 
Q 22.859375 48.484375 18.828125 43.109375 
Q 14.796875 37.75 14.796875 27.984375 
Q 14.796875 18.265625 18.828125 12.890625 
Q 22.859375 7.515625 30.078125 7.515625 
Q 37.359375 7.515625 41.375 12.890625 
Q 45.40625 18.265625 45.40625 27.984375 
z
M 54.390625 6.78125 
Q 54.390625 -7.171875 48.1875 -13.984375 
Q 42 -20.796875 29.203125 -20.796875 
Q 24.46875 -20.796875 20.265625 -20.09375 
Q 16.0625 -19.390625 12.109375 -17.921875 
L 12.109375 -9.1875 
Q 16.0625 -11.328125 19.921875 -12.34375 
Q 23.78125 -13.375 27.78125 -13.375 
Q 36.625 -13.375 41.015625 -8.765625 
Q 45.40625 -4.15625 45.40625 5.171875 
L 45.40625 9.625 
Q 42.625 4.78125 38.28125 2.390625 
Q 33.9375 0 27.875 0 
Q 17.828125 0 11.671875 7.65625 
Q 5.515625 15.328125 5.515625 27.984375 
Q 5.515625 40.671875 11.671875 48.328125 
Q 17.828125 56 27.875 56 
Q 33.9375 56 38.28125 53.609375 
Q 42.625 51.21875 45.40625 46.390625 
L 45.40625 54.6875 
L 54.390625 54.6875 
z
" id="DejaVuSans-67"/>
      <path d="M 11.71875 12.40625 
L 22.015625 12.40625 
L 22.015625 4 
L 14.015625 -11.625 
L 7.71875 -11.625 
L 11.71875 4 
z
" id="DejaVuSans-2c"/>
      <path d="M -0.296875 72.90625 
L 61.375 72.90625 
L 61.375 64.59375 
L 35.5 64.59375 
L 35.5 0 
L 25.59375 0 
L 25.59375 64.59375 
L -0.296875 64.59375 
z
" id="DejaVuSans-54"/>
      <path d="M 54.890625 33.015625 
L 54.890625 0 
L 45.90625 0 
L 45.90625 32.71875 
Q 45.90625 40.484375 42.875 44.328125 
Q 39.84375 48.1875 33.796875 48.1875 
Q 26.515625 48.1875 22.3125 43.546875 
Q 18.109375 38.921875 18.109375 30.90625 
L 18.109375 0 
L 9.078125 0 
L 9.078125 75.984375 
L 18.109375 75.984375 
L 18.109375 46.1875 
Q 21.34375 51.125 25.703125 53.5625 
Q 30.078125 56 35.796875 56 
Q 45.21875 56 50.046875 50.171875 
Q 54.890625 44.34375 54.890625 33.015625 
z
" id="DejaVuSans-68"/>
     </defs>
     <g transform="translate(167 109.637812)scale(0.14 -0.14)">
      <use xlink:href="#DejaVuSans-47"/>
      <use x="77.490234" xlink:href="#DejaVuSans-75"/>
      <use x="140.869141" xlink:href="#DejaVuSans-6e"/>
      <use x="204.248047" xlink:href="#DejaVuSans-73"/>
      <use x="256.347656" xlink:href="#DejaVuSans-6c"/>
      <use x="284.130859" xlink:href="#DejaVuSans-69"/>
      <use x="311.914062" xlink:href="#DejaVuSans-6e"/>
      <use x="375.292969" xlink:href="#DejaVuSans-67"/>
      <use x="438.769531" xlink:href="#DejaVuSans-65"/>
      <use x="500.292969" xlink:href="#DejaVuSans-72"/>
      <use x="541.40625" xlink:href="#DejaVuSans-2c"/>
      <use x="573.193359" xlink:href="#DejaVuSans-20"/>
      <use x="604.980469" xlink:href="#DejaVuSans-54"/>
      <use x="666.064453" xlink:href="#DejaVuSans-68"/>
      <use x="729.443359" xlink:href="#DejaVuSans-65"/>
     </g>
    </g>
   </g>
  </g>
 </g>
 <defs>
  <clipPath id="pe35872b448">
   <rect height="583.2" width="1252.8" x="115.2" y="86.4"/>
  </clipPath>
 </defs>
</svg>
