<?xml version="1.0" encoding="utf-8" standalone="no"?>
<!DOCTYPE svg PUBLIC "-//W3C//DTD SVG 1.1//EN"
  "http://www.w3.org/Graphics/SVG/1.1/DTD/svg11.dtd">
<!-- Created with matplotlib (http://matplotlib.org/) -->
<svg height="720pt" version="1.1" viewBox="0 0 1440 720" width="1440pt" xmlns="http://www.w3.org/2000/svg" xmlns:xlink="http://www.w3.org/1999/xlink">
 <defs>
  <style type="text/css">
*{stroke-linecap:butt;stroke-linejoin:round;}
  </style>
 </defs>
 <g id="figure_1">
  <g id="patch_1">
   <path d="M 0 720 
L 1440 720 
L 1440 0 
L 0 0 
z
" style="fill:#f0f0f0;"/>
  </g>
  <g id="axes_1">
   <g id="patch_2">
    <path d="M 115.2 669.6 
L 1368 669.6 
L 1368 86.4 
L 115.2 86.4 
z
" style="fill:#f0f0f0;"/>
   </g>
   <g id="matplotlib.axis_1">
    <g id="xtick_1">
     <g id="line2d_1">
      <path clip-path="url(#pdf58b3e93d)" d="M 172.145455 669.6 
L 172.145455 86.4 
" style="fill:none;stroke:#cbcbcb;"/>
     </g>
     <g id="line2d_2"/>
     <g id="text_1">
      <!-- 0 -->
      <defs>
       <path d="M 4.15625 35.296875 
Q 4.15625 48 6.765625 55.734375 
Q 9.375 63.484375 14.515625 67.671875 
Q 19.671875 71.875 27.484375 71.875 
Q 33.25 71.875 37.59375 69.546875 
Q 41.9375 67.234375 44.765625 62.859375 
Q 47.609375 58.5 49.21875 52.21875 
Q 50.828125 45.953125 50.828125 35.296875 
Q 50.828125 22.703125 48.234375 14.96875 
Q 45.65625 7.234375 40.5 3 
Q 35.359375 -1.21875 27.484375 -1.21875 
Q 17.140625 -1.21875 11.234375 6.203125 
Q 4.15625 15.140625 4.15625 35.296875 
z
M 13.1875 35.296875 
Q 13.1875 17.671875 17.3125 11.828125 
Q 21.4375 6 27.484375 6 
Q 33.546875 6 37.671875 11.859375 
Q 41.796875 17.71875 41.796875 35.296875 
Q 41.796875 52.984375 37.671875 58.78125 
Q 33.546875 64.59375 27.390625 64.59375 
Q 21.34375 64.59375 17.71875 59.46875 
Q 13.1875 52.9375 13.1875 35.296875 
z
" id="ArialMT-30"/>
      </defs>
      <g style="fill:#262626;" transform="translate(169.364986 683.757812)scale(0.1 -0.1)">
       <use xlink:href="#ArialMT-30"/>
      </g>
     </g>
    </g>
    <g id="xtick_2">
     <g id="line2d_3">
      <path clip-path="url(#pdf58b3e93d)" d="M 368.137382 669.6 
L 368.137382 86.4 
" style="fill:none;stroke:#cbcbcb;"/>
     </g>
     <g id="line2d_4"/>
     <g id="text_2">
      <!-- 2000 -->
      <defs>
       <path d="M 50.34375 8.453125 
L 50.34375 0 
L 3.03125 0 
Q 2.9375 3.171875 4.046875 6.109375 
Q 5.859375 10.9375 9.828125 15.625 
Q 13.8125 20.3125 21.34375 26.46875 
Q 33.015625 36.03125 37.109375 41.625 
Q 41.21875 47.21875 41.21875 52.203125 
Q 41.21875 57.421875 37.46875 61 
Q 33.734375 64.59375 27.734375 64.59375 
Q 21.390625 64.59375 17.578125 60.78125 
Q 13.765625 56.984375 13.71875 50.25 
L 4.6875 51.171875 
Q 5.609375 61.28125 11.65625 66.578125 
Q 17.71875 71.875 27.9375 71.875 
Q 38.234375 71.875 44.234375 66.15625 
Q 50.25 60.453125 50.25 52 
Q 50.25 47.703125 48.484375 43.546875 
Q 46.734375 39.40625 42.65625 34.8125 
Q 38.578125 30.21875 29.109375 22.21875 
Q 21.1875 15.578125 18.9375 13.203125 
Q 16.703125 10.84375 15.234375 8.453125 
z
" id="ArialMT-32"/>
      </defs>
      <g style="fill:#262626;" transform="translate(357.015507 683.757812)scale(0.1 -0.1)">
       <use xlink:href="#ArialMT-32"/>
       <use x="55.615234" xlink:href="#ArialMT-30"/>
       <use x="111.230469" xlink:href="#ArialMT-30"/>
       <use x="166.845703" xlink:href="#ArialMT-30"/>
      </g>
     </g>
    </g>
    <g id="xtick_3">
     <g id="line2d_5">
      <path clip-path="url(#pdf58b3e93d)" d="M 564.12931 669.6 
L 564.12931 86.4 
" style="fill:none;stroke:#cbcbcb;"/>
     </g>
     <g id="line2d_6"/>
     <g id="text_3">
      <!-- 4000 -->
      <defs>
       <path d="M 32.328125 0 
L 32.328125 17.140625 
L 1.265625 17.140625 
L 1.265625 25.203125 
L 33.9375 71.578125 
L 41.109375 71.578125 
L 41.109375 25.203125 
L 50.78125 25.203125 
L 50.78125 17.140625 
L 41.109375 17.140625 
L 41.109375 0 
z
M 32.328125 25.203125 
L 32.328125 57.46875 
L 9.90625 25.203125 
z
" id="ArialMT-34"/>
      </defs>
      <g style="fill:#262626;" transform="translate(553.007435 683.757812)scale(0.1 -0.1)">
       <use xlink:href="#ArialMT-34"/>
       <use x="55.615234" xlink:href="#ArialMT-30"/>
       <use x="111.230469" xlink:href="#ArialMT-30"/>
       <use x="166.845703" xlink:href="#ArialMT-30"/>
      </g>
     </g>
    </g>
    <g id="xtick_4">
     <g id="line2d_7">
      <path clip-path="url(#pdf58b3e93d)" d="M 760.121237 669.6 
L 760.121237 86.4 
" style="fill:none;stroke:#cbcbcb;"/>
     </g>
     <g id="line2d_8"/>
     <g id="text_4">
      <!-- 6000 -->
      <defs>
       <path d="M 49.75 54.046875 
L 41.015625 53.375 
Q 39.84375 58.546875 37.703125 60.890625 
Q 34.125 64.65625 28.90625 64.65625 
Q 24.703125 64.65625 21.53125 62.3125 
Q 17.390625 59.28125 14.984375 53.46875 
Q 12.59375 47.65625 12.5 36.921875 
Q 15.671875 41.75 20.265625 44.09375 
Q 24.859375 46.4375 29.890625 46.4375 
Q 38.671875 46.4375 44.84375 39.96875 
Q 51.03125 33.5 51.03125 23.25 
Q 51.03125 16.5 48.125 10.71875 
Q 45.21875 4.9375 40.140625 1.859375 
Q 35.0625 -1.21875 28.609375 -1.21875 
Q 17.625 -1.21875 10.6875 6.859375 
Q 3.765625 14.9375 3.765625 33.5 
Q 3.765625 54.25 11.421875 63.671875 
Q 18.109375 71.875 29.4375 71.875 
Q 37.890625 71.875 43.28125 67.140625 
Q 48.6875 62.40625 49.75 54.046875 
z
M 13.875 23.1875 
Q 13.875 18.65625 15.796875 14.5 
Q 17.71875 10.359375 21.1875 8.171875 
Q 24.65625 6 28.46875 6 
Q 34.03125 6 38.03125 10.484375 
Q 42.046875 14.984375 42.046875 22.703125 
Q 42.046875 30.125 38.078125 34.390625 
Q 34.125 38.671875 28.125 38.671875 
Q 22.171875 38.671875 18.015625 34.390625 
Q 13.875 30.125 13.875 23.1875 
z
" id="ArialMT-36"/>
      </defs>
      <g style="fill:#262626;" transform="translate(748.999362 683.757812)scale(0.1 -0.1)">
       <use xlink:href="#ArialMT-36"/>
       <use x="55.615234" xlink:href="#ArialMT-30"/>
       <use x="111.230469" xlink:href="#ArialMT-30"/>
       <use x="166.845703" xlink:href="#ArialMT-30"/>
      </g>
     </g>
    </g>
    <g id="xtick_5">
     <g id="line2d_9">
      <path clip-path="url(#pdf58b3e93d)" d="M 956.113165 669.6 
L 956.113165 86.4 
" style="fill:none;stroke:#cbcbcb;"/>
     </g>
     <g id="line2d_10"/>
     <g id="text_5">
      <!-- 8000 -->
      <defs>
       <path d="M 17.671875 38.8125 
Q 12.203125 40.828125 9.5625 44.53125 
Q 6.9375 48.25 6.9375 53.421875 
Q 6.9375 61.234375 12.546875 66.546875 
Q 18.171875 71.875 27.484375 71.875 
Q 36.859375 71.875 42.578125 66.421875 
Q 48.296875 60.984375 48.296875 53.171875 
Q 48.296875 48.1875 45.671875 44.5 
Q 43.0625 40.828125 37.75 38.8125 
Q 44.34375 36.671875 47.78125 31.875 
Q 51.21875 27.09375 51.21875 20.453125 
Q 51.21875 11.28125 44.71875 5.03125 
Q 38.234375 -1.21875 27.640625 -1.21875 
Q 17.046875 -1.21875 10.546875 5.046875 
Q 4.046875 11.328125 4.046875 20.703125 
Q 4.046875 27.6875 7.59375 32.390625 
Q 11.140625 37.109375 17.671875 38.8125 
z
M 15.921875 53.71875 
Q 15.921875 48.640625 19.1875 45.40625 
Q 22.46875 42.1875 27.6875 42.1875 
Q 32.765625 42.1875 36.015625 45.375 
Q 39.265625 48.578125 39.265625 53.21875 
Q 39.265625 58.0625 35.90625 61.359375 
Q 32.5625 64.65625 27.59375 64.65625 
Q 22.5625 64.65625 19.234375 61.421875 
Q 15.921875 58.203125 15.921875 53.71875 
z
M 13.09375 20.65625 
Q 13.09375 16.890625 14.875 13.375 
Q 16.65625 9.859375 20.171875 7.921875 
Q 23.6875 6 27.734375 6 
Q 34.03125 6 38.125 10.046875 
Q 42.234375 14.109375 42.234375 20.359375 
Q 42.234375 26.703125 38.015625 30.859375 
Q 33.796875 35.015625 27.4375 35.015625 
Q 21.234375 35.015625 17.15625 30.90625 
Q 13.09375 26.8125 13.09375 20.65625 
z
" id="ArialMT-38"/>
      </defs>
      <g style="fill:#262626;" transform="translate(944.99129 683.757812)scale(0.1 -0.1)">
       <use xlink:href="#ArialMT-38"/>
       <use x="55.615234" xlink:href="#ArialMT-30"/>
       <use x="111.230469" xlink:href="#ArialMT-30"/>
       <use x="166.845703" xlink:href="#ArialMT-30"/>
      </g>
     </g>
    </g>
    <g id="xtick_6">
     <g id="line2d_11">
      <path clip-path="url(#pdf58b3e93d)" d="M 1152.105092 669.6 
L 1152.105092 86.4 
" style="fill:none;stroke:#cbcbcb;"/>
     </g>
     <g id="line2d_12"/>
     <g id="text_6">
      <!-- 10000 -->
      <defs>
       <path d="M 37.25 0 
L 28.46875 0 
L 28.46875 56 
Q 25.296875 52.984375 20.140625 49.953125 
Q 14.984375 46.921875 10.890625 45.40625 
L 10.890625 53.90625 
Q 18.265625 57.375 23.78125 62.296875 
Q 29.296875 67.234375 31.59375 71.875 
L 37.25 71.875 
z
" id="ArialMT-31"/>
      </defs>
      <g style="fill:#262626;" transform="translate(1138.202748 683.757812)scale(0.1 -0.1)">
       <use xlink:href="#ArialMT-31"/>
       <use x="55.615234" xlink:href="#ArialMT-30"/>
       <use x="111.230469" xlink:href="#ArialMT-30"/>
       <use x="166.845703" xlink:href="#ArialMT-30"/>
       <use x="222.460938" xlink:href="#ArialMT-30"/>
      </g>
     </g>
    </g>
    <g id="xtick_7">
     <g id="line2d_13">
      <path clip-path="url(#pdf58b3e93d)" d="M 1348.09702 669.6 
L 1348.09702 86.4 
" style="fill:none;stroke:#cbcbcb;"/>
     </g>
     <g id="line2d_14"/>
     <g id="text_7">
      <!-- 12000 -->
      <g style="fill:#262626;" transform="translate(1334.194676 683.757812)scale(0.1 -0.1)">
       <use xlink:href="#ArialMT-31"/>
       <use x="55.615234" xlink:href="#ArialMT-32"/>
       <use x="111.230469" xlink:href="#ArialMT-30"/>
       <use x="166.845703" xlink:href="#ArialMT-30"/>
       <use x="222.460938" xlink:href="#ArialMT-30"/>
      </g>
     </g>
    </g>
    <g id="text_8">
     <!-- Sentence # -->
     <defs>
      <path d="M 4.5 23 
L 13.421875 23.78125 
Q 14.0625 18.40625 16.375 14.96875 
Q 18.703125 11.53125 23.578125 9.40625 
Q 28.46875 7.28125 34.578125 7.28125 
Q 39.984375 7.28125 44.140625 8.890625 
Q 48.296875 10.5 50.3125 13.296875 
Q 52.34375 16.109375 52.34375 19.4375 
Q 52.34375 22.796875 50.390625 25.3125 
Q 48.4375 27.828125 43.953125 29.546875 
Q 41.0625 30.671875 31.203125 33.03125 
Q 21.34375 35.40625 17.390625 37.5 
Q 12.25 40.1875 9.734375 44.15625 
Q 7.234375 48.140625 7.234375 53.078125 
Q 7.234375 58.5 10.296875 63.203125 
Q 13.375 67.921875 19.28125 70.359375 
Q 25.203125 72.796875 32.421875 72.796875 
Q 40.375 72.796875 46.453125 70.234375 
Q 52.546875 67.671875 55.8125 62.6875 
Q 59.078125 57.71875 59.328125 51.421875 
L 50.25 50.734375 
Q 49.515625 57.515625 45.28125 60.984375 
Q 41.0625 64.453125 32.8125 64.453125 
Q 24.21875 64.453125 20.28125 61.296875 
Q 16.359375 58.15625 16.359375 53.71875 
Q 16.359375 49.859375 19.140625 47.359375 
Q 21.875 44.875 33.421875 42.265625 
Q 44.96875 39.65625 49.265625 37.703125 
Q 55.515625 34.8125 58.484375 30.390625 
Q 61.46875 25.984375 61.46875 20.21875 
Q 61.46875 14.5 58.203125 9.4375 
Q 54.9375 4.390625 48.796875 1.578125 
Q 42.671875 -1.21875 35.015625 -1.21875 
Q 25.296875 -1.21875 18.71875 1.609375 
Q 12.15625 4.4375 8.421875 10.125 
Q 4.6875 15.828125 4.5 23 
z
" id="ArialMT-53"/>
      <path d="M 42.09375 16.703125 
L 51.171875 15.578125 
Q 49.03125 7.625 43.21875 3.21875 
Q 37.40625 -1.171875 28.375 -1.171875 
Q 17 -1.171875 10.328125 5.828125 
Q 3.65625 12.84375 3.65625 25.484375 
Q 3.65625 38.578125 10.390625 45.796875 
Q 17.140625 53.03125 27.875 53.03125 
Q 38.28125 53.03125 44.875 45.953125 
Q 51.46875 38.875 51.46875 26.03125 
Q 51.46875 25.25 51.421875 23.6875 
L 12.75 23.6875 
Q 13.234375 15.140625 17.578125 10.59375 
Q 21.921875 6.0625 28.421875 6.0625 
Q 33.25 6.0625 36.671875 8.59375 
Q 40.09375 11.140625 42.09375 16.703125 
z
M 13.234375 30.90625 
L 42.1875 30.90625 
Q 41.609375 37.453125 38.875 40.71875 
Q 34.671875 45.796875 27.984375 45.796875 
Q 21.921875 45.796875 17.796875 41.75 
Q 13.671875 37.703125 13.234375 30.90625 
z
" id="ArialMT-65"/>
      <path d="M 6.59375 0 
L 6.59375 51.859375 
L 14.5 51.859375 
L 14.5 44.484375 
Q 20.21875 53.03125 31 53.03125 
Q 35.6875 53.03125 39.625 51.34375 
Q 43.5625 49.65625 45.515625 46.921875 
Q 47.46875 44.1875 48.25 40.4375 
Q 48.734375 37.984375 48.734375 31.890625 
L 48.734375 0 
L 39.9375 0 
L 39.9375 31.546875 
Q 39.9375 36.921875 38.90625 39.578125 
Q 37.890625 42.234375 35.28125 43.8125 
Q 32.671875 45.40625 29.15625 45.40625 
Q 23.53125 45.40625 19.453125 41.84375 
Q 15.375 38.28125 15.375 28.328125 
L 15.375 0 
z
" id="ArialMT-6e"/>
      <path d="M 25.78125 7.859375 
L 27.046875 0.09375 
Q 23.34375 -0.6875 20.40625 -0.6875 
Q 15.625 -0.6875 12.984375 0.828125 
Q 10.359375 2.34375 9.28125 4.8125 
Q 8.203125 7.28125 8.203125 15.1875 
L 8.203125 45.015625 
L 1.765625 45.015625 
L 1.765625 51.859375 
L 8.203125 51.859375 
L 8.203125 64.703125 
L 16.9375 69.96875 
L 16.9375 51.859375 
L 25.78125 51.859375 
L 25.78125 45.015625 
L 16.9375 45.015625 
L 16.9375 14.703125 
Q 16.9375 10.9375 17.40625 9.859375 
Q 17.875 8.796875 18.921875 8.15625 
Q 19.96875 7.515625 21.921875 7.515625 
Q 23.390625 7.515625 25.78125 7.859375 
z
" id="ArialMT-74"/>
      <path d="M 40.4375 19 
L 49.078125 17.875 
Q 47.65625 8.9375 41.8125 3.875 
Q 35.984375 -1.171875 27.484375 -1.171875 
Q 16.84375 -1.171875 10.375 5.78125 
Q 3.90625 12.75 3.90625 25.734375 
Q 3.90625 34.125 6.6875 40.421875 
Q 9.46875 46.734375 15.15625 49.875 
Q 20.84375 53.03125 27.546875 53.03125 
Q 35.984375 53.03125 41.359375 48.75 
Q 46.734375 44.484375 48.25 36.625 
L 39.703125 35.296875 
Q 38.484375 40.53125 35.375 43.15625 
Q 32.28125 45.796875 27.875 45.796875 
Q 21.234375 45.796875 17.078125 41.03125 
Q 12.9375 36.28125 12.9375 25.984375 
Q 12.9375 15.53125 16.9375 10.796875 
Q 20.953125 6.0625 27.390625 6.0625 
Q 32.5625 6.0625 36.03125 9.234375 
Q 39.5 12.40625 40.4375 19 
z
" id="ArialMT-63"/>
      <path id="ArialMT-20"/>
      <path d="M 5.03125 -1.21875 
L 9.28125 19.578125 
L 1.03125 19.578125 
L 1.03125 26.859375 
L 10.75 26.859375 
L 14.359375 44.578125 
L 1.03125 44.578125 
L 1.03125 51.859375 
L 15.828125 51.859375 
L 20.0625 72.796875 
L 27.390625 72.796875 
L 23.140625 51.859375 
L 38.53125 51.859375 
L 42.78125 72.796875 
L 50.140625 72.796875 
L 45.90625 51.859375 
L 54.34375 51.859375 
L 54.34375 44.578125 
L 44.4375 44.578125 
L 40.765625 26.859375 
L 54.34375 26.859375 
L 54.34375 19.578125 
L 39.3125 19.578125 
L 35.0625 -1.21875 
L 27.734375 -1.21875 
L 31.9375 19.578125 
L 16.609375 19.578125 
L 12.359375 -1.21875 
z
M 18.0625 26.859375 
L 33.40625 26.859375 
L 37.0625 44.578125 
L 21.6875 44.578125 
z
" id="ArialMT-23"/>
     </defs>
     <g style="fill:#262626;" transform="translate(699.102562 701.770438)scale(0.168 -0.168)">
      <use xlink:href="#ArialMT-53"/>
      <use x="66.699219" xlink:href="#ArialMT-65"/>
      <use x="122.314453" xlink:href="#ArialMT-6e"/>
      <use x="177.929688" xlink:href="#ArialMT-74"/>
      <use x="205.712891" xlink:href="#ArialMT-65"/>
      <use x="261.328125" xlink:href="#ArialMT-6e"/>
      <use x="316.943359" xlink:href="#ArialMT-63"/>
      <use x="366.943359" xlink:href="#ArialMT-65"/>
      <use x="422.558594" xlink:href="#ArialMT-20"/>
      <use x="450.341797" xlink:href="#ArialMT-23"/>
     </g>
    </g>
   </g>
   <g id="matplotlib.axis_2">
    <g id="ytick_1">
     <g id="line2d_15">
      <path clip-path="url(#pdf58b3e93d)" d="M 115.2 654.310003 
L 1368 654.310003 
" style="fill:none;stroke:#cbcbcb;"/>
     </g>
     <g id="line2d_16"/>
     <g id="text_9">
      <!-- −0.004 -->
      <defs>
       <path d="M 52.828125 31.203125 
L 5.5625 31.203125 
L 5.5625 39.40625 
L 52.828125 39.40625 
z
" id="ArialMT-2212"/>
       <path d="M 9.078125 0 
L 9.078125 10.015625 
L 19.09375 10.015625 
L 19.09375 0 
z
" id="ArialMT-2e"/>
      </defs>
      <g style="fill:#262626;" transform="translate(77.3375 657.888909)scale(0.1 -0.1)">
       <use xlink:href="#ArialMT-2212"/>
       <use x="58.398438" xlink:href="#ArialMT-30"/>
       <use x="114.013672" xlink:href="#ArialMT-2e"/>
       <use x="141.796875" xlink:href="#ArialMT-30"/>
       <use x="197.412109" xlink:href="#ArialMT-30"/>
       <use x="253.027344" xlink:href="#ArialMT-34"/>
      </g>
     </g>
    </g>
    <g id="ytick_2">
     <g id="line2d_17">
      <path clip-path="url(#pdf58b3e93d)" d="M 115.2 559.674693 
L 1368 559.674693 
" style="fill:none;stroke:#cbcbcb;"/>
     </g>
     <g id="line2d_18"/>
     <g id="text_10">
      <!-- −0.003 -->
      <defs>
       <path d="M 4.203125 18.890625 
L 12.984375 20.0625 
Q 14.5 12.59375 18.140625 9.296875 
Q 21.78125 6 27 6 
Q 33.203125 6 37.46875 10.296875 
Q 41.75 14.59375 41.75 20.953125 
Q 41.75 27 37.796875 30.921875 
Q 33.84375 34.859375 27.734375 34.859375 
Q 25.25 34.859375 21.53125 33.890625 
L 22.515625 41.609375 
Q 23.390625 41.5 23.921875 41.5 
Q 29.546875 41.5 34.03125 44.421875 
Q 38.53125 47.359375 38.53125 53.46875 
Q 38.53125 58.296875 35.25 61.46875 
Q 31.984375 64.65625 26.8125 64.65625 
Q 21.6875 64.65625 18.265625 61.421875 
Q 14.84375 58.203125 13.875 51.765625 
L 5.078125 53.328125 
Q 6.6875 62.15625 12.390625 67.015625 
Q 18.109375 71.875 26.609375 71.875 
Q 32.46875 71.875 37.390625 69.359375 
Q 42.328125 66.84375 44.9375 62.5 
Q 47.5625 58.15625 47.5625 53.265625 
Q 47.5625 48.640625 45.0625 44.828125 
Q 42.578125 41.015625 37.703125 38.765625 
Q 44.046875 37.3125 47.5625 32.6875 
Q 51.078125 28.078125 51.078125 21.140625 
Q 51.078125 11.765625 44.234375 5.25 
Q 37.40625 -1.265625 26.953125 -1.265625 
Q 17.53125 -1.265625 11.296875 4.34375 
Q 5.078125 9.96875 4.203125 18.890625 
z
" id="ArialMT-33"/>
      </defs>
      <g style="fill:#262626;" transform="translate(77.3375 563.2536)scale(0.1 -0.1)">
       <use xlink:href="#ArialMT-2212"/>
       <use x="58.398438" xlink:href="#ArialMT-30"/>
       <use x="114.013672" xlink:href="#ArialMT-2e"/>
       <use x="141.796875" xlink:href="#ArialMT-30"/>
       <use x="197.412109" xlink:href="#ArialMT-30"/>
       <use x="253.027344" xlink:href="#ArialMT-33"/>
      </g>
     </g>
    </g>
    <g id="ytick_3">
     <g id="line2d_19">
      <path clip-path="url(#pdf58b3e93d)" d="M 115.2 465.039384 
L 1368 465.039384 
" style="fill:none;stroke:#cbcbcb;"/>
     </g>
     <g id="line2d_20"/>
     <g id="text_11">
      <!-- −0.002 -->
      <g style="fill:#262626;" transform="translate(77.3375 468.61829)scale(0.1 -0.1)">
       <use xlink:href="#ArialMT-2212"/>
       <use x="58.398438" xlink:href="#ArialMT-30"/>
       <use x="114.013672" xlink:href="#ArialMT-2e"/>
       <use x="141.796875" xlink:href="#ArialMT-30"/>
       <use x="197.412109" xlink:href="#ArialMT-30"/>
       <use x="253.027344" xlink:href="#ArialMT-32"/>
      </g>
     </g>
    </g>
    <g id="ytick_4">
     <g id="line2d_21">
      <path clip-path="url(#pdf58b3e93d)" d="M 115.2 370.404075 
L 1368 370.404075 
" style="fill:none;stroke:#cbcbcb;"/>
     </g>
     <g id="line2d_22"/>
     <g id="text_12">
      <!-- −0.001 -->
      <g style="fill:#262626;" transform="translate(77.3375 373.982981)scale(0.1 -0.1)">
       <use xlink:href="#ArialMT-2212"/>
       <use x="58.398438" xlink:href="#ArialMT-30"/>
       <use x="114.013672" xlink:href="#ArialMT-2e"/>
       <use x="141.796875" xlink:href="#ArialMT-30"/>
       <use x="197.412109" xlink:href="#ArialMT-30"/>
       <use x="253.027344" xlink:href="#ArialMT-31"/>
      </g>
     </g>
    </g>
    <g id="ytick_5">
     <g id="line2d_23">
      <path clip-path="url(#pdf58b3e93d)" d="M 115.2 275.768765 
L 1368 275.768765 
" style="fill:none;stroke:#cbcbcb;"/>
     </g>
     <g id="line2d_24"/>
     <g id="text_13">
      <!-- 0.000 -->
      <g style="fill:#262626;" transform="translate(83.178125 279.347672)scale(0.1 -0.1)">
       <use xlink:href="#ArialMT-30"/>
       <use x="55.615234" xlink:href="#ArialMT-2e"/>
       <use x="83.398438" xlink:href="#ArialMT-30"/>
       <use x="139.013672" xlink:href="#ArialMT-30"/>
       <use x="194.628906" xlink:href="#ArialMT-30"/>
      </g>
     </g>
    </g>
    <g id="ytick_6">
     <g id="line2d_25">
      <path clip-path="url(#pdf58b3e93d)" d="M 115.2 181.133456 
L 1368 181.133456 
" style="fill:none;stroke:#cbcbcb;"/>
     </g>
     <g id="line2d_26"/>
     <g id="text_14">
      <!-- 0.001 -->
      <g style="fill:#262626;" transform="translate(83.178125 184.712362)scale(0.1 -0.1)">
       <use xlink:href="#ArialMT-30"/>
       <use x="55.615234" xlink:href="#ArialMT-2e"/>
       <use x="83.398438" xlink:href="#ArialMT-30"/>
       <use x="139.013672" xlink:href="#ArialMT-30"/>
       <use x="194.628906" xlink:href="#ArialMT-31"/>
      </g>
     </g>
    </g>
    <g id="ytick_7">
     <g id="line2d_27">
      <path clip-path="url(#pdf58b3e93d)" d="M 115.2 86.498147 
L 1368 86.498147 
" style="fill:none;stroke:#cbcbcb;"/>
     </g>
     <g id="line2d_28"/>
     <g id="text_15">
      <!-- 0.002 -->
      <g style="fill:#262626;" transform="translate(83.178125 90.077053)scale(0.1 -0.1)">
       <use xlink:href="#ArialMT-30"/>
       <use x="55.615234" xlink:href="#ArialMT-2e"/>
       <use x="83.398438" xlink:href="#ArialMT-30"/>
       <use x="139.013672" xlink:href="#ArialMT-30"/>
       <use x="194.628906" xlink:href="#ArialMT-32"/>
      </g>
     </g>
    </g>
    <g id="text_16">
     <!-- Sentiment Score -->
     <defs>
      <path d="M 6.640625 61.46875 
L 6.640625 71.578125 
L 15.4375 71.578125 
L 15.4375 61.46875 
z
M 6.640625 0 
L 6.640625 51.859375 
L 15.4375 51.859375 
L 15.4375 0 
z
" id="ArialMT-69"/>
      <path d="M 6.59375 0 
L 6.59375 51.859375 
L 14.453125 51.859375 
L 14.453125 44.578125 
Q 16.890625 48.390625 20.9375 50.703125 
Q 25 53.03125 30.171875 53.03125 
Q 35.9375 53.03125 39.625 50.640625 
Q 43.3125 48.25 44.828125 43.953125 
Q 50.984375 53.03125 60.84375 53.03125 
Q 68.5625 53.03125 72.703125 48.75 
Q 76.859375 44.484375 76.859375 35.59375 
L 76.859375 0 
L 68.109375 0 
L 68.109375 32.671875 
Q 68.109375 37.9375 67.25 40.25 
Q 66.40625 42.578125 64.15625 43.984375 
Q 61.921875 45.40625 58.890625 45.40625 
Q 53.421875 45.40625 49.796875 41.765625 
Q 46.1875 38.140625 46.1875 30.125 
L 46.1875 0 
L 37.40625 0 
L 37.40625 33.6875 
Q 37.40625 39.546875 35.25 42.46875 
Q 33.109375 45.40625 28.21875 45.40625 
Q 24.515625 45.40625 21.359375 43.453125 
Q 18.21875 41.5 16.796875 37.734375 
Q 15.375 33.984375 15.375 26.90625 
L 15.375 0 
z
" id="ArialMT-6d"/>
      <path d="M 3.328125 25.921875 
Q 3.328125 40.328125 11.328125 47.265625 
Q 18.015625 53.03125 27.640625 53.03125 
Q 38.328125 53.03125 45.109375 46.015625 
Q 51.90625 39.015625 51.90625 26.65625 
Q 51.90625 16.65625 48.90625 10.90625 
Q 45.90625 5.171875 40.15625 2 
Q 34.421875 -1.171875 27.640625 -1.171875 
Q 16.75 -1.171875 10.03125 5.8125 
Q 3.328125 12.796875 3.328125 25.921875 
z
M 12.359375 25.921875 
Q 12.359375 15.96875 16.703125 11.015625 
Q 21.046875 6.0625 27.640625 6.0625 
Q 34.1875 6.0625 38.53125 11.03125 
Q 42.875 16.015625 42.875 26.21875 
Q 42.875 35.84375 38.5 40.796875 
Q 34.125 45.75 27.640625 45.75 
Q 21.046875 45.75 16.703125 40.8125 
Q 12.359375 35.890625 12.359375 25.921875 
z
" id="ArialMT-6f"/>
      <path d="M 6.5 0 
L 6.5 51.859375 
L 14.40625 51.859375 
L 14.40625 44 
Q 17.4375 49.515625 20 51.265625 
Q 22.5625 53.03125 25.640625 53.03125 
Q 30.078125 53.03125 34.671875 50.203125 
L 31.640625 42.046875 
Q 28.421875 43.953125 25.203125 43.953125 
Q 22.3125 43.953125 20.015625 42.21875 
Q 17.71875 40.484375 16.75 37.40625 
Q 15.28125 32.71875 15.28125 27.15625 
L 15.28125 0 
z
" id="ArialMT-72"/>
     </defs>
     <g style="fill:#262626;" transform="translate(69.9985 440.094375)rotate(-90)scale(0.168 -0.168)">
      <use xlink:href="#ArialMT-53"/>
      <use x="66.699219" xlink:href="#ArialMT-65"/>
      <use x="122.314453" xlink:href="#ArialMT-6e"/>
      <use x="177.929688" xlink:href="#ArialMT-74"/>
      <use x="205.712891" xlink:href="#ArialMT-69"/>
      <use x="227.929688" xlink:href="#ArialMT-6d"/>
      <use x="311.230469" xlink:href="#ArialMT-65"/>
      <use x="366.845703" xlink:href="#ArialMT-6e"/>
      <use x="422.460938" xlink:href="#ArialMT-74"/>
      <use x="450.244141" xlink:href="#ArialMT-20"/>
      <use x="478.027344" xlink:href="#ArialMT-53"/>
      <use x="544.726562" xlink:href="#ArialMT-63"/>
      <use x="594.726562" xlink:href="#ArialMT-6f"/>
      <use x="650.341797" xlink:href="#ArialMT-72"/>
      <use x="683.642578" xlink:href="#ArialMT-65"/>
     </g>
    </g>
   </g>
   <g id="line2d_29">
    <path clip-path="url(#pdf58b3e93d)" d="M 172.145455 223.01917 
L 176.359281 237.342046 
L 180.475111 250.540413 
L 184.590942 262.988411 
L 188.902764 275.320827 
L 194.684526 291.116697 
L 203.700155 315.738107 
L 207.717989 327.44839 
L 211.245844 338.411097 
L 214.577707 349.501861 
L 217.811574 361.056338 
L 221.339428 374.541308 
L 226.533214 394.546479 
L 227.905158 398.897568 
L 228.983114 401.602721 
L 230.551049 404.966346 
L 232.020988 407.614778 
L 233.490928 409.82554 
L 234.862871 411.509122 
L 236.234815 412.85504 
L 237.606758 413.901379 
L 238.978702 414.674365 
L 240.448641 415.235016 
L 242.212569 415.647467 
L 244.466476 415.932007 
L 247.308359 416.05322 
L 251.424189 416.206815 
L 252.992125 416.536402 
L 254.462064 417.078962 
L 255.834008 417.819898 
L 257.303947 418.865658 
L 258.969878 420.328042 
L 260.831802 422.273761 
L 262.693725 424.542905 
L 264.457652 427.025367 
L 266.417572 430.201281 
L 268.475487 433.965155 
L 270.729394 438.577272 
L 274.061257 445.936369 
L 277.001136 452.965988 
L 284.840813 472.187222 
L 286.898728 476.481374 
L 288.56466 479.452077 
L 289.936603 481.472204 
L 291.210551 482.960793 
L 292.386502 483.987924 
L 293.464458 484.641074 
L 294.444417 484.994355 
L 295.326381 485.101744 
L 296.208345 484.991597 
L 297.090308 484.650206 
L 297.972272 484.070581 
L 298.952232 483.146569 
L 300.030187 481.795246 
L 301.206139 479.929209 
L 302.480086 477.467743 
L 303.950026 474.111031 
L 305.517961 469.940429 
L 307.085897 465.135273 
L 308.751828 459.303733 
L 310.613751 451.968352 
L 313.06365 441.341832 
L 320.315352 409.281839 
L 322.471263 400.993566 
L 324.431182 394.316148 
L 326.293106 388.768789 
L 328.057033 384.179955 
L 329.722964 380.444097 
L 331.486892 377.053368 
L 333.544807 373.605872 
L 337.954625 366.399216 
L 339.522561 363.279704 
L 340.9925 359.848405 
L 342.46244 355.800666 
L 343.932379 351.06312 
L 345.500314 345.197 
L 347.166246 338.030911 
L 348.930173 329.437274 
L 350.890092 318.759343 
L 353.046004 305.731945 
L 355.495903 289.499119 
L 358.72977 266.456842 
L 362.8456 235.38804 
L 367.549406 200.193405 
L 369.901309 184.371991 
L 371.861229 172.666036 
L 373.52716 163.981 
L 374.9971 157.391257 
L 376.369043 152.216945 
L 377.642991 148.280735 
L 378.720946 145.611705 
L 379.700906 143.706774 
L 380.680865 142.272271 
L 381.562829 141.352329 
L 382.444793 140.761889 
L 383.228761 140.496428 
L 384.012728 140.44966 
L 384.894692 140.618945 
L 385.972647 141.079713 
L 387.344591 141.937743 
L 392.636373 145.541215 
L 393.812325 145.907116 
L 394.89028 146.001579 
L 395.87024 145.876691 
L 396.948195 145.506444 
L 398.026151 144.891544 
L 399.202103 143.938006 
L 400.378054 142.692123 
L 401.652002 141.022816 
L 403.121941 138.708799 
L 404.787873 135.636066 
L 406.845788 131.329759 
L 411.549594 121.307821 
L 413.313521 118.101623 
L 414.783461 115.872528 
L 415.959412 114.463934 
L 416.939372 113.602196 
L 417.821336 113.110052 
L 418.605303 112.918721 
L 419.389271 112.975367 
L 420.173239 113.29049 
L 420.957207 113.87354 
L 421.741174 114.733063 
L 422.623138 116.038785 
L 423.603098 117.921345 
L 424.681053 120.519492 
L 425.857005 123.971265 
L 427.130952 128.403159 
L 428.600892 134.326346 
L 430.364819 142.409657 
L 432.52073 153.416555 
L 435.264617 168.657785 
L 439.772432 195.207687 
L 443.594274 217.184479 
L 446.142169 230.627887 
L 448.29808 240.882931 
L 450.258 249.211732 
L 452.021927 255.82131 
L 453.687858 261.235111 
L 455.157798 265.298953 
L 456.627737 268.704643 
L 458.097677 271.525251 
L 459.567616 273.87053 
L 461.135552 275.967931 
L 463.095471 278.205882 
L 465.937354 281.071687 
L 481.518712 296.082709 
L 483.086648 297.117089 
L 484.458591 297.776414 
L 485.732539 298.146252 
L 486.90849 298.259219 
L 488.084442 298.151344 
L 489.260393 297.817043 
L 490.338349 297.28972 
L 491.416305 296.527875 
L 492.592256 295.405249 
L 493.768208 293.944471 
L 494.944159 292.102096 
L 496.218107 289.658881 
L 497.59005 286.543084 
L 499.255982 282.161752 
L 501.215901 276.339685 
L 503.6658 268.336264 
L 507.095659 256.294553 
L 514.249364 230.976771 
L 516.405275 224.347479 
L 518.267199 219.335971 
L 520.031126 215.229496 
L 521.697057 211.896949 
L 523.362989 209.051728 
L 525.02892 206.634219 
L 526.792847 204.461506 
L 528.458779 202.734897 
L 530.12471 201.329686 
L 531.888638 200.125335 
L 533.750561 199.111803 
L 535.612484 198.348231 
L 537.572403 197.786897 
L 540.022303 197.326488 
L 542.668194 197.040885 
L 545.118093 196.996904 
L 547.763984 197.181791 
L 550.899855 197.628393 
L 555.113681 198.458387 
L 558.05356 199.194 
L 559.719491 199.839733 
L 561.189431 200.648619 
L 562.757366 201.775815 
L 564.913277 203.626558 
L 572.262975 210.152278 
L 574.418886 211.603758 
L 580.102652 215.211058 
L 581.670587 216.608152 
L 583.140527 218.237121 
L 584.610466 220.219009 
L 586.080406 222.569818 
L 587.648341 225.505937 
L 589.314272 229.12251 
L 591.0782 233.489747 
L 593.136115 239.218528 
L 595.292026 245.900644 
L 597.545933 253.607897 
L 599.995832 262.791609 
L 602.739719 273.951923 
L 605.483606 286.076921 
L 608.325489 299.647651 
L 611.95134 318.124541 
L 622.240916 371.30686 
L 624.788811 382.895989 
L 626.944722 391.683821 
L 628.904642 398.735372 
L 630.864561 404.935828 
L 632.922476 410.704023 
L 635.176383 416.36038 
L 637.724278 422.156181 
L 640.272173 427.426574 
L 642.624077 431.795009 
L 645.171972 436.074719 
L 647.523875 439.602488 
L 650.169766 443.160784 
L 652.423673 445.880348 
L 653.991608 447.439919 
L 655.265556 448.409313 
L 656.539503 449.090649 
L 657.715455 449.460973 
L 658.793411 449.577573 
L 659.871366 449.484913 
L 661.047318 449.150127 
L 662.223269 448.562531 
L 663.399221 447.7174 
L 664.673168 446.510379 
L 665.947116 444.987458 
L 667.319059 442.976687 
L 668.788999 440.406375 
L 670.356934 437.192565 
L 672.022866 433.246193 
L 673.982785 427.988528 
L 676.53068 420.457123 
L 679.078575 412.235346 
L 682.018454 401.904345 
L 685.938293 387.305571 
L 689.368151 373.735607 
L 693.581978 356.02971 
L 698.677768 334.664226 
L 700.833679 326.612648 
L 702.695602 320.513687 
L 704.361534 315.810349 
L 705.831473 312.304768 
L 707.105421 309.804378 
L 708.281372 307.982606 
L 709.261332 306.859674 
L 710.143296 306.175485 
L 710.927263 305.839691 
L 711.613235 305.76102 
L 712.299207 305.883492 
L 713.083175 306.264886 
L 713.867142 306.89328 
L 714.749106 307.874871 
L 715.827062 309.434794 
L 717.101009 311.723852 
L 718.570949 314.845546 
L 720.432872 319.348802 
L 722.784775 325.667888 
L 733.270343 354.70246 
L 737.386174 364.919081 
L 741.404008 374.292498 
L 744.147895 380.186143 
L 746.499798 384.720642 
L 749.047693 389.142369 
L 752.967532 395.439738 
L 757.083362 401.703818 
L 760.709213 406.806071 
L 764.237068 411.367667 
L 767.862918 415.758418 
L 770.214821 418.264518 
L 772.370733 420.241957 
L 774.820632 422.170197 
L 776.976543 423.612661 
L 778.642474 424.475871 
L 780.014418 424.962624 
L 781.288365 425.192353 
L 782.562313 425.197485 
L 783.83626 424.972315 
L 785.012212 424.543996 
L 786.188164 423.893812 
L 787.462111 422.928728 
L 788.736059 421.662238 
L 790.010006 420.052133 
L 791.283954 418.047676 
L 792.557901 415.614057 
L 793.929845 412.496664 
L 795.49778 408.346786 
L 797.359703 402.734327 
L 799.515615 395.483057 
L 803.631445 380.610953 
L 806.17934 371.896911 
L 808.139259 365.972635 
L 809.903187 361.315664 
L 811.569118 357.505891 
L 813.137054 354.433974 
L 814.606993 351.995814 
L 816.076932 349.981544 
L 817.644868 348.229593 
L 819.310799 346.706622 
L 820.976731 345.470321 
L 822.740658 344.435419 
L 824.504585 343.652848 
L 826.268513 343.119227 
L 828.03244 342.813422 
L 829.992359 342.693787 
L 832.834242 342.780684 
L 837.244061 342.874206 
L 841.751875 342.745363 
L 844.397766 342.458821 
L 851.355479 341.446073 
L 852.727423 341.58742 
L 853.903374 341.928033 
L 855.079326 342.510431 
L 856.255278 343.347394 
L 857.529225 344.539469 
L 858.901169 346.133661 
L 860.5671 348.441966 
L 862.625015 351.711178 
L 865.270906 356.353698 
L 868.014793 361.626163 
L 874.972507 375.234777 
L 877.226414 379.007731 
L 879.382325 382.217115 
L 881.244248 384.603968 
L 882.812184 386.259363 
L 884.086131 387.308004 
L 885.262083 387.991534 
L 886.340038 388.359937 
L 887.417994 388.483334 
L 888.49595 388.372671 
L 889.573905 388.046375 
L 890.847853 387.412746 
L 892.317792 386.404964 
L 894.08172 384.902878 
L 900.353461 379.275401 
L 901.627409 378.582608 
L 902.705364 378.230815 
L 903.78332 378.104091 
L 904.959272 378.202635 
L 906.233219 378.54882 
L 907.703159 379.200209 
L 909.36909 380.192502 
L 911.622997 381.823714 
L 913.876904 383.405486 
L 915.150852 384.045956 
L 916.228807 384.358413 
L 917.208767 384.428365 
L 918.188727 384.273993 
L 919.168686 383.87856 
L 920.148646 383.232456 
L 921.128606 382.324208 
L 922.206561 381.003854 
L 923.284517 379.326877 
L 924.460468 377.073824 
L 925.734416 374.12264 
L 927.106359 370.336454 
L 928.576299 365.610216 
L 930.24223 359.484536 
L 932.20215 351.35964 
L 934.946037 338.873623 
L 938.375895 323.417914 
L 940.237819 316.053114 
L 941.707758 311.093784 
L 942.981706 307.522157 
L 944.059661 305.087178 
L 945.039621 303.373112 
L 945.921584 302.247405 
L 946.705552 301.579675 
L 947.391524 301.250113 
L 948.077496 301.153425 
L 948.763467 301.281441 
L 949.547435 301.68544 
L 950.331403 302.346365 
L 951.213366 303.37896 
L 952.193326 304.861531 
L 953.369278 307.058373 
L 954.741221 310.103508 
L 956.407153 314.354131 
L 959.249036 322.346719 
L 962.28691 330.68931 
L 963.952842 334.639636 
L 965.324785 337.364398 
L 966.598733 339.4108 
L 967.676688 340.759809 
L 968.656648 341.671599 
L 969.636608 342.28857 
L 970.518571 342.597899 
L 971.400535 342.679616 
L 972.282499 342.541298 
L 973.164462 342.190275 
L 974.144422 341.561681 
L 975.222378 340.595238 
L 976.398329 339.236099 
L 977.770273 337.27739 
L 979.338208 334.61571 
L 981.298127 330.804305 
L 984.238006 324.531514 
L 987.961853 316.673848 
L 990.019768 312.834434 
L 991.6857 310.172117 
L 993.155639 308.214349 
L 994.625578 306.617531 
L 996.095518 305.336069 
L 997.859445 304.094288 
L 1000.309344 302.661256 
L 1005.99311 299.491357 
L 1007.365054 298.30777 
L 1008.639001 296.925698 
L 1010.010945 295.094262 
L 1011.480884 292.744187 
L 1013.146816 289.631701 
L 1015.400723 284.87443 
L 1023.436392 267.44637 
L 1025.396311 263.820708 
L 1026.964246 261.365357 
L 1028.434186 259.463251 
L 1029.708133 258.155186 
L 1030.884085 257.244661 
L 1031.962041 256.667391 
L 1033.039996 256.338604 
L 1034.117952 256.256061 
L 1035.097911 256.396005 
L 1036.077871 256.744169 
L 1037.155827 257.365558 
L 1038.331778 258.318803 
L 1039.605726 259.666843 
L 1040.977669 261.462451 
L 1042.349613 263.617288 
L 1044.015544 266.686803 
L 1046.171455 271.189266 
L 1055.873056 292.097556 
L 1058.224959 296.5058 
L 1060.478866 300.248982 
L 1066.554616 309.980135 
L 1068.318543 313.435431 
L 1069.984475 317.193187 
L 1071.650406 321.515609 
L 1073.414333 326.751078 
L 1075.276257 333.007917 
L 1077.530164 341.424797 
L 1080.470043 353.337878 
L 1086.83978 379.520534 
L 1089.093688 387.646241 
L 1091.249599 394.577421 
L 1093.40551 400.759638 
L 1095.561421 406.257852 
L 1097.913324 411.642565 
L 1103.989074 425.196531 
L 1106.144985 430.758023 
L 1108.398892 437.202121 
L 1110.848791 444.909382 
L 1113.298691 453.33107 
L 1115.650594 462.232959 
L 1117.904501 471.692884 
L 1120.550392 483.851007 
L 1123.686263 499.328816 
L 1126.724138 515.476908 
L 1130.349988 536.026532 
L 1135.739766 567.989766 
L 1139.659605 590.712642 
L 1142.011508 603.120763 
L 1144.069423 612.847864 
L 1145.931347 620.618448 
L 1147.597278 626.653021 
L 1149.067217 631.200533 
L 1150.439161 634.77047 
L 1151.713108 637.488316 
L 1152.88906 639.496362 
L 1153.967016 640.937468 
L 1154.946975 641.923222 
L 1155.926935 642.604937 
L 1156.808898 642.96482 
L 1157.690862 643.090909 
L 1158.572826 642.990692 
L 1159.45479 642.67163 
L 1160.434749 642.066708 
L 1161.414709 641.199509 
L 1162.492664 639.9522 
L 1163.766612 638.11311 
L 1165.236551 635.569709 
L 1167.098475 631.869319 
L 1169.842362 625.881864 
L 1172.978233 618.51296 
L 1175.722119 611.480964 
L 1178.270015 604.353438 
L 1180.621918 597.086862 
L 1182.777829 589.702326 
L 1185.031736 581.175924 
L 1187.383639 571.390817 
L 1189.833538 560.234734 
L 1192.381433 547.545393 
L 1195.223316 532.202398 
L 1198.947163 510.818141 
L 1202.67101 488.162662 
L 1206.688844 462.330286 
L 1210.314695 437.591241 
L 1213.744553 412.55165 
L 1220.702267 361.21685 
L 1223.348158 343.636076 
L 1225.700061 329.471979 
L 1227.855972 317.839296 
L 1229.815891 308.444055 
L 1231.579819 301.018929 
L 1233.24575 294.922995 
L 1234.911682 289.647245 
L 1236.577613 285.085856 
L 1238.047552 281.657132 
L 1239.419496 278.981824 
L 1240.693443 276.950911 
L 1241.967391 275.341655 
L 1243.143343 274.207783 
L 1244.319294 273.378872 
L 1245.495246 272.826732 
L 1246.573201 272.556616 
L 1247.651157 272.503728 
L 1248.827108 272.670443 
L 1250.101056 273.080464 
L 1251.766987 273.875 
L 1254.020895 275.234877 
L 1254.216886 275.360989 
L 1255.686826 279.536021 
L 1256.960773 282.478574 
L 1258.136725 284.637436 
L 1259.312677 286.318683 
L 1260.488628 287.596709 
L 1261.66458 288.547541 
L 1262.938527 289.287731 
L 1264.310471 289.830801 
L 1265.976402 290.240035 
L 1268.132313 290.520659 
L 1277.147942 291.42335 
L 1279.597841 292.029342 
L 1281.851748 292.808701 
L 1284.007659 293.78202 
L 1286.163571 295.002332 
L 1288.319482 296.477312 
L 1290.671385 298.367433 
L 1293.121284 300.632988 
L 1295.767175 303.388534 
L 1298.80505 306.879343 
L 1302.724889 311.749358 
L 1310.270578 321.575629 
L 1311.054545 322.602564 
L 1311.054545 322.602564 
" style="fill:none;stroke:#008fd5;stroke-width:4;"/>
   </g>
   <g id="patch_3">
    <path d="M 115.2 669.6 
L 115.2 86.4 
" style="fill:none;stroke:#f0f0f0;stroke-linecap:square;stroke-linejoin:miter;stroke-width:3;"/>
   </g>
   <g id="patch_4">
    <path d="M 1368 669.6 
L 1368 86.4 
" style="fill:none;stroke:#f0f0f0;stroke-linecap:square;stroke-linejoin:miter;stroke-width:3;"/>
   </g>
   <g id="patch_5">
    <path d="M 115.2 669.6 
L 1368 669.6 
" style="fill:none;stroke:#f0f0f0;stroke-linecap:square;stroke-linejoin:miter;stroke-width:3;"/>
   </g>
   <g id="patch_6">
    <path d="M 115.2 86.4 
L 1368 86.4 
" style="fill:none;stroke:#f0f0f0;stroke-linecap:square;stroke-linejoin:miter;stroke-width:3;"/>
   </g>
   <g id="legend_1">
    <g id="line2d_30">
     <path d="M 1274.857812 99.179688 
L 1294.857812 99.179688 
" style="fill:none;stroke:#008fd5;stroke-width:4;"/>
    </g>
    <g id="line2d_31"/>
    <g id="text_17">
     <!-- Shining, The -->
     <defs>
      <path d="M 6.59375 0 
L 6.59375 71.578125 
L 15.375 71.578125 
L 15.375 45.90625 
Q 21.53125 53.03125 30.90625 53.03125 
Q 36.671875 53.03125 40.921875 50.75 
Q 45.171875 48.484375 47 44.484375 
Q 48.828125 40.484375 48.828125 32.859375 
L 48.828125 0 
L 40.046875 0 
L 40.046875 32.859375 
Q 40.046875 39.453125 37.1875 42.453125 
Q 34.328125 45.453125 29.109375 45.453125 
Q 25.203125 45.453125 21.75 43.421875 
Q 18.3125 41.40625 16.84375 37.9375 
Q 15.375 34.46875 15.375 28.375 
L 15.375 0 
z
" id="ArialMT-68"/>
      <path d="M 4.984375 -4.296875 
L 13.53125 -5.5625 
Q 14.0625 -9.515625 16.5 -11.328125 
Q 19.78125 -13.765625 25.4375 -13.765625 
Q 31.546875 -13.765625 34.859375 -11.328125 
Q 38.1875 -8.890625 39.359375 -4.5 
Q 40.046875 -1.8125 39.984375 6.78125 
Q 34.234375 0 25.640625 0 
Q 14.9375 0 9.078125 7.71875 
Q 3.21875 15.4375 3.21875 26.21875 
Q 3.21875 33.640625 5.90625 39.90625 
Q 8.59375 46.1875 13.6875 49.609375 
Q 18.796875 53.03125 25.6875 53.03125 
Q 34.859375 53.03125 40.828125 45.609375 
L 40.828125 51.859375 
L 48.921875 51.859375 
L 48.921875 7.03125 
Q 48.921875 -5.078125 46.453125 -10.125 
Q 44 -15.1875 38.640625 -18.109375 
Q 33.296875 -21.046875 25.484375 -21.046875 
Q 16.21875 -21.046875 10.5 -16.875 
Q 4.78125 -12.703125 4.984375 -4.296875 
z
M 12.25 26.859375 
Q 12.25 16.65625 16.296875 11.96875 
Q 20.359375 7.28125 26.46875 7.28125 
Q 32.515625 7.28125 36.609375 11.9375 
Q 40.71875 16.609375 40.71875 26.5625 
Q 40.71875 36.078125 36.5 40.90625 
Q 32.28125 45.75 26.3125 45.75 
Q 20.453125 45.75 16.34375 40.984375 
Q 12.25 36.234375 12.25 26.859375 
z
" id="ArialMT-67"/>
      <path d="M 8.890625 0 
L 8.890625 10.015625 
L 18.890625 10.015625 
L 18.890625 0 
Q 18.890625 -5.515625 16.9375 -8.90625 
Q 14.984375 -12.3125 10.75 -14.15625 
L 8.296875 -10.40625 
Q 11.078125 -9.1875 12.390625 -6.8125 
Q 13.71875 -4.4375 13.875 0 
z
" id="ArialMT-2c"/>
      <path d="M 25.921875 0 
L 25.921875 63.140625 
L 2.34375 63.140625 
L 2.34375 71.578125 
L 59.078125 71.578125 
L 59.078125 63.140625 
L 35.40625 63.140625 
L 35.40625 0 
z
" id="ArialMT-54"/>
     </defs>
     <g style="fill:#262626;" transform="translate(1302.857812 102.679688)scale(0.1 -0.1)">
      <use xlink:href="#ArialMT-53"/>
      <use x="66.699219" xlink:href="#ArialMT-68"/>
      <use x="122.314453" xlink:href="#ArialMT-69"/>
      <use x="144.53125" xlink:href="#ArialMT-6e"/>
      <use x="200.146484" xlink:href="#ArialMT-69"/>
      <use x="222.363281" xlink:href="#ArialMT-6e"/>
      <use x="277.978516" xlink:href="#ArialMT-67"/>
      <use x="333.59375" xlink:href="#ArialMT-2c"/>
      <use x="361.376953" xlink:href="#ArialMT-20"/>
      <use x="389.144531" xlink:href="#ArialMT-54"/>
      <use x="450.228516" xlink:href="#ArialMT-68"/>
      <use x="505.84375" xlink:href="#ArialMT-65"/>
     </g>
    </g>
   </g>
  </g>
 </g>
 <defs>
  <clipPath id="pdf58b3e93d">
   <rect height="583.2" width="1252.8" x="115.2" y="86.4"/>
  </clipPath>
 </defs>
</svg>
